<svg xmlns="http://www.w3.org/2000/svg" xmlns:xlink="http://www.w3.org/1999/xlink" viewBox="0 0 500 500"><defs><style>.cls-1,.cls-10{fill:none;}.cls-2{clip-path:url(#clip-path);}.cls-3{fill:#25a957;}.cls-4{clip-path:url(#clip-path-2);}.cls-5{clip-path:url(#clip-path-3);}.cls-6{clip-path:url(#clip-path-4);}.cls-7{clip-path:url(#clip-path-5);}.cls-8{clip-path:url(#clip-path-6);}.cls-9{fill:#fff;}.cls-10{stroke:#fff;stroke-miterlimit:10;stroke-width:0.25px;}</style><clipPath id="clip-path"><rect class="cls-1" x="74.83" y="74.8" width="350.34" height="307.75"/></clipPath><clipPath id="clip-path-2"><rect class="cls-1" x="74.83" y="5" width="350.34" height="9.52"/></clipPath><clipPath id="clip-path-3"><rect class="cls-1" x="74.83" y="487.25" width="350.34" height="7.75"/></clipPath><clipPath id="clip-path-4"><rect class="cls-1" x="407.97" y="17.69" width="17.2" height="47.59"/></clipPath><clipPath id="clip-path-5"><rect class="cls-1" x="407.97" y="395.25" width="17.2" height="34.9"/></clipPath><clipPath id="clip-path-6"><rect class="cls-1" x="407.97" y="442.84" width="17.2" height="34.9"/></clipPath></defs><g id="Calque_2" data-name="Calque 2"><g id="Calque_1-2" data-name="Calque 1"><rect class="cls-1" width="500" height="500"/><g id="surface1"><g class="cls-2"><path class="cls-3" d="M75.22,381.46h349V75.51h-349Z"/></g><g class="cls-4"><path class="cls-3" d="M75.22,12.16h349V5h-349Z"/></g><g class="cls-5"><path class="cls-3" d="M75.22,495h349v-7.18h-349Z"/></g><path class="cls-3" d="M98.54,39.19a9.09,9.09,0,0,0-6.94-3.34c-5.9,0-9.28,5.44-9.28,10.88s3.5,10.62,9.23,10.62a9.66,9.66,0,0,0,7-3.35v7.32a16.55,16.55,0,0,1-7.15,1.88C82.53,63.2,76,55.54,76,46.85,76,37.9,82.27,30,91.52,30a14.67,14.67,0,0,1,7,1.84"/><path class="cls-3" d="M137.78,36.18v7h9.78v5.35h-9.78V57h10.16v5.34H131.63V30.83h16.31v5.35"/><path class="cls-3" d="M187.23,45.34H188c3.38,0,5.76-1,5.76-4.85s-2.45-4.63-5.72-4.63h-.83Zm15.18,17H195L187.3,49.65h-.07V62.36h-6.15V30.84h8.32c6.23,0,10.53,2.75,10.53,9.48,0,4-2.21,8-6.43,8.75"/><path class="cls-3" d="M242.86,62.36h-6.15V36.18h-6.35V30.84h18.86v5.34h-6.36"/><path class="cls-3" d="M280.51,62.36h6.15V30.84h-6.15Z"/><path class="cls-3" d="M326.33,36.18v7h8.9v5.35h-8.9V62.36h-6.15V30.83h15.63v5.35"/><path class="cls-3" d="M368.58,62.36h6.15V30.84h-6.15Z"/><g class="cls-6"><path class="cls-3" d="M420.83,21.59l-6.32,6.28-3-1.84,5-7Zm-6.44,14.6v6.93h9.78v5.36h-9.78V57h10.16v5.36H408.24V30.83h16.31v5.36"/></g><path class="cls-3" d="M89.22,404.29h-.09l-3.47,11.47h7.49ZM83.9,420.78l-2.59,6.64H74.83l12.3-32.36H91.9l12,32.36H97.29l-2.43-6.64"/><path class="cls-3" d="M143.59,410.65v.81c0,8.89-4.55,16.8-14.34,16.8-9.2,0-15-7.78-15-16.48,0-9,6-16.72,15.39-16.72a13.58,13.58,0,0,1,12.46,7.52l-5.44,2.93a8,8,0,0,0-7.19-5c-5.94,0-8.86,6.07-8.86,11.29s3,11,8.91,11a7.44,7.44,0,0,0,7.19-7.15H130v-5"/><path class="cls-3" d="M162.81,410.4h.8c3.38,0,5.77-1,5.77-4.84s-2.47-4.65-5.73-4.65h-.84Zm15.18,17h-7.44L162.9,414.7h-.09v12.72h-6.15V395.89H165c6.23,0,10.55,2.76,10.55,9.49,0,4-2.22,8-6.45,8.74"/><path class="cls-3" d="M190,427.42h6.14V395.89H190Z"/><path class="cls-3" d="M231.74,404.26a9.09,9.09,0,0,0-7-3.35c-5.89,0-9.27,5.44-9.27,10.87s3.51,10.62,9.23,10.62a9.62,9.62,0,0,0,7-3.35v7.33a16.55,16.55,0,0,1-7.15,1.88c-8.87,0-15.43-7.66-15.43-16.36,0-8.95,6.31-16.84,15.56-16.84a14.78,14.78,0,0,1,7,1.83"/><path class="cls-3" d="M245.65,395.89h6.15v17.65c0,3.89.33,9.37,5.56,9.37s5.55-5.48,5.55-9.37V395.89h6.15v18.86c0,7.69-3.26,13.51-11.7,13.51s-11.71-5.82-11.71-13.51"/><path class="cls-3" d="M289.57,422.06h8.7v5.36H283.43V395.89h6.14"/><path class="cls-3" d="M319.27,427.42h-6.16V401.24h-6.35v-5.35h18.85v5.35h-6.34"/><path class="cls-3" d="M337.73,395.89h6.15v17.65c0,3.89.34,9.37,5.55,9.37s5.57-5.48,5.57-9.37V395.89h6.14v18.86c0,7.69-3.25,13.51-11.71,13.51s-11.7-5.82-11.7-13.51"/><path class="cls-3" d="M381.66,410.4h.8c3.37,0,5.76-1,5.76-4.84s-2.46-4.65-5.72-4.65h-.84Zm15.18,17H389.4l-7.66-12.72h-.08v12.72h-6.15V395.89h8.33c6.22,0,10.53,2.76,10.53,9.49,0,4-2.22,8-6.44,8.74"/><g class="cls-7"><path class="cls-3" d="M415,401.24v6.94h9.78v5.36H415v8.52h10.15v5.36H408.86V395.89h16.31v5.35"/></g><path class="cls-3" d="M83.62,471.81h1.29c3.31,0,6.16-.42,6.16-4.51S87.72,463,84.62,463h-1Zm0-13.46h.75c3,0,4.48-.88,4.48-4.14s-1.85-4.06-4.44-4.06h-.79Zm-6.15-13.13h7.65c5.86,0,9.45,2.3,9.45,8.57,0,2.26-.79,4.85-2.76,6.11,3.72.67,5.4,4.43,5.4,7.91,0,6.17-4.35,8.93-10.08,8.93H77.47"/><path class="cls-3" d="M113.13,476.74h6.14V445.22h-6.14Z"/><path class="cls-3" d="M141.12,460.69c0,4.76,4,10.82,9.25,10.82s9.23-6.06,9.23-10.82c0-5.1-3.84-10.24-9.23-10.24s-9.25,5.14-9.25,10.24m-6.35.25c0-8.82,6.4-16.55,15.6-16.55S166,452.12,166,460.94c0,9-6.4,16.65-15.59,16.65s-15.6-7.61-15.6-16.65"/><path class="cls-3" d="M187.65,471.39h8.7v5.35H181.49V445.22h6.16"/><path class="cls-3" d="M215.69,460.69c0,4.76,4,10.82,9.24,10.82s9.24-6.06,9.24-10.82c0-5.1-3.85-10.24-9.24-10.24s-9.24,5.14-9.24,10.24m-6.35.25c0-8.82,6.39-16.55,15.59-16.55s15.59,7.73,15.59,16.55c0,9-6.38,16.65-15.59,16.65s-15.59-7.61-15.59-16.65"/><path class="cls-3" d="M283.91,460v.8c0,8.9-4.56,16.81-14.34,16.81-9.2,0-15-7.79-15-16.49,0-9,6-16.71,15.38-16.71a13.58,13.58,0,0,1,12.46,7.52L277,454.83a8,8,0,0,0-7.19-5c-5.95,0-8.87,6.06-8.87,11.27s3,11,8.91,11A7.45,7.45,0,0,0,277,465h-6.7v-5"/><path class="cls-3" d="M299.49,476.74h6.14V445.22h-6.14Z"/><path class="cls-3" d="M344,467.3a10.86,10.86,0,0,0,2-6.52c0-5.1-3.73-10.55-9.24-10.55-6,0-9.25,5.66-9.25,11.08,0,5.23,3.23,10.34,9.25,10.34a6.78,6.78,0,0,0,3.31-1l-5.19-6,6.35-.5Zm2.72,10.78-2.17-2.62a14.31,14.31,0,0,1-7.82,2.13c-9.2,0-15.59-7.61-15.59-16.65,0-8.82,6.39-16.55,15.59-16.55s15.59,7.73,15.59,16.55a18.57,18.57,0,0,1-3.72,11.42l4.32,5.1"/><path class="cls-3" d="M367.7,445.22h6.14v17.64c0,3.9.33,9.37,5.56,9.37s5.55-5.47,5.55-9.37V445.22h6.16v18.86c0,7.69-3.26,13.51-11.71,13.51s-11.7-5.82-11.7-13.51"/><g class="cls-8"><path class="cls-3" d="M414.13,450.57v6.94h9.79v5.35h-9.79v8.53h10.16v5.35H408V445.22h16.3v5.35"/></g><path class="cls-9" d="M216.76,293.18v-96c-59,43.93-74,96-74,96ZM127,364.1H102.56s0-135.55,111.68-192c0,0,20.71-7.54,26.37,11.92V364.1H214.88V318.91H133.94s-5,18.41-6.92,45.19"/><path class="cls-10" d="M216.76,293.18v-96c-59,43.93-74,96-74,96ZM127,364.1H102.56s0-135.55,111.68-192c0,0,20.71-7.54,26.37,11.92V364.1H214.88V318.91H133.94S128.92,337.32,127,364.1Z"/><path class="cls-9" d="M294.57,85.48s42.05,20.08,37.65,71.53c0,0,23.22-30.74,64.63-21.95,0,0-19,49.84-74.05,35.58-50.19-13-33.87-82.65-28.23-85.16"/><path class="cls-10" d="M294.57,85.48s42.05,20.08,37.65,71.53c0,0,23.22-30.74,64.63-21.95,0,0-19,49.84-74.05,35.58C272.61,157.64,288.93,88,294.57,85.48Z"/><path class="cls-9" d="M283.71,342.13c15.49,1.26,61.68,3.76,61.68-33.89s-61.68-32-61.68-32Zm46-117.65c.48-35.46-46-31.07-46-31.07v62.12s45.51,5.84,46-31.05M260.05,364.09V170.64h30.76s62.12.8,62.12,49.13c0,0-.63,32-18.83,40.78,0,0,35.15,12.56,35.15,54,0,38-37.65,48.33-50.21,49.58"/></g></g></g></svg>