<svg xmlns="http://www.w3.org/2000/svg" viewBox="0 0 500 500"><defs><style>.cls-1{fill:#38a541;}.cls-2{fill:#f2f9f2;}.cls-3{fill:none;}</style></defs><g id="Calque_2" data-name="Calque 2"><g id="Calque_1-2" data-name="Calque 1"><path class="cls-1" d="M5.53,86.59q243.06,0,486.13-.08c3,0,3.78.49,3.77,3.68q-.17,161.26-.09,322.53-242.56,0-485.14.09c-3.84,0-4.77-.86-4.77-4.74Q5.61,247.33,5.53,86.59ZM294.18,220.28l-.18-1.11a11,11,0,0,0-2.13-.11,158.62,158.62,0,0,0-19.36,4.55c-53.16,14.75-99.88,41.75-143.06,75.42-3.43,2.67-6.75,5.48-10.25,8-2.21,1.62-4.07,1.75-5-1.63a53.78,53.78,0,0,0-3.29-8.05c-1-2.13-1.54-1.16-2.21-.22a8.8,8.8,0,0,0-.84,2.52c-5.82,18.9-1.52,13.56-18.09,25.09-1,.67-2.72,1.13-2.28,2.66.39,1.33,2,1.37,3.28,1.54,9.53,1.26,7.22,1.8,5.9,8.67-.63,3.21-2.42,6.21-2.29,9,4.16-3.78,8.47-7.54,12.59-11.51,1.81-1.75,3.54-2.68,6.13-2s5.5,1.14,8.26,1.64c2.53.46,3.39-.54,2.48-3s-1.93-5-2.8-7.54a6.78,6.78,0,0,1,1.82-7.64c21.91-22.07,46.94-40.11,73.27-56.42,25.93-16.05,54.13-26.86,83.22-35.57C284.25,223.19,289.22,221.74,294.18,220.28Zm-82.9,87.46c-3.24-.21-5.73-.5-8.21-.52-7.54-.08-7.54,0-9.45-7.26a6.93,6.93,0,0,0-.32-1.1c-.68-1.59-.11-4.46-1.89-4.63-2.24-.22-2.34,2.77-2.77,4.35-1.82,6.71-5.34,10.62-12.9,10.18-2.07-.12-5.84-.67-6.28,1.3-.54,2.48,3.21,3,5.1,4.26,5.8,3.94,5.78,3.82,3.3,10.38-1.17,3.07-3,6-3.43,10.51,4.14-3.2,7.53-5.64,10.7-8.33,2.52-2.14,4.69-2.05,7.08.11,2,1.79,4.12,3.43,6.23,5.08.57.45,1.33,1.1,2,.46.34-.32.32-1.19.22-1.77-.49-2.63-.92-5.29-1.65-7.85-1.14-4,.11-6.84,3.67-9C205.44,312.23,208.45,310.84,211.28,307.74Zm-48.72-58.62a33.14,33.14,0,0,0-10.45-2.1c-4.06-.35-5.86-2.26-6.06-6.26-.12-2.29.5-5.84-1.63-6.46s-3.13,2.89-4.31,4.72c-2.9,4.51-6.31,7.19-12.18,6.73a32.58,32.58,0,0,0-12,1.18c3.3,1.83,5.86,3.18,8.35,4.64,3.86,2.25,3.92,2.84,1.18,6.36-2.14,2.76-4.81,5.16-6.8,9.44,4.47-2,8.16-3.27,11.53-5.15,4.37-2.43,7.78-1.91,11.26,1.72,1.45,1.52,3,4.7,5.19,3.68s.7-4.2.76-6.41c.17-5.83.38-6.24,5.86-8.33C156.17,251.77,159.32,251.21,162.56,249.12Zm29.06-54c-3.85-.93-7.26-.29-10.59.17-4.17.59-7.28-.28-9-4.46a33.5,33.5,0,0,0-2.94-4.94c-1.09-1.68-2.17-1.7-3,.23a15.24,15.24,0,0,0-1.09,3.26c-1,5.63-4.56,7.61-10,7.88a33.65,33.65,0,0,0-12,2.86l12.31,3.15c2.93.76,4,2.25,2.54,5.31-1.27,2.56-2.14,5.33-3.38,8.48,3.67-.49,6-2.41,8.18-4.14,5.11-4.07,10-4.29,15.34-.59,2,1.34,4.11,2.83,7,3.07a25.31,25.31,0,0,0-3.64-7.88c-1.7-2.83-1.13-4.55,1.67-6.22A37.41,37.41,0,0,0,191.62,195.08Zm3.54-32.33c3.81,2.19,7.59,4.42,11.42,6.56,2.34,1.3,3.28,3.07,2.37,5.71a21,21,0,0,0-.74,3c-.31,1.66-2,3.63-.44,4.91,1.37,1.11,3.19-.59,4.43-1.46,5.52-3.86,10.28-2.94,15.08,1.41a24.37,24.37,0,0,0,7.88,5.38c-1.88-4-3.21-7.15-4.78-10.15s-.73-4.47,2.29-5.46c2.45-.8,5.17-1.06,7.59-3.14-3.56-2-7.2-2.56-10.76-3.14-4.12-.68-7.07-2.58-8.79-6.45a48.75,48.75,0,0,0-2.91-5.36c-.56-.93-.93-2.48-2.3-2.22-1.09.2-1,1.63-1.21,2.6-.33,1.37-.81,2.7-1,4.08-.55,3.24-2.1,4.41-5.58,3.92C203.68,162.34,199.65,161.4,195.16,162.75Zm91.21,123a21.41,21.41,0,0,0,6,6.66c4.84,3.88,7,8.16,3.69,14.11-.51.91-1.09,2.29-.15,3.24s2.17.18,3.16-.31c5.6-2.77,10.3-2,14.65,2.76a16.56,16.56,0,0,0,8.38,5.25c-1.65-3.3-2.95-5.88-4.22-8.47-2.13-4.33-2-4.5,2.28-6.48,2.22-1,4.89-1.24,7.11-3.74a56.37,56.37,0,0,0-6.25-1.31c-6.86-.65-11.3-3.95-13-10.86-.49-2-1.18-5.49-2.77-5.42-2.43.11-2.14,3.59-2.79,5.62-.94,3-2.21,3.46-5.29,2.85C293.52,289,290.68,286,286.37,285.79Zm-52.31,17a24.71,24.71,0,0,0,6.68,7.75c3.9,3.21,4.64,6.57,2.42,11-.87,1.74-2.75,4.14-1.35,5.55s3.69-.77,5.45-1.52c6.13-2.61,6.05-2.66,11,1.91,2.25,2.07,4.23,4.56,8,6.25-1.33-3.73-2.22-6.77-3.5-9.63-1.36-3-.75-4.71,2.5-5.73,2.21-.68,6.05-.9,6-2.87s-3.93-2.23-6.17-2.65c-5.69-1.08-8.47-4.47-9.69-9.87-.47-2.08-.88-4.45-3-6.44-1.09,2.91-2,5.39-3,7.87-.75,2-1.93,2.74-4.16,1.92C242,305.11,238.51,304.19,234.06,302.81Zm91.36-44.14c2.14,2,3.52,3.71,5.28,4.82,4.72,3,6.41,6.59,3.35,11.72-.49.82-1.12,2-.08,2.79.79.59,1.82-.09,2.48-.55,5.54-3.8,10.61-2.88,15.63,1.11,1.2,1,2.59,2.33,4.91,1.59a54,54,0,0,0-3.07-6c-1.94-2.88-.9-4.56,1.73-6.15s5.37-2.78,7.73-5.94c-3.64,0-6.64,0-9.64,0-3.64.06-6-1.36-7-5.07a20.9,20.9,0,0,0-3.23-7.55c-1.9,2.34-2.33,5-3.06,7.51-.82,2.79-2.27,3.47-5.06,3.19C332.32,259.83,329.52,258.23,325.42,258.67Zm37.26-23.6a15.91,15.91,0,0,0,5.9-4.52c3.37-3.88,7.1-4.88,11.78-2.64,1.29.62,3.06,1.71,4.23.3,1-1.19-.26-2.73-.93-3.86-2.49-4.16-1.42-7.19,2.16-10.23,2.17-1.84,4.72-3.72,5.76-7-3.26,0-5.51,1.88-8.15,2.63-4.39,1.23-4.8,1.15-6.21-3.28-.61-1.91-.63-4.14-2.66-5.82-1.26,3.45-2.54,6.49-3.46,9.63a6.17,6.17,0,0,1-5,4.63c-2.9.74-6,.64-9.22,2.3a21.22,21.22,0,0,0,6.67,4.09c2.48,1.1,2.77,2.57,1.93,4.87C364.5,228.86,363,231.42,362.68,235.07ZM263,158.59c1.26,2.79,3.18,3.92,4.8,5.16,4.6,3.52,7.12,7.34,3.69,13.17-1.27,2.16-.12,3.85,2.27,2.46,6.54-3.81,10.69-.52,14.55,4.27a15.22,15.22,0,0,1,1.24,1.44c.45.73,1.06.64,1.66.45,1.16-.36,0-1,.1-1.48.3-2-.57-3.74-1.25-5.52-1.11-2.87-.61-4.93,2.69-5.83a32.69,32.69,0,0,0,4.27-1.65c.76-.32,2-.37,1.87-1.54s-1.4-1-2.16-1.22a38.86,38.86,0,0,0-6.22-1.83c-3.43-.61-5.27-2.53-6.22-5.84-.86-3-1.55-6.1-3.53-8.95-2,2.16-2.27,4.82-3,7.16-.92,3-2.48,3.43-5.16,2.53C269.61,160.38,266.59,159.63,263,158.59Zm90.83,30.59c.38-2.85-1.27-5-2.15-7.25-1.08-2.82-.72-4.9,1.95-6.52a52.79,52.79,0,0,0,4.37-3.07c.66-.5,1.82-.91,1.39-2s-1.57-.64-2.41-.64c-1.78,0-3.56.14-5.34.27-3.13.24-4.88-1-5.79-4.19-.7-2.47-.76-5.32-3.26-7.86-.88,3.33-1.75,6.21-2.39,9.14-.6,2.72-1.86,4.07-4.88,4.27-2.6.17-5.27-.71-8.07.33,1.36,2.57,3.58,4,5.66,5.23,3.36,2,3.64,4.5,2.58,7.75-.64,2-1.65,3.88-1.06,6.39a25.24,25.24,0,0,0,6.34-4.67c2-1.82,3.8-2.06,6.16-.61C349,187.07,351,188.78,353.78,189.18Zm53.42-40.1c-1,11.4-7.78,15.95-17.63,16.8a4,4,0,0,0,2.34,2.13c6.78,2.92,6.74,2.92,4,9.93-.37.94-1.44,2.25-.56,3,1.2,1,1.88-.61,2.73-1.27,4.65-3.59,8.47-9.34,15.82-6.07.93.41,2.4.95,3.13-.27s-.42-2.13-.82-3.18c-.61-1.61-2.4-3.21-1.25-4.94,2.27-3.43,5.9-5.63,7.4-8.15-2.53-.43-6,.8-9.54,1.62-1.2.27-1.62-.83-2.07-1.83C409.79,154.76,409.74,152.35,407.2,149.08Z"/><path class="cls-2" d="M294.18,220.28c-5,1.46-9.93,2.91-14.88,4.39-29.09,8.71-57.29,19.52-83.22,35.57-26.33,16.31-51.36,34.35-73.27,56.42A6.78,6.78,0,0,0,121,324.3c.87,2.54,1.86,5,2.8,7.54s0,3.44-2.48,3c-2.76-.5-5.56-.9-8.26-1.64s-4.32.23-6.13,2c-4.12,4-8.43,7.73-12.59,11.51-.13-2.81,1.66-5.81,2.29-9,1.32-6.87,3.63-7.41-5.9-8.67-1.25-.17-2.89-.21-3.28-1.54-.44-1.53,1.32-2,2.28-2.66,16.57-11.53,12.27-6.19,18.09-25.09a8.8,8.8,0,0,1,.84-2.52c.67-.94,1.2-1.91,2.21.22a53.78,53.78,0,0,1,3.29,8.05c1,3.38,2.84,3.25,5,1.63,3.5-2.56,6.82-5.37,10.25-8,43.18-33.67,89.9-60.67,143.06-75.42a158.62,158.62,0,0,1,19.36-4.55,11,11,0,0,1,2.13.11Z"/><path class="cls-2" d="M211.28,307.74c-2.83,3.1-5.84,4.49-8.58,6.16-3.56,2.17-4.81,5-3.67,9,.73,2.56,1.16,5.22,1.65,7.85.1.58.12,1.45-.22,1.77-.69.64-1.45,0-2-.46-2.11-1.65-4.24-3.29-6.23-5.08-2.39-2.16-4.56-2.25-7.08-.11-3.17,2.69-6.56,5.13-10.7,8.33.42-4.53,2.26-7.44,3.43-10.51,2.48-6.56,2.5-6.44-3.3-10.38-1.89-1.28-5.64-1.78-5.1-4.26.44-2,4.21-1.42,6.28-1.3,7.56.44,11.08-3.47,12.9-10.18.43-1.58.53-4.57,2.77-4.35,1.78.17,1.21,3,1.89,4.63a6.93,6.93,0,0,1,.32,1.1c1.91,7.22,1.91,7.18,9.45,7.26C205.55,307.24,208,307.53,211.28,307.74Z"/><path class="cls-2" d="M162.56,249.12c-3.24,2.09-6.39,2.65-9.3,3.76-5.48,2.09-5.69,2.5-5.86,8.33-.06,2.21,1.29,5.45-.76,6.41s-3.74-2.16-5.19-3.68c-3.48-3.63-6.89-4.15-11.26-1.72-3.37,1.88-7.06,3.19-11.53,5.15,2-4.28,4.66-6.68,6.8-9.44,2.74-3.52,2.68-4.11-1.18-6.36-2.49-1.46-5-2.81-8.35-4.64a32.58,32.58,0,0,1,12-1.18c5.87.46,9.28-2.22,12.18-6.73,1.18-1.83,2.23-5.33,4.31-4.72s1.51,4.17,1.63,6.46c.2,4,2,5.91,6.06,6.26A33.14,33.14,0,0,1,162.56,249.12Z"/><path class="cls-2" d="M191.62,195.08a37.41,37.41,0,0,1-8.59,6.18c-2.8,1.67-3.37,3.39-1.67,6.22a25.31,25.31,0,0,1,3.64,7.88c-2.91-.24-5.05-1.73-7-3.07-5.38-3.7-10.23-3.48-15.34.59-2.17,1.73-4.51,3.65-8.18,4.14,1.24-3.15,2.11-5.92,3.38-8.48,1.51-3.06.39-4.55-2.54-5.31L143,200.08a33.65,33.65,0,0,1,12-2.86c5.43-.27,9-2.25,10-7.88a15.24,15.24,0,0,1,1.09-3.26c.82-1.93,1.9-1.91,3-.23a33.5,33.5,0,0,1,2.94,4.94c1.76,4.18,4.87,5.05,9,4.46C184.36,194.79,187.77,194.15,191.62,195.08Z"/><path class="cls-2" d="M195.16,162.75c4.49-1.35,8.52-.41,12.51.15,3.48.49,5-.68,5.58-3.92.23-1.38.71-2.71,1-4.08.24-1,.12-2.4,1.21-2.6,1.37-.26,1.74,1.29,2.3,2.22a48.75,48.75,0,0,1,2.91,5.36c1.72,3.87,4.67,5.77,8.79,6.45,3.56.58,7.2,1.15,10.76,3.14-2.42,2.08-5.14,2.34-7.59,3.14-3,1-3.79,2.58-2.29,5.46s2.9,6.12,4.78,10.15a24.37,24.37,0,0,1-7.88-5.38c-4.8-4.35-9.56-5.27-15.08-1.41-1.24.87-3.06,2.57-4.43,1.46-1.59-1.28.13-3.25.44-4.91a21,21,0,0,1,.74-3c.91-2.64,0-4.41-2.37-5.71C202.75,167.17,199,164.94,195.16,162.75Z"/><path class="cls-2" d="M286.37,285.79c4.31.22,7.15,3.16,10.88,3.9,3.08.61,4.35.11,5.29-2.85.65-2,.36-5.51,2.79-5.62,1.59-.07,2.28,3.4,2.77,5.42,1.66,6.91,6.1,10.21,13,10.86a56.37,56.37,0,0,1,6.25,1.31c-2.22,2.5-4.89,2.71-7.11,3.74-4.26,2-4.41,2.15-2.28,6.48,1.27,2.59,2.57,5.17,4.22,8.47a16.56,16.56,0,0,1-8.38-5.25c-4.35-4.8-9.05-5.53-14.65-2.76-1,.49-2.18,1.29-3.16.31s-.36-2.33.15-3.24c3.33-5.95,1.15-10.23-3.69-14.11A21.41,21.41,0,0,1,286.37,285.79Z"/><path class="cls-2" d="M234.06,302.81c4.45,1.38,7.9,2.3,11.23,3.53,2.23.82,3.41.1,4.16-1.92.93-2.48,1.87-5,3-7.87,2.08,2,2.49,4.36,3,6.44,1.22,5.4,4,8.79,9.69,9.87,2.24.42,6.11.7,6.17,2.65s-3.78,2.19-6,2.87c-3.25,1-3.86,2.7-2.5,5.73,1.28,2.86,2.17,5.9,3.5,9.63-3.75-1.69-5.73-4.18-8-6.25-4.95-4.57-4.87-4.52-11-1.91-1.76.75-3.91,3.06-5.45,1.52s.48-3.81,1.35-5.55c2.22-4.42,1.48-7.78-2.42-11A24.71,24.71,0,0,1,234.06,302.81Z"/><path class="cls-2" d="M325.42,258.67c4.1-.44,6.9,1.16,9.94,1.48,2.79.28,4.24-.4,5.06-3.19.73-2.47,1.16-5.17,3.06-7.51a20.9,20.9,0,0,1,3.23,7.55c1.05,3.71,3.39,5.13,7,5.07,3-.05,6,0,9.64,0-2.36,3.16-5.19,4.4-7.73,5.94s-3.67,3.27-1.73,6.15a54,54,0,0,1,3.07,6c-2.32.74-3.71-.63-4.91-1.59-5-4-10.09-4.91-15.63-1.11-.66.46-1.69,1.14-2.48.55-1-.79-.41-2,.08-2.79,3.06-5.13,1.37-8.75-3.35-11.72C328.94,262.38,327.56,260.65,325.42,258.67Z"/><path class="cls-2" d="M362.68,235.07c.34-3.65,1.82-6.21,2.82-8.92.84-2.3.55-3.77-1.93-4.87a21.22,21.22,0,0,1-6.67-4.09c3.19-1.66,6.32-1.56,9.22-2.3a6.17,6.17,0,0,0,5-4.63c.92-3.14,2.2-6.18,3.46-9.63,2,1.68,2.05,3.91,2.66,5.82,1.41,4.43,1.82,4.51,6.21,3.28,2.64-.75,4.89-2.68,8.15-2.63-1,3.3-3.59,5.18-5.76,7-3.58,3-4.65,6.07-2.16,10.23.67,1.13,1.92,2.67.93,3.86-1.17,1.41-2.94.32-4.23-.3-4.68-2.24-8.41-1.24-11.78,2.64A15.91,15.91,0,0,1,362.68,235.07Z"/><path class="cls-2" d="M263,158.59c3.64,1,6.66,1.79,9.6,2.78,2.68.9,4.24.46,5.16-2.53.73-2.34,1-5,3-7.16,2,2.85,2.67,6,3.53,8.95.95,3.31,2.79,5.23,6.22,5.84a38.86,38.86,0,0,1,6.22,1.83c.76.27,2,.08,2.16,1.22s-1.11,1.22-1.87,1.54a32.69,32.69,0,0,1-4.27,1.65c-3.3.9-3.8,3-2.69,5.83.68,1.78,1.55,3.53,1.25,5.52-.08.5,1.06,1.12-.1,1.48-.6.19-1.21.28-1.66-.45a15.22,15.22,0,0,0-1.24-1.44c-3.86-4.79-8-8.08-14.55-4.27-2.39,1.39-3.54-.3-2.27-2.46,3.43-5.83.91-9.65-3.69-13.17C266.13,162.51,264.21,161.38,263,158.59Z"/><path class="cls-2" d="M353.78,189.18c-2.82-.4-4.79-2.11-6.9-3.4-2.36-1.45-4.17-1.21-6.16.61a25.24,25.24,0,0,1-6.34,4.67c-.59-2.51.42-4.44,1.06-6.39,1.06-3.25.78-5.77-2.58-7.75-2.08-1.23-4.3-2.66-5.66-5.23,2.8-1,5.47-.16,8.07-.33,3-.2,4.28-1.55,4.88-4.27.64-2.93,1.51-5.81,2.39-9.14,2.5,2.54,2.56,5.39,3.26,7.86.91,3.17,2.66,4.43,5.79,4.19,1.78-.13,3.56-.25,5.34-.27.84,0,2-.36,2.41.64s-.73,1.47-1.39,2a52.79,52.79,0,0,1-4.37,3.07c-2.67,1.62-3,3.7-1.95,6.52C352.51,184.21,354.16,186.33,353.78,189.18Z"/><path class="cls-2" d="M407.2,149.08c2.54,3.27,2.59,5.68,3.51,7.76.45,1,.87,2.1,2.07,1.83,3.55-.82,7-2,9.54-1.62-1.5,2.52-5.13,4.72-7.4,8.15-1.15,1.73.64,3.33,1.25,4.94.4,1.05,1.48,2.09.82,3.18s-2.2.68-3.13.27c-7.35-3.27-11.17,2.48-15.82,6.07-.85.66-1.53,2.29-2.73,1.27-.88-.74.19-2.05.56-3,2.78-7,2.82-7-4-9.93a4,4,0,0,1-2.34-2.13C399.42,165,406.23,160.48,407.2,149.08Z"/><rect class="cls-3" width="500" height="500"/></g></g></svg>