<svg xmlns="http://www.w3.org/2000/svg" xmlns:xlink="http://www.w3.org/1999/xlink" viewBox="0 0 500 500"><defs><style>.cls-1{fill:none;}.cls-2{clip-path:url(#clip-path);}.cls-3{fill:#ef3d3e;}.cls-4{fill:#ffe31f;}.cls-5{fill:#ef3d3c;}.cls-6{fill:#ffeb18;}.cls-7{fill:#ffe41e;}</style><clipPath id="clip-path"><rect class="cls-1" x="5" y="5" width="490" height="490"/></clipPath></defs><g id="Calque_2" data-name="Calque 2"><g id="Calque_1-2" data-name="Calque 1"><rect class="cls-1" width="500" height="500"/><g id="surface1"><g class="cls-2"><path class="cls-3" d="M232.5,33.72l17-28.7,17.08,28.63L287.82,7.94l12.38,31,25-22.06,7.41,32.51,28.15-17.86L363,64.75l30.6-13.26-3,33.21,32.3-8.31-8.16,32.34,33.19-3.16-13.12,30.66,33.28,2.09-17.76,28.21,32.55,7.28-22,25.08,31,12.28-25.62,21.35L495,249.47l-28.65,17.1,25.71,21.25L461.11,300.2l22.05,25-32.51,7.42,17.88,28.15L435.25,363l13.26,30.6-33.21-3,8.29,32.3-32.32-8.18,3.16,33.21-30.66-13.12-2.09,33.28-28.21-17.76-7.26,32.55-25.1-22-12.28,31L267.5,466.3l-17,28.7-17.1-28.63-21.25,25.71-12.38-31-25,22.07-7.4-32.53-28.15,17.9L137,435.27l-30.6,13.26,3-33.21-32.3,8.31,8.18-32.34-33.21,3.16,13.12-30.66L31.93,361.7l17.76-28.22-32.53-7.25,21.94-25.1-31-12.28L33.7,267.5,5,250.53l28.63-17.08L7.92,212.2l31-12.39-22.07-25,32.53-7.41L31.47,139.26,64.73,137l-13.24-30.6,33.21,3-8.31-32.3,32.32,8.16-3.14-33.19,30.64,13.12L138.3,32l28.22,17.76,7.27-32.55,25.1,22,12.26-31"/></g><path class="cls-4" d="M462.13,253C462.13,370.63,367.16,466,250,466S37.91,370.63,37.91,253,132.86,39.9,250,39.9,462.13,135.3,462.13,253"/><path class="cls-5" d="M399,253c0,81.71-65.93,148-147.27,148S104.45,334.68,104.45,253,170.38,105,251.72,105,399,171.27,399,253"/><path class="cls-6" d="M160.9,243.72V231.84a278.72,278.72,0,0,1,66,12.86s30-21.59,115.9-20.54v8.38s-78.92,2.1-103.35,17.81l18.5,5.59s17.11-15.72,86.93-12.22v10.12s-62.49-4.9-74,6.28l13.26,6.29s31.79-7.68,58.67.34l-1.05,9.43s-25.49-5.94-41.2-1.75c0,0,28.63,14.31,32.82,18.5l-6.29,10.48s-40.86-27.27-75.76-39.64-90.43-20-90.43-20"/><path class="cls-6" d="M162.31,267.1l-1.41-10.82s89.38,5.58,151.87,62.5l-7.68,8s-60-51.66-142.78-59.7"/><path class="cls-6" d="M170.69,293.29l-4.89-12.57s74.71,5.94,110.68,56.56l-12.59,4.53s-26.88-40.48-93.2-48.52"/><path class="cls-6" d="M179.4,306.55s31.79,4.55,51,30.73c0,0-29.68-2.1-51-30.73"/><path class="cls-7" d="M255.16,124.61h14.19l-11.44,9.07,4.45,14.39L251,139.21l-11.39,8.86,4.48-14.39-11.54-9.07h14.16l4.29-14"/><path class="cls-7" d="M314.91,141h14.21l-11.45,9.08,4.44,14.38-11.39-8.86-11.37,8.86,4.47-14.38L292.31,141h14.13l4.28-14"/><path class="cls-7" d="M360.63,183.93h14.21L363.4,193l4.45,14.39-11.39-8.88-11.39,8.88L349.55,193,338,183.93h14.16l4.29-14"/><path class="cls-7" d="M379.05,250.13h14.2l-11.44,9.08,4.44,14.38-11.39-8.86-11.39,8.86L368,259.21l-11.53-9.08h14.15l4.28-14"/><path class="cls-7" d="M357.82,307.55H372l-11.43,9.07L365,331l-11.39-8.86L342.25,331l4.48-14.39-11.53-9.07h14.15l4.28-14"/><path class="cls-7" d="M317.75,350.45h14.18l-11.42,9.08,4.42,14.38L313.56,365l-11.39,8.87,4.49-14.38-11.54-9.08h14.14l4.3-14"/><path class="cls-7" d="M255.16,371.9h14.19L257.91,381l4.45,14.39L251,386.5l-11.39,8.86L244.06,381l-11.54-9.07h14.16l4.29-14"/><path class="cls-7" d="M191.29,350.45H205.5l-11.44,9.08,4.43,14.38L187.1,365l-11.39,8.87,4.49-14.38-11.53-9.08h14.16l4.27-14"/><path class="cls-7" d="M151.22,307.55h14.19L154,316.62,158.42,331,147,322.15,135.64,331l4.49-14.39-11.53-9.07h14.14l4.29-14"/><path class="cls-7" d="M132.81,250.13H147l-11.43,9.08L140,273.59l-11.39-8.86-11.39,8.86,4.49-14.38-11.53-9.08h14.15l4.28-14"/><path class="cls-7" d="M151.22,183.93h14.19L154,193l4.44,14.39L147,198.51l-11.39,8.88L140.13,193l-11.53-9.07h14.14l4.29-14"/><path class="cls-7" d="M194.54,141h14.19l-11.45,9.08,4.44,14.38-11.37-8.86L179,164.48l4.49-14.38L171.92,141h14.13l4.3-14"/><path class="cls-3" d="M107.92,373.86a5.69,5.69,0,1,1,8,.61,5.77,5.77,0,0,1-8-.61"/><path class="cls-3" d="M97.07,342l-6.37,8.59,10.45-1.8Zm1.87-15.56,6.76,11.28-.88.54c-1.46-2-1.87-2.66-3-2-.94.55-2.85,3.23-3.67,4.38l4.71,7.85c3.08-.52,4.84-.82,5.4-1.14,1.33-.8.44-2.55-.22-3.78l.88-.52,4.24,7.08-.86.53c-1.42-1.73-2.9-1.49-6.15-1l-23.76,3.69-.57-1,13.69-18.75c2.71-3.71,3.6-5,2.66-6.58l-.07-.12"/><path class="cls-3" d="M82.08,321.13l-.18-.41c-1.71-4.26-3.51-5.38-8-3.58-4.31,1.75-5.21,3.67-4,6.75.52,1.31,1.2,1.59,2,1.31Zm15.54,4.57c-1.05-1.73-1.12-1.81-1.41-2-.53-.32-1.23-.65-3.35.19L76.18,330.6c-3.18,1.26-2.82,2.47-2.21,4.56l-1,.37-4.86-12.15c-1.22-3-3.39-10.13,3-12.68a6.9,6.9,0,0,1,7.1,1.16c2.31,1.86,3.13,3.78,5.17,8.75l7-2.81c3.06-1.23,2.85-2,2.14-4.73l.94-.37,5.07,12.62"/><path class="cls-3" d="M73.93,296.43l-.09-.43c-1.09-4.48-2.71-5.85-7.45-4.71-4.51,1.09-5.67,2.87-4.88,6.12.32,1.35,1,1.74,1.83,1.57Zm14.72,6.75c-.78-1.85-.83-1.92-1.1-2.16-.46-.37-1.12-.82-3.33-.28l-17.49,4.19c-3.32.8-3.14,2.05-2.84,4.21l-1,.23-3.06-12.75c-.75-3.15-1.89-10.5,4.79-12.08a6.82,6.82,0,0,1,6.83,2.15c2,2.2,2.57,4.19,3.85,9.42l7.36-1.77c3.19-.78,3.1-1.55,2.8-4.35l1-.25L89.63,303"/><path class="cls-3" d="M56.6,282l-2-23.39,8.14-.7.09,1c-5.67,1.43-6.43,4.38-6,9.86.18,2.22.41,2.94,2.16,2.8l9.39-.81,0-.21c-.32-3.76-1.58-5.65-6.57-5.85l-.09-1.05,13.69-1.18.09,1.07c-5,.91-6.06,3.09-5.71,7.1l9.81-.84c1.78-.14,2.19-1,2-3.6-.32-4-1.73-8-8.08-10l-.09-1.14L82,256l2,23.69-1,.11c-.45-2.3-.66-3.55-3.18-3.33L60.19,278.1c-2.68.23-2.61,1.93-2.57,3.82"/><path class="cls-3" d="M83.48,229.9l-1.65,23.44-1-.05c-.12-2.3-.16-3.53-2.64-3.71l-19.62-1.39c-2.68-.2-2.89,1.46-3.14,3.28l-1-.07,1-14.15,1,.07c-.09,2.85-.15,4.1,3.44,4.36L79,243c1.94.14,2.34-.73,2.53-3.44.43-6.13-2.78-8.65-7.22-10.84l.07-1.18"/><path class="cls-3" d="M89.06,204.25l-5.33,22.91-1-.23c.23-2.29.39-3.5-2-4.07L61.54,218.4c-2.62-.6-3.08,1-3.62,2.75l-1-.21,3.21-13.84,1,.22c-.54,2.81-.78,4,2.71,4.85l18.7,4.36c1.91.45,2.44-.35,3-3,1.39-6-1.38-9-5.44-11.84l.27-1.15"/><path class="cls-3" d="M86.44,184.27H75.75l7.65,7.33Zm13.62-7.77L95,188.65l-.93-.37c.79-2.41,1-3.1-.21-3.62-1-.43-4.3-.37-5.72-.36l-3.51,8.45c2.28,2.18,3.56,3.43,4.17,3.68,1.42.58,2.28-1.16,2.88-2.41l.95.39L89.46,202l-.95-.39c.55-2.14-.5-3.19-2.85-5.49l-17.11-16.9.43-1.05L92.2,178c4.6,0,6.17-.09,6.86-1.76l.08-.16"/><path class="cls-3" d="M109.22,161.47,101.81,174l-.87-.52c1.3-2.67,1.72-3.55-1.2-5.29L81.29,157.19c-1.3,2.53-3.26,6.24,1.91,10.27l-.59,1-7-4.28,12.44-21,7.08,4.1-.61,1c-6-2.61-8.32.89-9.89,3.2l18.43,10.95c3,1.76,3.55,1,5.26-1.52"/><path class="cls-3" d="M121.56,144.93l-8.72,11.25-.82-.63c1.2-1.85,2-3.21.06-4.76L96.52,138.71c-2.13-1.64-3.37-.18-4.6,1.21l-.82-.61,8.75-11.26.8.64c-1.1,1.55-2.28,3.12-.09,4.81l15.55,12.09c2,1.58,3.15.39,4.67-1.29"/><path class="cls-3" d="M117.73,128.76c2.47,2.53,9.32,9.2,14.29,4.33s-1.53-11.87-4-14.4c-4.15-4.24-10.23-8.31-14.3-4.33s-.16,10.14,4,14.4m15.45-15.1c6,6.12,5.74,14.57-.21,20.38s-14.42,5.84-20.39-.25c-6.19-6.35-5.41-14.9.21-20.39s14.19-6.06,20.39.26"/><path class="cls-3" d="M143,121.93c1.87-1.6,2.65-2.47,1.14-4.68l-10.86-15.94c-3.46-1-4.06-.77-4.49-.48l-.57-.84,7.08-4.83,21.44,6.42.05,0-6.93-10.19c-1.36-2-2.51-2.86-5.38-1.2l-.58-.84,7.24-4.92.57.84c-2.23,1.94-1.89,2.87-.8,4.48l13.48,19.8-.95.62-27.34-8-.07,0,9.14,13.44c1.66,2.42,2.8,2.58,5.45,1.16l.58.83-7.62,5.19"/><path class="cls-3" d="M183.77,95.11c.59,1.51,1.19,2.06,3,1.37,4.24-1.64,6.65-5.35,3.16-14.42-1.32-3.46-5.32-11.2-11.82-8.68-2.14.8-2.09,1.62-1.8,2.37l.12.32Zm-8.29,6.15c2.39-.91,2.73-2.3,2.19-3.71l-7.2-18.72c-.89-2.31-2.58-1.74-4.13-1.32l-.36-1,11.57-4.44c10.62-4.08,16.61,1.2,18.88,7,2.67,7,.85,14.48-8.6,18.45l-12,4.6"/><path class="cls-3" d="M201.9,76.78c.93-1,3.56-4.06,3-6.27a.81.81,0,0,0-1-.68,8.34,8.34,0,0,1-.85.3,2.93,2.93,0,0,1-3.69-2.4,3.15,3.15,0,0,1,2.44-4c2.89-.71,4.63,1.44,5.15,3.49,1.21,5-2.6,8.65-4.4,10.36"/><path class="cls-3" d="M221.61,74.32c.4,3.51,1.7,13,8.61,12.23s6.1-10.3,5.71-13.81c-.64-5.9-2.94-12.86-8.59-12.23s-6.37,7.91-5.73,13.81m21.48-2.39c.95,8.51-4.44,15-12.72,16s-15-4.28-15.9-12.78c-1-8.81,4.92-15.07,12.72-15.94s14.92,4,15.9,12.76"/><path class="cls-3" d="M257.16,72.22c5.31.3,7.48-.46,7.82-5.74.25-4.1-1.28-6-4.53-6.15-2.24-.16-2.35.28-2.63,1.53Zm16.91,15.15-8.32-.53-7.59-13.25-1.09-.07-.52,8c-.21,3.24.68,3.42,3.33,4l-.05,1-13.72-.89,0-1c2.78-.14,3.6-.21,3.81-3.49l1.16-18c.22-3.49-1-3.65-3.33-4l.07-1,13.07.86c2.85.17,11.42,1.05,11,7.87-.33,5-4.59,6-6.82,6.53l7.41,12.1a1.88,1.88,0,0,0,1.62.89"/><path class="cls-3" d="M288.33,90.69l-14-2.78.19-1c2.2.23,3.8.39,4.28-2.09l3.85-19.3c.52-2.64-1.33-3.1-3.15-3.59l.19-1,14,2.78-.22,1c-1.87-.28-3.79-.64-4.34,2.09l-3.85,19.31c-.5,2.54,1.06,3,3.24,3.58"/><path class="cls-3" d="M321,90.12c-2.47-.56-3.45-.77-4.54,2.38l-1.69,4.89c-2.3.66-7.86-.07-11.2-1.23C294,92.83,292,84.52,294.34,77.83c2.64-7.55,10.11-12,18.4-9.07,3.45,1.21,5.77,4.12,6.77,4.46s1.66-.32,2.39-1.14l1,.35-3.12,9-1-.32c-.18-3.82-1.83-9.43-6.22-11-5.58-1.92-9.14,3.39-11.42,10-1,2.72-4.05,12.38,3.2,14.9,3.39,1.19,4.42.25,5-1.41l1.39-4c.85-2.44-.34-3-2.95-4l.34-1,13.18,4.58"/><path class="cls-3" d="M330.86,107.57l-12.67-6.49.45-.91c2.05.82,3.54,1.41,4.7-.84l9-17.54c1.23-2.39-.43-3.33-2-4.29l.46-.91,12.68,6.48-.47.91c-1.74-.8-3.51-1.65-4.76.82l-9,17.53c-1.2,2.31.19,3.17,2.12,4.33"/><path class="cls-3" d="M332.27,106.71c2.18,1.14,3.26,1.57,4.8-.64L348,90.2c-.27-3.61-.73-4.08-1.18-4.38l.57-.84,7.08,4.89,1.73,22.31.07.06,7-10.15c1.39-2,1.76-3.38-.82-5.47l.58-.84,7.19,5-.57.82c-2.62-1.36-3.35-.74-4.46.89l-13.65,19.69-.93-.64-2.33-28.45-.08,0L339,106.44c-1.68,2.41-1.4,3.53.89,5.51l-.57.84-7.6-5.24"/><path class="cls-3" d="M374.07,104,391,120.31l-5.66,5.87-.74-.7c3.34-4.81,2-7.56-2-11.35-1.59-1.55-2.25-1.95-3.46-.7l-6.54,6.79.14.15c2.71,2.62,4.92,3.22,8.81.07l.74.73-9.53,9.89-.77-.73c3.17-4,2.55-6.31-.35-9.11l-6.83,7.08c-1.25,1.3-1,2.17.87,4,2.85,2.78,6.58,4.9,12.69,2.26l.82.79-7.06,4.95L355,123.79l.72-.73c1.83,1.42,2.83,2.23,4.58.41L374,109.3c1.85-1.93.69-3.18-.57-4.55"/><path class="cls-3" d="M397.17,150.38l.25.36c2.57,3.81,4.57,4.53,8.61,1.8,3.84-2.58,4.32-4.67,2.45-7.43-.77-1.14-1.52-1.29-2.27-.82ZM381,149.21c1.4,1.46,1.47,1.51,1.81,1.64.57.19,1.31.37,3.22-.89l14.89-10.06c2.81-1.92,2.22-3,1.19-4.92l.84-.57,7.32,10.84c1.82,2.69,5.44,9.18-.25,13a6.83,6.83,0,0,1-7.14.38c-2.68-1.34-3.87-3-6.9-7.47l-6.28,4.24c-2.72,1.84-2.35,2.53-1.08,5l-.86.57-7.59-11.24"/><path class="cls-3" d="M411,173.25c2.29,4.82,4,6.37,8.79,4.12,3.73-1.73,4.6-4,3.23-6.93-1-2-1.39-1.91-2.62-1.57Zm-5.18,22.14-3.52-7.56,8-13-.46-1-7.24,3.36c-3,1.4-2.69,2.25-1.89,4.84l-.91.42L393.91,170l.93-.42c1.46,2.37,1.92,3,4.92,1.65l16.29-7.59c3.17-1.48,2.71-2.67,1.87-4.83l.93-.43,5.54,11.87c1.2,2.59,4.55,10.54-1.64,13.43-4.54,2.12-7.45-1.15-9-2.86l-7,12.32a1.89,1.89,0,0,0,0,1.85"/><path class="cls-3" d="M420.67,198.3c-3.42.92-12.57,3.67-10.75,10.37s11.09,4.44,14.51,3.51c5.72-1.55,12.25-4.86,10.75-10.35s-8.79-5.08-14.51-3.53m5.63,20.84c-8.22,2.22-15.51-2.07-17.68-10.11s1.92-15.44,10.16-17.67c8.56-2.31,15.63,2.53,17.7,10.11s-1.62,15.35-10.18,17.67"/><path class="cls-3" d="M415,242.4,413.52,228l1-.11c.55,2.93.73,3.89,4.13,3.53L440,229.17c-.44-2.82-1.09-7-7.65-7.11l-.12-1.18,8.15-.71,2.53,24.28-8.13.92-.13-1.15c6.38-1.5,6.17-5.69,6-8.51l-21.32,2.23c-3.44.36-3.42,1.34-3.32,4.35"/><path class="cls-3" d="M444.93,262.15l.12-2.27,6.08,5.9a2.74,2.74,0,0,1,1,2.18,1.8,1.8,0,0,1-1.89,1.89c-1.14-.05-1.52-.73-2.07-1.73Zm-1.87-12.3-1.23,23.42-8.17-.43.07-1c5.8-.63,7-3.46,7.26-8.95.12-2.23,0-3-1.75-3.07l-9.43-.48v.2c-.19,3.78.79,5.83,5.71,6.7l-.06,1-13.72-.71.05-1.07c5.1-.21,6.44-2.23,6.65-6.24l-9.84-.52c-1.78-.1-2.3.66-2.44,3.3-.22,4,.62,8.16,6.63,11l-.07,1.14-8.36-2.08,1.25-23.75,1,.06c.13,2.33.18,3.58,2.69,3.72l19.67,1c2.67.14,2.85-1.55,3.06-3.4"/><path class="cls-3" d="M418.19,306.25c.29-2.53.39-3.51-2.87-4.26l-5-1.13c-.93-2.21-.82-7.82-.06-11.26,2.25-9.91,10.29-12.78,17.19-11.21,7.8,1.74,13,8.68,11.07,17.25-.81,3.57-3.44,6.19-3.68,7.22s.52,1.61,1.41,2.23l-.23,1.07-9.29-2.1.24-1c3.76-.6,9.16-2.88,10.17-7.41,1.3-5.76-4.38-8.7-11.19-10.25-2.84-.62-12.76-2.62-14.46,4.88-.78,3.5.27,4.39,2,4.78l4.15.95c2.55.57,2.91-.7,3.69-3.39l1,.21-3.08,13.62"/><path class="cls-3" d="M430.49,327.17l.87-2.1,3.76,7.59a2.78,2.78,0,0,1,.24,2.41,1.8,1.8,0,0,1-2.41,1.14c-1.05-.43-1.19-1.19-1.37-2.32ZM432.84,315l-9,21.65-7.52-3.12.38-.94c5.7,1.35,7.73-.93,9.84-6,.85-2.07,1-2.82-.63-3.48l-8.7-3.61-.09.19c-1.44,3.48-1.19,5.74,3.16,8.2l-.41,1-12.69-5.27.41-1c4.86,1.51,6.79.07,8.34-3.66l-9.09-3.78c-1.64-.67-2.39-.16-3.41,2.28-1.53,3.69-2.14,7.92,2.53,12.64l-.42,1.05-7.19-4.76,9.13-22,.94.4c-.67,2.22-1,3.45,1.29,4.42l18.16,7.55c2.5,1,3.21-.51,4-2.21"/><path class="cls-3" d="M420.76,343.06l-12.3,20-7-4.3.53-.87c5.42,2.25,7.79.32,10.66-4.37,1.18-1.89,1.43-2.6-.05-3.51l-8-4.95-.11.17c-2,3.21-2.08,5.49,1.82,8.61l-.55.91L394,347.51l.55-.91c4.58,2.27,6.7,1.15,8.82-2.3L395,339.15c-1.52-.94-2.34-.53-3.71,1.71-2.1,3.39-3.37,7.47.52,12.89l-.61,1-6.34-5.82,12.47-20.25.88.53c-1,2.1-1.57,3.25.57,4.56l16.75,10.33c2.28,1.4,3.25,0,4.33-1.54"/><path class="cls-3" d="M387.16,376.59a5.68,5.68,0,0,1-8.06.44,5.61,5.61,0,0,1-.43-8,5.7,5.7,0,1,1,8.49,7.6"/></g></g></g></svg>