<svg xmlns="http://www.w3.org/2000/svg" viewBox="0 0 500 500"><defs><style>.cls-1{fill:#c7510f;}.cls-2{fill:#fdfaf9;}.cls-3{fill:none;}</style></defs><g id="Calque_2" data-name="Calque 2"><g id="Calque_1-2" data-name="Calque 1"><path class="cls-1" d="M5,220.35c4-4.21,2.72-10,4.19-14.93,2.55-8.62,4.55-17.34,8.53-25.54,3.43-7,7.79-13.16,14.33-17.4,3-2,3.15-3.43,2.18-6.92-2.44-8.75.48-17.23,3.78-25.26,5.11-12.44,12.4-23.68,20.76-34.2A226,226,0,0,1,111.4,47.55C121,41.2,131.21,35.66,142.78,33.4c.69-.14,1.34-.77,2-.78,5.41-.09,11.43,1.39,16.06-.52s6.82-8,11.6-11C186.51,12.19,202.09,8.21,218.29,6c2-.28,4.53.91,5.41-2.13h52.49c4.57,4.3,10.77,2.62,16.09,3.86,16.85,3.91,32.86,8.73,44.4,22.69,1.49,1.8,3,2.92,5.51,2.48,14.95-2.56,28,3.45,39.91,10.87,33.52,20.85,61.06,47.67,78.3,83.83,4.53,9.51,8.38,19.33,4.52,30.18a2.68,2.68,0,0,0,1.31,3.58c15.75,10.1,20.65,26.57,24.1,43.28a211.39,211.39,0,0,1,2.89,71.29c-1.49,11.15-3.29,22.05-6.58,32.78-3.59,11.72-9.12,22.12-19.5,29.21-2.2,1.5-2.77,2.52-1.86,5.14,3.2,9.23-.07,17.92-3.41,26.25-5.14,12.84-12.64,24.41-21.39,35.09-14.8,18.07-31.51,34.17-51.06,47.08-10,6.57-20.42,12.18-32.28,14.87-3.26.74-6.52,1.5-9.64.94-5.94-1.05-10,.56-13.95,5.36-7.65,9.34-18.72,13.42-29.9,16.57-23.62,6.67-47.88,8.21-72.17,6.13-13.54-1.16-27.15-2.87-40.21-7.75-10.39-3.87-19.93-8.49-27.15-17.14-1.58-1.89-2.86-4.13-6.11-3.59-14.11,2.36-26.42-2.94-38-9.9-34.92-21-63.14-48.45-80.85-85.67-4.36-9.16-7.83-18.75-4.07-29.18a2.94,2.94,0,0,0-1-3.82c-17.27-11-21-29.12-25.45-47.15-1-3.84.72-8.83-3.59-11.71Zm481.32,30.14c-.3-12.31.16-24.67-2.38-36.88-1.91-9.17-3.55-18.47-7.37-27-3.23-7.22-6.94-14.48-14.78-18.11-2.6-1.21-6.43-1.62-7.59-3.62-1.66-2.87,2.23-5.51,2.95-8.51a34.81,34.81,0,0,0,.68-6.47c.47-11.43-5-20.93-10.5-30.22-11.65-19.57-27.17-36-44.28-50.73C392.13,59.5,380.55,50.71,367,45.07c-10-4.14-19.86-7.08-30-.55-1.79,1.16-3.46,1.42-3.94-1.2C330.78,30.88,321.19,25.76,311,21.57a117.28,117.28,0,0,0-36.72-8.5c-23.88-1.57-47.94-2.13-71.43,4.08-11.17,3-22.16,6.57-30.62,15.21-3.46,3.53-3.34,9.88-6.35,12-3.86,2.74-8.17-3.9-13.57-3.63a54.87,54.87,0,0,0-22.82,6C104.15,59.75,84,79,66,100.58c-8.15,9.77-15.21,20.28-20.22,32-4,9.24-6.36,18.8-.8,28.12,2.76,4.61.46,6-3,6.73-7.51,1.58-11.74,6.69-15.09,13-6.18,11.6-9.56,23.92-11.28,37-3.58,27.22-3.59,54.33,3,81,3.69,15,8.2,30.51,26.17,35.54,2.61.74,2,2.5.76,4.12-4.28,5.76-4.18,12.46-3,18.86,1.63,8.55,5.76,16.23,10.23,23.69,12.14,20.22,28.42,36.85,46.05,52.08,10.37,8.95,21.64,17,34.54,22.29,10,4.08,20,6.81,30,.05,2.08-1.4,3.19-.57,3.63,1.76,2.24,12,11.86,17.12,21.48,21.13,13.7,5.71,28.45,8.13,43.23,9a334,334,0,0,0,38.23,0,127.72,127.72,0,0,0,43-9.63c7-3,13.66-7,17.74-13.79,1.62-2.71,1.49-7.38,3.63-8.62,2.47-1.44,5.5,2.46,8.55,3.32a27.15,27.15,0,0,0,6.46.66c11.44.36,20.89-5.15,30.16-10.73,20.16-12.12,37-28.22,52.14-46,10.55-12.35,20.17-25.65,24.81-41.64,2-7,2.93-14.12-.88-21.06-2.77-5-2.72-5.52,2.94-7.17,6.39-1.87,10.52-5.92,13.87-11.36a70,70,0,0,0,7.23-16.82A167.24,167.24,0,0,0,486.32,250.49Z"/><path class="cls-2" d="M486.32,250.49a167.24,167.24,0,0,1-6.77,53.61,70,70,0,0,1-7.23,16.82c-3.35,5.44-7.48,9.49-13.87,11.36-5.66,1.65-5.71,2.14-2.94,7.17,3.81,6.94,2.91,14.06.88,21.06-4.64,16-14.26,29.29-24.81,41.64-15.14,17.73-32,33.83-52.14,46-9.27,5.58-18.72,11.09-30.16,10.73a27.15,27.15,0,0,1-6.46-.66c-3.05-.86-6.08-4.76-8.55-3.32-2.14,1.24-2,5.91-3.63,8.62-4.08,6.82-10.71,10.82-17.74,13.79a127.72,127.72,0,0,1-43,9.63,334,334,0,0,1-38.23,0c-14.78-.87-29.53-3.29-43.23-9-9.62-4-19.24-9.13-21.48-21.13-.44-2.33-1.55-3.16-3.63-1.76-10,6.76-20,4-30-.05-12.9-5.28-24.17-13.34-34.54-22.29-17.63-15.23-33.91-31.86-46.05-52.08-4.47-7.46-8.6-15.14-10.23-23.69-1.21-6.4-1.31-13.1,3-18.86,1.2-1.62,1.85-3.38-.76-4.12-18-5-22.48-20.56-26.17-35.54-6.58-26.64-6.57-53.75-3-81,1.72-13.08,5.1-25.4,11.28-37,3.35-6.27,7.58-11.38,15.09-13,3.51-.74,5.81-2.12,3-6.73-5.56-9.32-3.15-18.88.8-28.12,5-11.74,12.07-22.25,20.22-32C84,79,104.15,59.75,129.46,46.7a54.87,54.87,0,0,1,22.82-6c5.4-.27,9.71,6.37,13.57,3.63,3-2.13,2.89-8.48,6.35-12,8.46-8.64,19.45-12.26,30.62-15.21,23.49-6.21,47.55-5.65,71.43-4.08A117.28,117.28,0,0,1,311,21.57c10.22,4.19,19.81,9.31,22.09,21.75.48,2.62,2.15,2.36,3.94,1.2,10.12-6.53,20-3.59,30,.55,13.57,5.64,25.15,14.43,36.07,23.86,17.11,14.76,32.63,31.16,44.28,50.73,5.53,9.29,11,18.79,10.5,30.22a34.81,34.81,0,0,1-.68,6.47c-.72,3-4.61,5.64-2.95,8.51,1.16,2,5,2.41,7.59,3.62,7.84,3.63,11.55,10.89,14.78,18.11,3.82,8.55,5.46,17.85,7.37,27C486.48,225.82,486,238.18,486.32,250.49Zm-314,56.38a10.74,10.74,0,0,0-3.5-5,2.38,2.38,0,0,0-2.82-.26c-1.73,1-.07,1.79.38,2.32,1.32,1.58,2.86,3,4.32,4.44a22.48,22.48,0,0,0,13.31,13c.38.76.81,1.94,1.79,1.08s0-1.6-.77-2.13C182.56,314.11,177.81,310.13,172.31,306.87Zm-42.53,57.7c-1.1,4.17-5,6-7.57,9-2.86,3.3-6.12,6.24-9.13,9.41-1.33,1.41-2,3.16-.56,4.86,1.83,2.17,3.92,1.6,5.65-.09,5.21-5.09,10.41-10.2,15.44-15.48,4.18-4.39,3.56-5.42-4.06-7.43-2.06-7.51-2.24-7.66-8-5.48-4.34,1.65-8.6,3.49-12.93,5.14-.53.2-1.3-.22-1.95-.35a5.19,5.19,0,0,1,.37-1.62c2.72-4.22,5.7-8.28,8.2-12.62,3-5.11,1.94-6.3-5.39-7,.25-1.92,3.61-3.08,1.5-5.55-1.79-2.09-3.76-1.31-5.77-.15-2.48,1.41-5,2.69-7.6,4-1.45.72-2.78,2.9-4.51.94-.33-.37,1-2.27,1.6-3.43,2.39-4.4,4.62-8.9,7.26-13.15,1.56-2.49.31-4-1-5.72a2.91,2.91,0,0,0-3.83-.9q-10.84,5.88-21.56,12a2.92,2.92,0,0,0-1.18,3.75c.82,2.28,2.56,2.22,4.33,1.59,3.7-1.32,6.68-4.25,10.71-4.84l1.09,1.09c-1.41,5.26-4.84,9.53-7,14.38a5.53,5.53,0,0,0,.59,6.12c1.87,2.07,3.83.78,5.78-.13,6.73-3.17,12.72-7.79,19.86-10.15.84,4.09-2.29,6.52-4.08,9.46-2.77,4.58-5.86,9-8.76,13.49-1.32,2.08-.92,4.05.63,5.92a4.86,4.86,0,0,0,5.73,1.72c1.68-.56,3.25-1.57,5-1.91C115.89,369.88,122,364.58,129.78,364.57Zm205.55-21.65c-8.66-.32-12.53,7.53-18.88,11.16-1.54.88-.65,2.52.26,3.72,5,6.62,10,13.29,15.08,19.82.65.83,1.48,2.69,3.35,1.22,5.1-4,10.33-7.82,15.32-11.94,1.2-1,.58-2.72-.55-3.83A2.11,2.11,0,0,0,347,363c-2.94,2.1-6,4.07-8.7,6.43-3.22,2.8-4.08-.29-5.77-1.84-2.13-2-.55-3.12.78-4.21,2.51-2.05,5.17-3.91,7.69-5.93a1.93,1.93,0,0,0,.32-2.84,3.63,3.63,0,0,0-2.77-1.05c-3.39.65-5.26,3.67-7.93,5.49a3.9,3.9,0,0,1-5.89-2c-.77-2.46,1.41-2.74,2.48-4,2.83-3.3,9.23-4,7.89-10.39,5.88,1.56,9.2,6.57,13.6,10.11,6.3,5.06,12.58,4.72,18.06-1.07s5.1-12.59-.68-18.91c-2.67-2.91-8.07-4.14-6.89-9.81,6.92,1.2,12.36,5.61,18.5,8.5,2.26,1.05,3.39-.23,4.49-1.69,1.31-1.75,1.17-3.3-.95-4.38a24.23,24.23,0,0,0-3.83-2c-4.19-1.29-3.74-4-2-6.74,2-3.12,4.43-6.11,8.84-3.27a6.37,6.37,0,0,0,5.2.84,3.12,3.12,0,0,0,2.48-3.15,3.56,3.56,0,0,0-1.49-2.62c-1.2-.71-2.82-.67-4.1-1.29-4.17-2-9.37-1.43-12.39-6.62-1.77-3-8.5-2.66-10.76.19-4.65,5.87-9.56,11.86-8.2,20.26-8,2.31-8.54,3.53-3.54,8.15,4,3.66,8.22,7,12.19,10.67,1.23,1.13,2.4,2.55,1.37,4.74-2.15,4.58-6.38,6.44-10.51,3.69-3.87-2.58-7.27-5.88-10.84-8.91C338.22,334.73,337.66,335,335.33,342.92ZM175.23,87.28c-4.27-.16-7.07-3.28-10.46-5.22a53.81,53.81,0,0,0-6.58-3.66c-2.33-.93-4.16.72-5.71,2.23s.46,2.47,1,3.57q5.15,10.64,10.49,21.17c.62,1.21.61,4.09,3.37,2.1,1.55-1.12,2.77-2.42,1.84-4.5-1.61-3.6-3.32-7.15-4.9-10.76-.36-.82-1.83-1.55-.6-2.64,1-.86,1.92-.24,2.83.35,4.55,2.9,9.34,5.5,13.61,8.77,3,2.27,4.8.1,6.83-.85,3.44-1.61.52-3.62-.23-5.22-3.21-6.83-6.58-13.6-10-20.34-.81-1.61-2-3.4-4.11-2.16-1.66,1-2.09,2.64-1.6,4.7,1,4.23,4.7,7.34,4.78,11.91ZM361.62,375.75c-.69,0-1.48.33-2.06.09-2.17-.87-4.48-1-5.76.92-1.54,2.28,1,3.69,2.18,5.23,2.15,2.77,4.41,5.46,5.67,8.79l-.62.6c-4.14.44-7.74-1.39-11.35-2.92-2.33-1-4.49-2.29-7.15-2.14-3.87.22-5.27,2.94-3.07,6.31,2.36,3.61,4.89,7.11,7.39,10.63,1.87,2.64,3.75,5.28,5.72,7.84,1.47,1.91,3.34,2.85,5.54,1.17,2-1.54.88-3.08-.23-4.58-1.71-2.31-3.44-4.61-5.05-7-.89-1.32-3.15-2.51-1.19-4.48,1.33-1.33,2.58.06,3.85.57,4.31,1.73,8.6,3.53,13,5,2.09.7,4.37.45,5.82-1.65,1.26-1.82.33-3.4-.75-4.9-1.9-2.62-4.24-5-5.62-7.91-1.95-4.09-7.24-6.31-6.56-11.81,4.56,1.78,5.73-6.55,10.17-3.71,3.31,2.1,5.88,5.37,8.77,8.14,1.31,1.25,2.55,2.59,3.91,3.8,1.77,1.58,3.2,4.29,6.2,1.41,2.76-2.66,1.15-4.35-.82-6.23-3.15-3-6.17-6.18-9.41-9.1s-5.9-5.72-.95-9.48c1.12-.85,2.07-2.22.63-3.65s-3.36-1.65-4.84-.21c-4.94,4.83-9.78,9.76-14.58,14.73C358.54,373.2,362,374,361.62,375.75ZM228.19,340.51c0,1-.19,2.16,1.42,1.19l-1.61-1c-7.4-12.15-16.91-22.53-27-32.42-4-3.85-6.31-14.05-2.55-16.56,4.37-2.9,2-3.38.27-5.35a2.92,2.92,0,0,1-.4-3.94c1-1.35,1.82-.17,2.75.11,11.66,3.59,13.53,2.55,16-8.95,2.13-9.8,3.32-10.35,13.22-8.43,10.93,2.11,21.89,4.61,32.94,5.37,13.43.91,27,.24,40.44.13,5.51-.05,5.61-.21,5.66-6.35.08-10.21,0-20.42.05-30.62,0-2.1-1-5.16,1.1-6.06,5-2.09,1.76-3.71-.06-5-4.29-3-9.6-5-13-8.8-5.51-6.05-11.93-7-19.39-6.84-14.21.3-28.43.18-42.64.15-6.54,0-6.84-.1-7-6.07-.17-4.93-2-9.13-4.34-13.22-7.14-12.27-22.12-18.77-35.48-15.4-13.56,3.41-23.78,17-24,31.31-.23,12,5.49,20.71,14.82,27.43,1.24.9,2.85,1.91.87,2.56-6,2-3.57,7-4.62,10.76l.17-.17c-1.24.74-2.44,1.57-3.73,2.21-12.66,6.25-14,17-2.94,25.92,1.83,1.49,2.63,3.24,3.82,4.91,2.63,3.66,5.5,6.74,10.54,6.52,4.38-.2,6.31,3.21,8.24,6.19,2.5,3.88.41,6.62-4.93,6.63-.8,0-1.43-.21-1.83.64-.57,1.22.39,1.86,1,2.6,9.33,10.58,18.28,21.45,25.64,33.52C215.44,339.9,221.06,341.88,228.19,340.51Zm82.59-152.42h.3a50.92,50.92,0,0,0,.07,7.62c.64,4.25,3.29,7.07,7.28,8.68,4.46,1.8,8.07-.53,10.74-3.25,3.31-3.38,5.59-8,3.16-12.82-1.44-2.84.32-3.73,1.67-3,8.39,4.47,15.14,2.11,21.3-4.19a8.39,8.39,0,0,1,2.86-1.5c3.23-1.32,5.47-3.26,5.69-7.12.25-4.37-3.14-5.59-5.94-6.78-8.38-3.55-16.87-6.23-26.21-2.91-3,1.08-8.27,3.66-7.26-4.19.23-1.8-2.78-2.34-4.2-.78-4.57,5-4.71,1.7-4.39-2.25.91-11.44-4.48-20.38-11.84-28.13-5.11-5.38-11.19-3.38-12.48,3.93-.57,3.23-.89,6.6-2.43,9.34-2.83,5-1.14,8.92,2,12.74,1.39,1.67,2.9,3.24,4.36,4.85a56.89,56.89,0,0,0-6.07,1.88,23.27,23.27,0,0,0-5.59,3.15c-3.61,3-4.91,9.61-3,14,1.46,3.31,6.51,6,11,5.64a16.42,16.42,0,0,0,4.13-1.11c1.69-.63,3.33-1.38,5-2.16,4.85-2.33,2.8,1.88,3.71,3.64,2.34,4.58,4.15-3.19,6.06-.52C311.49,184,310.78,186.29,310.78,188.09ZM222.63,401.83c4.48.4,6.47.25,7-1.87.65-2.66-2.08-2.29-3.43-3.14-2.59-1.65-5.57-1.39-8.43-1.73-3.75-.46-3.35-3.06-3-5.69.45-3.2,2.84-3.11,4.87-2.41,2.75,1,5.43,2,8.4,1.84a2.37,2.37,0,0,0,2.17-1.93,2,2,0,0,0-1.5-2.48,47.57,47.57,0,0,0-8.33-2.2c-2.83-.4-3.68-1.75-3.23-4.35.42-2.41,2.15-2.61,4-2.27,3.53.66,7,1.56,10.56,2.14a2.33,2.33,0,0,0,2.85-2.42,3.39,3.39,0,0,0-1.8-3.59,6.44,6.44,0,0,0-2.14-.33c-15.59-2-29.84-7.84-43.49-15.29-2.84-1.56-4.68-2.47-6.83,1.11a109.32,109.32,0,0,1-9.5,13.16c-3,3.59-4.83,3.39-8.17.47-2.94-2.57-3.56-5.45-1.43-8.66,3-4.51,6.2-8.88,9.3-13.32,1.54-2.19,1.15-4.21-1-5.56-1.78-1.1-3.36-.41-4.59,1.35-2.9,4.15-6,8.19-8.84,12.35-4.56,6.58-3.54,13.06,2.73,18.13,5.94,4.81,12.87,4.24,18.19-1.75,2.39-2.7,4.3-5.82,6.53-8.66.83-1.05,1.47-2.41,3.37-2.19,4.74.55,7.71,4.72,5.94,9.13-1.86,4.68-4.36,9.11-6.2,13.79-.71,1.81-1.48,4.45,1.49,5.47,2.5.85,4-.35,4.94-2.76,1.9-4.67,4.42-9.11,6-13.87s4.57-3.69,7.73-2.8c3.55,1,4.77,4,3.35,6.79-2.36,4.69-1.1,10-3.62,14.68-1.36,2.52-.2,5.21,2.81,6C214.56,400.28,219.88,401.24,222.63,401.83ZM92.79,202.7c.2-7.25-1.83-11.09-6.1-12.6-3.39-1.2-6.93.66-10.57,5.69-1.48,2.05-2.68,4.29-4.18,6.32A3.31,3.31,0,0,1,68,203.27c-2.17-.78-2-2.72-1.79-4.51.43-3.46,3.74-3.89,5.86-5.63a3.44,3.44,0,0,0,.19-4.84c-1.08-1.35-2.82-1-4.05-.48-4.67,1.89-9.29,10.63-8,15.44a10.79,10.79,0,0,0,7,7.7c3.83,1.37,6.31-.81,8.4-3.4,2.27-2.8,4.14-5.92,6.29-8.82.83-1.13,1.87-2.46,3.5-1.85,1.88.7,2.54,2.35,2.66,4.34.15,2.42-.71,4.91-2.6,5.65-5.83,2.29-6.51,9.51-12.26,11.92-2.57,1.08-3.88,4.16-4.78,7a30.91,30.91,0,0,1-2.42,6c-1.19,2.13-4,1.77-5.27-.4-1.06-1.76-.73-3.28,0-5.1,1-2.54,3.75-3.28,5-5.32.61-1,.39-2.87-.14-4-.78-1.68-2.74-1.17-3.86-.57-5,2.7-6.7,7.28-6.6,12.76.09,5.72,2.75,9.87,7.11,10.84,4,.88,7.86-1.48,10.19-6.43,1.22-2.58,2-5.41,3.26-7.94a3.18,3.18,0,0,1,3.82-1.34c1.67.46,2.2,1.77,2.3,3.25.21,3,.13,5.86-2.93,7.62-1.22.7-2.79,1.29-3.43,2.38s-1.06,2.92.26,4a4,4,0,0,0,2.92.71c4.42-.86,6.42-4.07,7.91-8.05,2.6-6.93,2-12.75-4.74-17C87.6,213.49,93.66,210,92.79,202.7ZM242,80.25v.23h-5.45c-1.94,0-3.57-.3-3.79-2.76s.35-4.13,3.31-4.39c2.49-.21,4.92-1,7.41-1.4,1.73-.26,4.1.07,4.08-2.31,0-3.39-3-2.3-4.91-2.37-2.54-.08-5.09.15-7.64.17-1.79,0-2.46-1.15-2.59-2.75-.17-2,.16-3.69,2.56-3.83,3.63-.22,7.29-.12,10.9-.5,1.58-.17,2.11-1.75,2-3.34s-.82-2.71-2.56-2.75c-6.55-.15-13,1.13-19.36,2.28A1.93,1.93,0,0,0,224.45,59c2.53,7.43,1.2,15.15,1.57,22.72.23,4.66,2.23,5.63,6,5.21,5.39-.59,10.79-.33,16.22-1.34,5.66-1.06,11.34-.81,14.87-6.63,1.25-2.06,2.85-1,4.19.75,1.9,2.42,1.32,6.84,5.62,7.28,1.4.15,3.1.26,4.2-.39,2.22-1.31-.16-2.46-.75-3.25-6.34-8.54-5.91-16.39,2-23.72A9.67,9.67,0,0,0,279.84,57c-1-.24-2.07-.57-3.12-.73-4.74-.75-6,3.15-8,6-1.51,2.15-2.63,3-4.14-.4-1.12-2.52-1.73-5.79-4.66-7.09a6.05,6.05,0,0,0-4.13-.18c-1.78.65-1.25,2.12-.47,3.5,1.6,2.83,3,5.76,4.65,8.57,1,1.69,1.55,3.33.25,5-2.43,3.15-4.77,6.41-7.47,9.32s-4.71-2.38-7.55-.87C244.35,80.63,243.06,80.25,242,80.25ZM171.14,239.78c0-.25,0-.7-.2-.91-3-3.13-5.56-7.14-9.21-9.09-5.23-2.81-11.42,3.53-17.21-.56-.69-.49-2.7.59-3.93,1.25-2.17,1.19-10.89,16.24-11,18.79a5,5,0,0,0,.15,2.16c.39.87.61,2.28,2.1,1.87.59-.16,1.46-.71,1.52-1.17.49-3.57,1.52-6.57,6-5.65,4.86,1,3.06,4.9,3.21,7.93a6.86,6.86,0,0,0,.24,1.07c.91,4.39.17,7.3-5.36,6.36-.94-.16-2,.56-3,.87,1,1,1.77,2.53,3,3,1.59.65,3.52.46,5.28.76,6,1,8.06,3.16,8.63,9.11.21,2.16,0,4.37.32,6.51a2,2,0,0,0,2.46,1.54c.83-.22,1.8-.66.77-2.09-2-2.75-.55-5.48.44-8.23a19.78,19.78,0,0,0,1.18-10.9c-1.88-10.67,1.82-15.79,12.66-20.47C170.09,241.54,171.29,241.35,171.14,239.78ZM291.55,439.07c.35-3.8-1.68-6.94-2.81-10.34-.26-.78-2-1.56-.29-2.33a3.22,3.22,0,0,1,2.86.49,29,29,0,0,1,4.22,5c1.77,2.63,2.78,6.54,7.06,5.17,3.86-1.24,1.63-5,2.26-7.53.82-3.33.48-7,3.1-9.76.77,2.75,1.57,5.48,2.32,8.24.38,1.39.72,2.79,1,4.2.48,2.39,2.17,2.67,4.07,2.22,2.23-.53,2.71-2.3,2.19-4.2-2-7.62-4.41-15.16-6.26-22.83-.86-3.54-3-3.62-5.65-3.15-3.71.65-5.67,2.6-5.43,6.69s.05,8-.08,12a9.56,9.56,0,0,1-.89,2.62,9.73,9.73,0,0,1-2.59-1.81A125.9,125.9,0,0,1,289.27,413c-2.33-4-5.75-2.58-8.65-1.82-3.42.88-2.44,4.09-1.81,6.41,1,3.81,2.61,7.46,3.73,11.24,1,3.44,1.72,7,2.65,10.45.43,1.62,1.75,2.19,3.31,2.11S291.33,440.88,291.55,439.07Zm-4.94-101.15c-.85-1-1.7-2.17-2.69-3.17-6.12-6.19-12-12.67-18.49-18.45-11.6-10.32-23.72-20-37.59-27.28-1.35-.7-2.75-1.4-3.54.36-.29.65.54,1.86,1,2.76.12.25.67.27.94.49a290.64,290.64,0,0,1,41.63,42.75c6.57,8.39,7,8.32,16.71,4.95.33-.12.76-.2.95-.44A18.77,18.77,0,0,0,286.61,337.92ZM241.9,283.86l-2.44.63c.49,1.7,2.24,1.35,3.32,2.07q3.63,2.37,7.21,4.79c15.71,10.63,29.09,23.87,42.08,37.56,6.22,6.55,6.85,6.57,14.44,2,2.59-1.57,2.56-2.67.39-4.75-17.35-16.57-36.36-30.74-58.27-40.81C247,284.58,245.54,283.44,241.9,283.86Zm19.3-4.28-2.16.68c.88.5,1.74,1,2.64,1.49a244.09,244.09,0,0,1,53,37.24c4.58,4.19,4.59,4.18,9.56.46.86-.65,1.61-1.47,2.49-2.1,2.35-1.65,1.06-2.73-.48-3.92a249.12,249.12,0,0,0-54-31.4C269.46,280.82,266.53,278.77,261.2,279.58ZM252.62,345c1.61,0,2.7.07,3.78,0s2.7,0,3.07-.58c.84-1.36-.62-2.41-1.43-3.4-13.17-16.14-26.84-31.78-44.91-42.79-2.7-1.65-3.71-5.57-7.55-5.7-1,0-2.12-1-3,.2s.21,1.78,1,2.4c15.54,12.66,27.74,28.23,38.62,44.89C244.94,344.14,248.37,345.78,252.62,345ZM317,255.32a12.75,12.75,0,0,0,2-.2,343.67,343.67,0,0,1,53.16-8.55,7.44,7.44,0,0,0,1.94-.74c-.7-.76-1.26-1.9-2.13-2.23-4.13-1.58-8.17-4.4-12.87-1.65-4.52-6-9.17-2.18-13.8-.19-2.05.88-3.25-1.2-4.91-1.5-7.16-1.3-14.24-3.39-21.1,1.79-3.58,2.7-4.93,6-5.58,10C313.4,254.2,314.69,255.31,317,255.32ZM219.12,431.86c0,1.62,0,3.79,0,6,0,2.45-.68,5.55,3.23,5.43s3-3.34,3.2-5.71c.23-3.25.26-6.52.45-9.77.06-1.07.28-3,.5-3,1.68-.08,1.95,1.64,2.52,2.71,2.71,5.08,5.34,10.2,7.77,15.42,1.2,2.56,3.3,2.54,5.43,2.48,3.07-.09,2.92-2.49,3.06-4.67.47-7.19.09-14.45,2.07-21.5a6.36,6.36,0,0,0-.17-3.17c-.4-1.59-1.91-2.24-3.24-2.55-1.71-.4-2.53.82-2.77,2.44-.62,4.26-1.23,8.53-1.9,12.78-.16,1.05-.55,2.95-.81,2.95-1.73,0-1.56-1.88-2.25-2.94a23.65,23.65,0,0,1-1.53-2.85c-1.57-3.23-3.06-6.49-4.7-9.68-1.23-2.41-3-4-6-3.67-3.18.3-2.5,3.08-3.22,4.86C218.91,421.84,220,426.67,219.12,431.86Zm-2.19-18.46c.18-2.14-1-2.69-2.55-3-2.08-.37-3,.39-4,2.4-2.29,4.63-1.78,10.32-5.58,14.32q-2.34-7.74-4.66-15.46a11.13,11.13,0,0,1-.41-2.13A5.45,5.45,0,0,0,194,404.2c-3.83-.06-2.85,3.55-3.52,5.73q-3.18,10.29-6,20.69c-.5,1.84-.07,3.69,2.36,4,2,.24,3.52-.3,4-2.56q1.18-5.28,2.55-10.5c.26-1,.65-2.08,2-2.21s1.69,1.07,2,2c1.32,4.49,2.58,9,3.8,13.5.69,2.59,1.58,4.65,4.9,4.68s4.22-1.83,4.7-4.66a64.65,64.65,0,0,1,2-7.25C214.12,422.8,215.57,418,216.93,413.4ZM114.4,155a7.93,7.93,0,0,0,2-1.12c4.22-4.46,8.21-9.09,10.07-15.09a7.14,7.14,0,0,0,.33-4.18c-2.64-7.15-7.35-12.21-15.11-13.88-6.15-1.32-10.2,2-13.76,6.26-1.6,1.93-3,4-4.59,5.95-2,2.46-1.61,4.62.72,6.5q8.82,7.1,17.72,14.08A18,18,0,0,0,114.4,155Zm-15.71,158c-1.08-3.23-1.91-6-2.91-8.65-1.38-3.67-1.92-8.73-4.61-10.52-2.84-1.9-7.14,1.48-10.76,2.76-6,2.13-12.31,3.39-17.92,6.59,2,6.46,4.05,12.9,6,19.38.49,1.62,1.39,2.73,3,2.18s3.68-1.55,3-3.77c-1-3.43-2.63-6.68-3.68-10.09-.78-2.55.84-4,3.09-4.87s3.14.55,3.81,2.44c.95,2.69,2,5.35,3.13,8,.57,1.33,1.41,2.65,3.2,2.14a2.67,2.67,0,0,0,1.88-3.36C85.43,313,84.44,311,84,309c-.53-2.62-2.54-6.14,1.67-7.21,3.12-.8,4,2.11,4.59,4.72.58,2.42,1.6,4.75,2.22,7.17.42,1.62,1.3,2.84,2.86,2.38S98.71,314.57,98.69,312.9ZM348,82.46c-7-1-16.59,6.73-17,16.4-.37,8.22,7.56,16.5,15.6,16.4,7.65-.1,16.57-9.41,16.7-17.42C363.43,90.08,356,82.58,348,82.46ZM428.2,249.11V249c4.72-.23,9.45-.38,14.16-.73a2.88,2.88,0,0,0,2.61-3c.08-2.09-1-3.34-3.26-3.28-4,.1-8,.27-12,.27a26.3,26.3,0,0,1-4.19-.61c.32-1.8,2.13-1.39,3.16-2.13l14.08-10.14c1.7-1.23,2-3,1.56-4.83-.49-2.33-2.35-2.38-4.19-2.32-7.27.22-14.54.48-21.81.69-2.32.06-4.64.36-4.67,3.23,0,3.93,3,3.19,5.49,3.15,2.91,0,5.82-.18,8.73-.14a16.65,16.65,0,0,1,3.07.6,11.16,11.16,0,0,1-1.9,2.54c-4.33,3.26-8.75,6.41-13.14,9.59a4.41,4.41,0,0,0-1.65,4.81c.45,2.34,2.28,2.43,4.13,2.43ZM128,323.32c-.11,1.46-2.65,1.77-4.31,3-2.1,1.56-6.58,1.92-4.53,5.9,2.37,4.58,5.54,1.06,8.2-.25,4.84-2.38,9.72-4.73,14.33-7.52,2.45-1.49,7.07-2.75,4.79-6.82-1.79-3.2-5.17-1.16-7.65.33-2.71,1.63-4.61,1-6.32-1.55-3.48-5.2-3.27-6.44,2.25-10.59a16.08,16.08,0,0,0,1.76-1.27c1-1,2.32-2,1.39-3.65s-2.65-2.82-4.5-1.89c-5.44,2.75-10.76,5.75-16.12,8.67-2.2,1.19-4.63,2.11-6.53,3.68s-1.15,4,.07,5.86,2.5.5,3.69-.21a30.85,30.85,0,0,1,3.67-2.31C123,312.65,128.56,316.79,128,323.32Zm136.82,89.44c-14.45,1.24-12.86-2.31-12.55,13.41,0,1.09.07,2.19.12,3.28.76,16.76.75,16.74,16.92,14.26,1.79-.28,3.65,0,5.45-.24,1.39-.15,3.11-.29,3-2.26a3.61,3.61,0,0,0-3.35-3.69c-3.21,0-6.39,1-9.6,1.38-2.41.3-4.2-.28-4.33-3.3s.23-5.07,3.83-5.08c2.54,0,5.1,0,7.63-.29a2.1,2.1,0,0,0,2.09-2c0-1.78-1-2.56-2.72-2.55-3.28,0-6.55.1-9.83.09-1.75,0-2.51-1.07-2.63-2.72-.14-2,.28-3.6,2.7-3.77a15.25,15.25,0,0,0,3.26-.2c3.71-1.07,10.74,2,10.12-4.42C274.52,410.36,268,413.93,264.78,412.76ZM157.67,389.37a11.79,11.79,0,0,0-1-2.71c-3.66-5.62-9.06-9.32-14.55-12.88-2.05-1.33-3.39.07-4.52,1.53-4.65,6-9.25,12.07-13.87,18.12a7.16,7.16,0,0,0-.58.92c-1.08,1.93-.42,3.55,1.14,4.76,1.39,1.07,2.69.36,3.75-.77s1.87-2.24,2.93-3.23c3.26-3.07,5.3-3,8.13-.08a6.36,6.36,0,0,1,1.51,7c-.58,1.69-1.7,3.2-2.28,4.89-.7,2,.55,3.43,2.08,4.56,2.62,1.94,2.95-1,3.64-2,1.7-2.71,3.36-5.37,3.46-8.94.14-4.64,6.58-2,7.83-5.91A49.57,49.57,0,0,1,157.67,389.37Zm26.81,19.08c0-7.65-7.47-15.29-15.2-15.12-8.93.19-16,9.25-15.8,17.33.25,9.18,6.42,15.51,15.69,15.33C177.54,425.84,184.5,417.86,184.48,408.45Zm239.33-221c-9.21.13-16.42,6.73-16.48,15.09-.08,9.52,6.05,15.73,15.45,15.66s17.63-7.49,17.38-15.77C439.89,193.36,433.26,187.29,423.81,187.43Zm1,109.34c-.06-.11-.35-1.44-1.1-1.78-1.44-.65-2.74,0-3.29,1.65-.9,2.73-1.71,5.49-2.76,8.16-.68,1.72-1.87,3.25-4.05,2.8s-2.77-2.12-2.29-4.1c.77-3.14,1.75-6.23,2.52-9.37.47-1.91.21-3.59-2.2-4a3,3,0,0,0-3.53,1.86c-1.84,5.44-3.44,10.95-5.05,16.46-.44,1.5,0,3.06,1.54,3.58,8.19,2.69,16.23,5.92,24.81,7.28a3.11,3.11,0,0,0,3.6-1.8c1.85-5.79,3.5-11.66,5-17.56a3.15,3.15,0,0,0-1.46-2.57,2.37,2.37,0,0,0-3.45,1.5c-1.36,3.71-2.49,7.5-3.88,11.19-1.21,3.18-3.27,1.89-5.13.67s-1.81-2.86-1.44-4.76C423.23,303.13,425.46,300.78,424.82,296.77ZM328.09,428.22a17.36,17.36,0,0,0,2.31-.76c5.11-2.61,10.17-5.33,15.32-7.86,1.4-.69,2.76-1.28,2-3a2.87,2.87,0,0,0-3.53-1.79c-3.33,1.29-6.56,2.87-9.83,4.33-2.24,1-4.32,1-5.37-1.58-.89-2.2-.7-4,2.1-5.09a44.52,44.52,0,0,0,7.55-4.16,2.27,2.27,0,0,0,1-2.81A2.48,2.48,0,0,0,336.1,404a28.19,28.19,0,0,0-5.88,2.58c-2.72,1.81-5.07,3-7.08-.73-2.16-4,1.86-3.85,3.57-5,2.38-1.55,5.13-2.53,7.59-4,1.44-.85,1.34-2.48.91-3.9-.52-1.69-1.66-2.09-3.29-1.28-5.47,2.73-11,5.41-16.46,8.09-1.54.75-2.08,1.78-1.24,3.42,3.93,7.68,7.79,15.39,11.76,23.05C326.42,427.12,327.45,427.65,328.09,428.22ZM201,87.24c-3.57,0-4.91-1.74-5.43-3.91-.57-2.41,1.36-2.75,3.2-3.21A57.73,57.73,0,0,0,207,77.57c1.41-.58,1.85-2.12,1.44-3.69s-1.5-2.21-3.16-1.62c-2.7,1-5.45,1.76-8.1,2.84-1.94.8-3.43.92-4.12-1.46a4,4,0,0,1,1.33-4.75c1.84-1.46,4.37-1,6-2.07,2-1.39,7.12-.82,5.49-4.87-1.26-3.11-5-1.2-7.65-.47-.69.19-1.28.74-2,.92-15.21,4-13.7,1.47-8.92,16.69,1.72,5.48.88,14.13,6.5,15.74,5,1.43,11.51-2.56,17.35-4.17a6.9,6.9,0,0,0,.95-.53c1.28-.65,2.77-1.33,2.47-3-.38-2.21-2.17-2.55-4.12-2.44C206.85,84.88,203.86,87.66,201,87.24ZM103.65,172c.4-2.72-.28-6.08-3.43-7.85-6-3.36-12.14-6.37-18.33-9.31-1.82-.86-3.61,0-4.36,2s-.28,3.4,1.81,4.36c4.6,2.11,9.22,4.23,13.66,6.64,4.6,2.5,5.66,5.83,3.59,9.81-1.77,3.4-4.18,3.95-9.24,1.75a132.25,132.25,0,0,1-12.72-6.05c-2.59-1.46-3.94-.69-5.32,1.39-1.76,2.64-.19,4,2,5,4.24,2,8.51,3.88,12.79,5.76C95.19,190.43,103.72,184.89,103.65,172Zm39.52-49.95c8.92.28,17.48-8.62,14.61-16C155,99,150,93,144.62,87.56c-1.69-1.72-3.22-.31-4.61,1s-.75,2.28.21,3.54c3.48,4.62,6.91,9.29,10.2,14.05,1.88,2.71,1.87,5.56-.84,7.78s-6,2.7-8.93.26a28.6,28.6,0,0,1-4.21-5c-2.37-3.19-4.6-6.49-7-9.68-.93-1.25-2.16-1.85-3.65-.62s-3.68,2.3-2.17,4.17c4.78,5.92,8.45,12.75,14.41,17.72C139.58,122,141.35,122.1,143.17,122.09ZM409.68,356.73c3.61,2.4,4.66-1.05,5.42-3,1.42-3.54-2.51-2.74-3.82-3.16-7.82-2.49-15.83-4.39-23.7-6.76-2.07-.62-3.34-.66-4.33,1.4-.87,1.81-3,3.17-1.31,5.72,5,7.48,9.84,15,14.78,22.57.78,1.19,1.78,2.61,3.36,1.28,1-.88,2.35-2.29,2.31-3.4-.08-1.65-1.6-3.19-1.89-4.87A8.44,8.44,0,0,1,409.68,356.73Zm-28.8-211.67c2.32-1.55,3.72-1,5.16,1.48,2.1,3.53,6.58,6.2,2.45,11.22-1.9,2.3.22,4.15,2,5.23,2.26,1.38,2.89-.88,3.81-2.31,4.3-6.64,8.63-13.26,12.92-19.9,1.11-1.71,3.06-3.17,1-5.64-1.51-1.87-3.15-3.08-5.52-2.45-9,2.36-18,4.74-26.87,7.33-1.8.52-1.33,2.28-.44,3.54C376.82,145.5,378.49,146.69,380.88,145.06ZM294.46,80.38c1.82.09,2.91.2,4,.2,5.61,0,9.39-2.72,10.47-7.4,1.18-5.17-.62-8.77-6.25-11a101.69,101.69,0,0,0-12.34-3.63,3.26,3.26,0,0,0-4.14,2.54c-2.05,8-3.95,16-5.77,24C280,87,280.67,88.7,283,89c2,.26,3.91-.32,3.88-2.56C286.79,80.26,289.68,78.64,294.46,80.38ZM154.19,329.57c-8.84,3.8-19,6.05-28,11.28-1.85,1.08.5,2.34,1.29,3.18,1.81,1.93,4.06.42,6.12.52,5.89.3,9,4.57,7.52,10.5-.46,1.85-1,3.54.37,5,1,1.11,2.3,3.75,3.92.92,4.8-8.37,9.4-16.86,13.87-25.42C160.46,333.36,157.6,329.82,154.19,329.57Zm137.16-52.44c-1.62,0-2,0-2.34,0-1.29.1-2.74-.37-3.66,1,.88.53,1.72,1.13,2.64,1.58,15.83,7.77,31.54,15.74,45.5,26.71,4.41,3.46,5.52-1.54,7.5-3.35,2.38-2.18.25-3.81-1.73-4.89-11.62-6.4-23.25-12.78-35.85-17.19C299,279.49,294.84,277.4,291.35,277.13Zm-44.53,96.28c-3.11.11-2.71,1.31-1.9,3.37,2.91,7.32,5.47,14.78,8.32,22.13,1,2.54,1.55,5.27,5.67,5.33s4.76-2.91,5.5-5.37c2.37-7.89,4.31-15.92,6.46-23.88.28-1,.87-2.05-.28-2.85a3.94,3.94,0,0,0-4.08-.13c-2.11,1-3,2.83-3.4,5.17-.75,4.23-1.84,8.39-2.9,12.56a2.13,2.13,0,0,1-1.5,1.19,2,2,0,0,1-1.61-.92,126.92,126.92,0,0,1-5-13C251.21,373.68,249.22,373.23,246.82,373.41Zm27.05,22.44c.59,2.63-1.42,6,2.94,6.13,2.78.09,4-1.46,3.74-4.06-.37-4,2.13-4.27,5.24-5.08,4-1.06,7.28-2.39,9.55,2.71,1.19,2.66,3.52,1.65,5.47.3,2.64-1.82.25-3.11-.57-4.31-4.67-6.85-9.49-13.6-14.22-20.41a4.93,4.93,0,0,0-5.69-2,4.71,4.71,0,0,0-3.83,4.68A117.64,117.64,0,0,1,273.87,395.85Zm140-241.49c.41,1.48-.55,2.19-1.38,2.77a49.18,49.18,0,0,1-4.6,2.72c-3.79,2-7.56,4.11-11.41,6-3,1.5-3.08,4-1.87,6.36,1.61,3.2,3.58.72,5.27-.18,3.17-1.66,6.26-3.46,9.39-5.19,4.56-2.53,9.18-6.72,13,1.11.47,1,2.61.54,3.92-.4s.72-1.94.25-2.81c-2.71-5.05-5.42-10.11-8.33-15.05-1-1.71-2-4.61-4.64-3.46-3.34,1.47-1.72,4.07-.42,6.31A13.88,13.88,0,0,1,413.83,154.36ZM326.52,381.63c-.63-1.66-1.9-2.29-3.4-1.7a63.23,63.23,0,0,0-7.79,3.61c-2.56,1.45-4.21.41-5.26-1.72-2.55-5.13-4.88-10.36-7.29-15.56-.88-1.88-1.3-4.51-4.39-3-2.76,1.38-3.3,3.66-2,6.34a104.33,104.33,0,0,0,4.9,9.6c2.72,4.42,3.21,12.4,8,12.74s10.26-4.4,15.38-7a3.73,3.73,0,0,0,1.52-1.48A5.73,5.73,0,0,0,326.52,381.63Zm69.83-54.1a4.55,4.55,0,0,0-3.48,2.63c-1.21,2.07-.34,3.11,1.68,4.06,4.23,2,8.27,4.37,12.51,6.34,13.64,6.34,11.44,8.65,18.47-6.14,1.19-2.51,5.84-5.8,2-8.21-5.23-3.3-5.13,3.28-6.79,5.71-3.75,5.53-3.5,5.72-10.11,2.62-3.91-1.84-7.78-3.75-11.67-5.64C398,328.44,397.09,327.91,396.35,327.53ZM322.28,70.76a2.6,2.6,0,0,0-1.82-3.2c-1.83-.71-3.64-.39-4.54,1.64-1.59,3.61-3,7.3-4.59,10.91-6.83,15.4-6.44,16.34,9.35,21.59,2,.68,4.48,1.85,5.64-.8s-1.68-3.58-3.36-4.67a17.69,17.69,0,0,0-4.88-2.29c-3.51-1-3.43-3.33-2.48-5.89,1.26-3.36,3-6.55,4.19-9.92C320.65,75.78,322.55,73.79,322.28,70.76ZM398.5,124c-.2-.64-.21-1.47-.64-1.91-4.77-5-9.57-9.89-14.46-14.72a2.54,2.54,0,1,0-3.25,3.87c5.14,3.64,2.59,6.32-.77,9.32-3.78,3.37-7.34,7-10.87,10.63-1.05,1.08-3.1,2.14-1,4.25,1.77,1.76,3.32,2.65,5.42.52,3.05-3.09,6.12-6.18,9.31-9.13,5.19-4.82,5.25-4.8,12.12-1.15a2.51,2.51,0,0,0,2.92,0A6.71,6.71,0,0,0,398.5,124Zm-328,128.68v.09c4,0,8-.05,11.94,0,3,0,3.59-1.74,3.5-4.17-.07-2-.63-3.6-3-3.63-8.32-.1-16.65-.23-25-.15A3.79,3.79,0,0,0,54,249c.2,2.27,2,3.7,4.54,3.69C62.49,252.7,66.47,252.71,70.46,252.71Zm282.3,35.49a2.1,2.1,0,0,0-1.21-2.64c-11.31-6.24-23.56-9.84-36.11-12.51-.4-.09-1.29.75-1.45,1.3a2.11,2.11,0,0,0,.6,1.86,15,15,0,0,0,3.73,2c9.82,3.41,18.83,8.57,28.2,12.95C349.25,292.46,352.53,290.83,352.76,288.2ZM158.25,216.75a24,24,0,0,0-3.17-11.3c-2.68,1.76-5.4,3.44-8,5.28-4.63,3.27-10.92,3.87-14.41,9l17.44.59c1.45.05,2.92,0,4.36.21C157.36,220.85,158.42,219.45,158.25,216.75ZM377,102.64a8.48,8.48,0,0,0-1.69-2.38c-1.73-1.23-3.55-.64-4.8.79-5.46,6.22-10.82,12.53-16.19,18.83-1.48,1.75-1.21,3.26.93,4.2,1.37.6,2.42,3,4.37.66,5.52-6.65,11.15-13.2,16.68-19.83A6.92,6.92,0,0,0,377,102.64ZM204,163.33a6.11,6.11,0,0,0-.28-2,64.86,64.86,0,0,1-6.55-21.53,5.32,5.32,0,0,0-.81-1.59c-.37.6-.69,1.23-1.11,1.78-2.53,3.36-2.1,7.58-3.33,11.34-4.1,12.51-3.93,12.56,9,14.28a3.26,3.26,0,0,0,1.08,0A2.29,2.29,0,0,0,204,163.33Zm227.24,13.72c.53-1.89-2.91-5.16-4.85-4.33-7.59,3.25-15.09,6.75-22.67,10-1.79.77-3.55,1.33-2.31,3.69,1,1.9,2,3.88,4.93,2.54,7.53-3.43,15.11-6.73,22.72-10C430.16,178.57,431,178.2,431.28,177.05Zm-189.8-11.81c-5,1.2-10.16,4.83-16.31,5.7-2.81.4-4.41,2-1,4.85,3.19,2.66,5.75,6.07,8.58,9.14,2.33-3.57,4.63-7.15,7-10.69,1.4-2.11,2.88-4.15,4.34-6.22S244,165.76,241.48,165.24Zm189,113.86a8,8,0,0,0,7.81-8.32c-.11-4-3.51-8.17-6.86-8.37-4-.24-8.59,3.93-8.75,7.91C422.56,274.52,426.59,279.06,430.52,279.1ZM77.17,270.75c0-4.17-4-8.21-8.32-8.29-3.76-.07-7.39,4.48-7.24,9.08a7.83,7.83,0,0,0,7.42,7.6C73,279.35,77.15,275.05,77.17,270.75ZM150,165.33c-1,.32-1.83.35-2.16.78a2,2,0,0,0,.18,1.8c1.38,2.11,2.8,4.2,4.36,6.17,2.8,3.56,4,8.22,7.86,11,3.08-3.43,6.21-6.83,9.22-10.33.47-.54,2.36-1.76.37-2.2C162.77,171,156.37,167.78,150,165.33Zm99.2,24.29V190c-3.6,0-7.19.05-10.79,0-1.5,0-3.32.1-3.48,1.61-.29,2.78-.57,5.85,1.29,8.23.91,1.18,2.49.57,3.89-.06,5.52-2.46,11.13-4.74,16.66-7.17,1.23-.54,3.71-.53,3.38-1.92-.49-2.08-2.89-1-4.48-1C253.49,189.55,251.33,189.62,249.17,189.62Zm-31.63-19.48c.73-.55,1.59-.85,1.73-1.36,1.88-6.7,3.65-13.43,5.44-20.15-7,1.37-7,9-11.26,12.7a7.87,7.87,0,0,0-.71.82c-1.09,1.32-3.2,2.82-1.56,4.44S215.44,169,217.54,170.14Zm-34.87-5.36c-.09-.34-.06-.78-.27-1-4-4.35-5.08-11.12-11.44-13.38a1.31,1.31,0,0,0-.85.41c1,4.27,2.13,8.52,3.18,12.78a16.72,16.72,0,0,1,.24,2.13c.22,1.73.36,4.42,2.55,3.68C178.49,168.59,181.92,168.33,182.67,164.78Zm-37.5,24.91c-2.6.6-6.94-2-10.71,1.08L145.2,195a49.6,49.6,0,0,1,5.88,2.4c2,1.11,3.81,2,5.54-.39,1.35-1.85,2.13-4.14,1.32-6.06-.73-1.72-3.14-1.21-4.9-1.22ZM120,115c.73-.46,3.07.22,2.53-2a5.76,5.76,0,0,0-5.35-4.59c-1.39-.09-3.09.78-2.83,2.54C114.75,113.7,116.46,115.34,120,115Z"/><path class="cls-1" d="M175.5,244.48c1.05-3.76-1.35-8.8,4.62-10.76,2-.65.37-1.66-.87-2.56-9.33-6.72-15.05-15.39-14.82-27.43.27-14.36,10.49-27.9,24-31.31,13.36-3.37,28.34,3.13,35.48,15.4,2.38,4.09,4.17,8.29,4.34,13.22.21,6,.51,6.05,7,6.07,14.21,0,28.43.15,42.64-.15,7.46-.15,13.88.79,19.39,6.84,3.43,3.76,8.74,5.76,13,8.8,1.82,1.3,5,2.92.06,5-2.13.9-1.09,4-1.1,6.06-.07,10.2,0,20.41-.05,30.62-.05,6.14-.15,6.3-5.66,6.35-13.48.11-27,.78-40.44-.13-11.05-.76-22-3.26-32.94-5.37-9.9-1.92-11.09-1.37-13.22,8.43-2.5,11.5-4.37,12.54-16,8.95-.93-.28-1.75-1.46-2.75-.11a2.92,2.92,0,0,0,.4,3.94c1.76,2,4.1,2.45-.27,5.35-3.76,2.51-1.4,12.71,2.55,16.56,10.13,9.89,19.64,20.27,27,32.42l.19-.17c-7.13,1.37-12.75-.61-16.67-7.06-7.36-12.07-16.31-22.94-25.64-33.52-.65-.74-1.61-1.38-1-2.6.4-.85,1-.64,1.83-.64,5.34,0,7.43-2.75,4.93-6.63-1.93-3-3.86-6.39-8.24-6.19-5,.22-7.91-2.86-10.54-6.52-1.19-1.67-2-3.42-3.82-4.91-11.09-8.95-9.72-19.67,2.94-25.92,1.29-.64,2.49-1.47,3.73-2.21.22,3.3.36,5.49-4.14,7.14-7.24,2.65-8.44,11.49-2.22,15.13a40.39,40.39,0,0,1,10.1,8.54c2.26,2.55,5.08,2.48,7.67.14s4.8-4.56,2.95-8.39c-2.47-5.09-5.7-5.91-11.39-2.79-.83.46-1.64.95-2.46,1.43a10.75,10.75,0,0,1-.76-3.09c.37-6.15,4.21-8.55,9.24-5.16,3.3,2.24,6.37,3.3,10.09,2.41,2.39-.57,4,.73,6,1.55,3.82,1.56,7,0,7.57-3.44s.23-6.75-4.55-6.84c-1.75,0-3.45.29-4.35-2.06-1.82-4.79-7.56-5.28-10.42-9.08-1.73-2.31-3.78-1.19-5.7.13C180.8,241.63,179.87,246,175.5,244.48ZM233.56,225h0c-9.81,0-19.62,0-29.43,0-2.32,0-4.68.12-4.32,3.17.3,2.51-1.93,6.9,2.32,7.12,8.32.44,10.73,5.64,12.7,12.38,1.32,4.53,4.84,8.1,8.75,10.6,6.18,3.95,10.73,1.26,10.85-5.94.17-10.21.17-10.21,10.53-10.09,13.87.17,13.87.17,14,13.58,0,1.45.08,2.91,0,4.36-.17,2.74,1,4.07,3.8,3.83s2.35-2.22,2.35-4c0-10.17-.06-20.35.06-30.52,0-3.18-1-4.56-4.34-4.51C251.73,225.05,242.65,225,233.56,225ZM250,211.81V212c-7.62,0-15.25.35-22.84-.12a22.37,22.37,0,0,0-15.07,4.47c-1.13.82-3,2.2-2.79,3,.29,1.46,2.25.85,3.52.85,15.59,0,31.18-.19,46.77.12,5.34.11,9.81-.88,14-4.25,1.35-1.08,4-1.76,3.73-3.32-.37-2-2.91-.86-4.47-.88C265.23,211.76,257.61,211.81,250,211.81Z"/><path class="cls-1" d="M310.78,188.09c0-1.8.71-4.11-.14-5.3-1.91-2.67-3.72,5.1-6.06.52-.91-1.76,1.14-6-3.71-3.64-1.63.78-3.27,1.53-5,2.16a16.42,16.42,0,0,1-4.13,1.11c-4.46.36-9.51-2.33-11-5.64-1.9-4.34-.6-11,3-14a23.27,23.27,0,0,1,5.59-3.15,56.89,56.89,0,0,1,6.07-1.88c-1.46-1.61-3-3.18-4.36-4.85-3.16-3.82-4.85-7.7-2-12.74,1.54-2.74,1.86-6.11,2.43-9.34,1.29-7.31,7.37-9.31,12.48-3.93,7.36,7.75,12.75,16.69,11.84,28.13-.32,3.95-.18,7.23,4.39,2.25,1.42-1.56,4.43-1,4.2.78-1,7.85,4.25,5.27,7.26,4.19,9.34-3.32,17.83-.64,26.21,2.91,2.8,1.19,6.19,2.41,5.94,6.78-.22,3.86-2.46,5.8-5.69,7.12a8.39,8.39,0,0,0-2.86,1.5c-6.16,6.3-12.91,8.66-21.3,4.19-1.35-.72-3.11.17-1.67,3,2.43,4.81.15,9.44-3.16,12.82-2.67,2.72-6.28,5.05-10.74,3.25-4-1.61-6.64-4.43-7.28-8.68a50.92,50.92,0,0,1-.07-7.62Z"/><path class="cls-1" d="M222.63,401.83c-2.75-.59-8.07-1.55-13.29-2.88-3-.77-4.17-3.46-2.81-6,2.52-4.63,1.26-10,3.62-14.68,1.42-2.82.2-5.8-3.35-6.79-3.16-.89-6.18-1.91-7.73,2.8s-4.09,9.2-6,13.87c-1,2.41-2.44,3.61-4.94,2.76-3-1-2.2-3.66-1.49-5.47,1.84-4.68,4.34-9.11,6.2-13.79,1.77-4.41-1.2-8.58-5.94-9.13-1.9-.22-2.54,1.14-3.37,2.19-2.23,2.84-4.14,6-6.53,8.66-5.32,6-12.25,6.56-18.19,1.75-6.27-5.07-7.29-11.55-2.73-18.13,2.89-4.16,5.94-8.2,8.84-12.35,1.23-1.76,2.81-2.45,4.59-1.35,2.17,1.35,2.56,3.37,1,5.56-3.1,4.44-6.31,8.81-9.3,13.32-2.13,3.21-1.51,6.09,1.43,8.66,3.34,2.92,5.22,3.12,8.17-.47a109.32,109.32,0,0,0,9.5-13.16c2.15-3.58,4-2.67,6.83-1.11,13.65,7.45,27.9,13.3,43.49,15.29a6.44,6.44,0,0,1,2.14.33,3.39,3.39,0,0,1,1.8,3.59,2.33,2.33,0,0,1-2.85,2.42c-3.54-.58-7-1.48-10.56-2.14-1.88-.34-3.61-.14-4,2.27-.45,2.6.4,3.95,3.23,4.35a47.57,47.57,0,0,1,8.33,2.2,2,2,0,0,1,1.5,2.48,2.37,2.37,0,0,1-2.17,1.93c-3,.19-5.65-.88-8.4-1.84-2-.7-4.42-.79-4.87,2.41-.37,2.63-.77,5.23,3,5.69,2.86.34,5.84.08,8.43,1.73,1.35.85,4.08.48,3.43,3.14C229.1,402.08,227.11,402.23,222.63,401.83Z"/><path class="cls-1" d="M92.79,202.7c.87,7.31-5.19,10.79-10.93,14.51,6.7,4.23,7.34,10,4.74,17-1.49,4-3.49,7.19-7.91,8.05a4,4,0,0,1-2.92-.71c-1.32-1.08-.88-2.93-.26-4s2.21-1.68,3.43-2.38c3.06-1.76,3.14-4.65,2.93-7.62-.1-1.48-.63-2.79-2.3-3.25a3.18,3.18,0,0,0-3.82,1.34c-1.3,2.53-2,5.36-3.26,7.94-2.33,4.95-6.22,7.31-10.19,6.43-4.36-1-7-5.12-7.11-10.84-.1-5.48,1.55-10.06,6.6-12.76,1.12-.6,3.08-1.11,3.86.57.53,1.16.75,3.06.14,4-1.28,2-4,2.78-5,5.32-.74,1.82-1.07,3.34,0,5.1,1.3,2.17,4.08,2.53,5.27.4a30.91,30.91,0,0,0,2.42-6c.9-2.87,2.21-5.95,4.78-7,5.75-2.41,6.43-9.63,12.26-11.92,1.89-.74,2.75-3.23,2.6-5.65-.12-2-.78-3.64-2.66-4.34-1.63-.61-2.67.72-3.5,1.85-2.15,2.9-4,6-6.29,8.82-2.09,2.59-4.57,4.77-8.4,3.4a10.79,10.79,0,0,1-7-7.7c-1.28-4.81,3.34-13.55,8-15.44,1.23-.5,3-.87,4.05.48a3.44,3.44,0,0,1-.19,4.84c-2.12,1.74-5.43,2.17-5.86,5.63-.22,1.79-.38,3.73,1.79,4.51a3.31,3.31,0,0,0,3.91-1.16c1.5-2,2.7-4.27,4.18-6.32,3.64-5,7.18-6.89,10.57-5.69C91,191.61,93,195.45,92.79,202.7Z"/><path class="cls-1" d="M242,80.25c1.1,0,2.39.38,3.24-.07,2.84-1.51,4.93,3.7,7.55.87s5-6.17,7.47-9.32c1.3-1.69.72-3.33-.25-5-1.62-2.81-3.05-5.74-4.65-8.57-.78-1.38-1.31-2.85.47-3.5a6.05,6.05,0,0,1,4.13.18c2.93,1.3,3.54,4.57,4.66,7.09,1.51,3.4,2.63,2.55,4.14.4,2-2.89,3.26-6.79,8-6,1,.16,2.08.49,3.12.73a9.67,9.67,0,0,1-1.43,2.64c-7.9,7.33-8.33,15.18-2,23.72.59.79,3,1.94.75,3.25-1.1.65-2.8.54-4.2.39-4.3-.44-3.72-4.86-5.62-7.28C266,78,264.41,76.91,263.16,79c-3.53,5.82-9.21,5.57-14.87,6.63-5.43,1-10.83.75-16.22,1.34-3.82.42-5.82-.55-6-5.21-.37-7.57,1-15.29-1.57-22.72a1.93,1.93,0,0,1,1.49-2.48c6.41-1.15,12.81-2.43,19.36-2.28,1.74,0,2.47,1.11,2.56,2.75s-.44,3.17-2,3.34c-3.61.38-7.27.28-10.9.5-2.4.14-2.73,1.87-2.56,3.83.13,1.6.8,2.77,2.59,2.75,2.55,0,5.1-.25,7.64-.17,1.93.07,4.89-1,4.91,2.37,0,2.38-2.35,2-4.08,2.31-2.49.37-4.92,1.19-7.41,1.4-3,.26-3.53,1.87-3.31,4.39s1.85,2.77,3.79,2.76H242Z"/><path class="cls-1" d="M171.14,239.78c.15,1.57-1,1.76-2,2.17-10.84,4.68-14.54,9.8-12.66,20.47a19.78,19.78,0,0,1-1.18,10.9c-1,2.75-2.42,5.48-.44,8.23,1,1.43.06,1.87-.77,2.09a2,2,0,0,1-2.46-1.54c-.31-2.14-.11-4.35-.32-6.51-.57-5.95-2.65-8.11-8.63-9.11-1.76-.3-3.69-.11-5.28-.76-1.21-.49-2-2-3-3,1-.31,2.09-1,3-.87,5.53.94,6.27-2,5.36-6.36a6.86,6.86,0,0,1-.24-1.07c-.15-3,1.65-6.93-3.21-7.93-4.5-.92-5.53,2.08-6,5.65-.06.46-.93,1-1.52,1.17-1.49.41-1.71-1-2.1-1.87a5,5,0,0,1-.15-2.16c.14-2.55,8.86-17.6,11-18.79,1.23-.66,3.24-1.74,3.93-1.25,5.79,4.09,12-2.25,17.21.56,3.65,1.95,6.2,6,9.21,9.09C171.14,239.08,171.09,239.53,171.14,239.78Z"/><path class="cls-1" d="M291.55,439.07c-.22,1.81-1.57,2.21-3.05,2.29s-2.88-.49-3.31-2.11c-.93-3.47-1.62-7-2.65-10.45-1.12-3.78-2.72-7.43-3.73-11.24-.63-2.32-1.61-5.53,1.81-6.41,2.9-.76,6.32-2.19,8.65,1.82a125.9,125.9,0,0,0,7.36,10.74,9.73,9.73,0,0,0,2.59,1.81,9.56,9.56,0,0,0,.89-2.62c.13-4,.32-8,.08-12s1.72-6,5.43-6.69c2.68-.47,4.79-.39,5.65,3.15,1.85,7.67,4.21,15.21,6.26,22.83.52,1.9,0,3.67-2.19,4.2-1.9.45-3.59.17-4.07-2.22-.28-1.41-.62-2.81-1-4.2-.75-2.76-1.55-5.49-2.32-8.24-2.62,2.76-2.28,6.43-3.1,9.76-.63,2.57,1.6,6.29-2.26,7.53-4.28,1.37-5.29-2.54-7.06-5.17a29,29,0,0,0-4.22-5,3.22,3.22,0,0,0-2.86-.49c-1.75.77,0,1.55.29,2.33C289.87,432.13,291.9,435.27,291.55,439.07Z"/><path class="cls-1" d="M286.61,337.92a18.77,18.77,0,0,1-1.11,2c-.19.24-.62.32-.95.44-9.72,3.37-10.14,3.44-16.71-4.95a290.64,290.64,0,0,0-41.63-42.75c-.27-.22-.82-.24-.94-.49-.43-.9-1.26-2.11-1-2.76.79-1.76,2.19-1.06,3.54-.36,13.87,7.26,26,17,37.59,27.28,6.49,5.78,12.37,12.26,18.49,18.45C284.91,335.75,285.76,336.91,286.61,337.92Z"/><path class="cls-1" d="M241.9,283.86c3.64-.42,5.09.72,6.73,1.48,21.91,10.07,40.92,24.24,58.27,40.81,2.17,2.08,2.2,3.18-.39,4.75-7.59,4.58-8.22,4.56-14.44-2-13-13.69-26.37-26.93-42.08-37.56q-3.59-2.43-7.21-4.79c-1.08-.72-2.83-.37-3.32-2.07Z"/><path class="cls-1" d="M261.2,279.58c5.33-.81,8.26,1.24,11.07,2.45a249.12,249.12,0,0,1,54,31.4c1.54,1.19,2.83,2.27.48,3.92-.88.63-1.63,1.45-2.49,2.1-5,3.72-5,3.73-9.56-.46a244.09,244.09,0,0,0-53-37.24c-.9-.46-1.76-1-2.64-1.49Z"/><path class="cls-1" d="M252.62,345c-4.25.81-7.68-.83-10.41-5-10.88-16.66-23.08-32.23-38.62-44.89-.76-.62-1.82-1.19-1-2.4s2-.24,3-.2c3.84.13,4.85,4,7.55,5.7,18.07,11,31.74,26.65,44.91,42.79.81,1,2.27,2,1.43,3.4-.37.6-2,.49-3.07.58S254.23,345,252.62,345Z"/><path class="cls-1" d="M317,255.32c-2.35,0-3.64-1.12-3.28-3.3.65-4,2-7.27,5.58-10,6.86-5.18,13.94-3.09,21.1-1.79,1.66.3,2.86,2.38,4.91,1.5,4.63-2,9.28-5.81,13.8.19,4.7-2.75,8.74.07,12.87,1.65.87.33,1.43,1.47,2.13,2.23a7.44,7.44,0,0,1-1.94.74,343.67,343.67,0,0,0-53.16,8.55A12.75,12.75,0,0,1,317,255.32Z"/><path class="cls-1" d="M219.12,431.86c.88-5.19-.21-10,1.6-14.51.72-1.78,0-4.56,3.22-4.86,3-.29,4.81,1.26,6,3.67,1.64,3.19,3.13,6.45,4.7,9.68a23.65,23.65,0,0,0,1.53,2.85c.69,1.06.52,2.9,2.25,2.94.26,0,.65-1.9.81-2.95.67-4.25,1.28-8.52,1.9-12.78.24-1.62,1.06-2.84,2.77-2.44,1.33.31,2.84,1,3.24,2.55a6.36,6.36,0,0,1,.17,3.17c-2,7.05-1.6,14.31-2.07,21.5-.14,2.18,0,4.58-3.06,4.67-2.13.06-4.23.08-5.43-2.48-2.43-5.22-5.06-10.34-7.77-15.42-.57-1.07-.84-2.79-2.52-2.71-.22,0-.44,2-.5,3-.19,3.25-.22,6.52-.45,9.77-.17,2.37.59,5.59-3.2,5.71s-3.22-3-3.23-5.43C219.11,435.65,219.12,433.48,219.12,431.86Z"/><path class="cls-1" d="M216.93,413.4c-1.36,4.58-2.81,9.4-4.24,14.22a64.65,64.65,0,0,0-2,7.25c-.48,2.83-1.32,4.69-4.7,4.66s-4.21-2.09-4.9-4.68c-1.22-4.52-2.48-9-3.8-13.5-.27-.94-.51-2.14-2-2s-1.7,1.21-2,2.21q-1.37,5.22-2.55,10.5c-.5,2.26-2,2.8-4,2.56-2.43-.3-2.86-2.15-2.36-4q2.85-10.39,6-20.69c.67-2.18-.31-5.79,3.52-5.73a5.45,5.45,0,0,1,5.75,5.36,11.13,11.13,0,0,0,.41,2.13q2.31,7.72,4.66,15.46c3.8-4,3.29-9.69,5.58-14.32,1-2,1.93-2.77,4-2.4C215.94,410.71,217.11,411.26,216.93,413.4Z"/><path class="cls-1" d="M361.65,390.78c-1.26-3.33-3.52-6-5.67-8.79-1.19-1.54-3.72-2.95-2.18-5.23,1.28-1.88,3.59-1.79,5.76-.92.58.24,1.37,0,2.06-.09l-.24-.23c-.68,5.5,4.61,7.72,6.56,11.81,1.38,2.88,3.72,5.29,5.62,7.91,1.08,1.5,2,3.08.75,4.9-1.45,2.1-3.73,2.35-5.82,1.65-4.4-1.48-8.69-3.28-13-5-1.27-.51-2.52-1.9-3.85-.57-2,2,.3,3.16,1.19,4.48,1.61,2.39,3.34,4.69,5.05,7,1.11,1.5,2.26,3,.23,4.58-2.2,1.68-4.07.74-5.54-1.17-2-2.56-3.85-5.2-5.72-7.84-2.5-3.52-5-7-7.39-10.63-2.2-3.37-.8-6.09,3.07-6.31,2.66-.15,4.82,1.16,7.15,2.14,3.61,1.53,7.21,3.36,11.35,2.92.33.91,1,2.07,1.85,1.13S362.53,391.06,361.65,390.78Z"/><path class="cls-1" d="M110.08,342.69c-7.14,2.36-13.13,7-19.86,10.15-2,.91-3.91,2.2-5.78.13a5.53,5.53,0,0,1-.59-6.12c2.19-4.85,5.62-9.12,7-14.38.84-.48,2-1.15,1-2.09s-1.66.07-2.1,1c-4,.59-7,3.52-10.71,4.84-1.77.63-3.51.69-4.33-1.59a2.92,2.92,0,0,1,1.18-3.75q10.71-6.11,21.56-12a2.91,2.91,0,0,1,3.83.9c1.33,1.7,2.58,3.23,1,5.72-2.64,4.25-4.87,8.75-7.26,13.15-.62,1.16-1.93,3.06-1.6,3.43,1.73,2,3.06-.22,4.51-.94,2.56-1.28,5.12-2.56,7.6-4,2-1.16,4-1.94,5.77.15,2.11,2.47-1.25,3.63-1.5,5.55Z"/><path class="cls-1" d="M175.81,86.73c-.08-4.57-3.79-7.68-4.78-11.91-.49-2.06-.06-3.74,1.6-4.7,2.15-1.24,3.3.55,4.11,2.16,3.39,6.74,6.76,13.51,10,20.34.75,1.6,3.67,3.61.23,5.22-2,1-3.87,3.12-6.83.85-4.27-3.27-9.06-5.87-13.61-8.77-.91-.59-1.87-1.21-2.83-.35-1.23,1.09.24,1.82.6,2.64,1.58,3.61,3.29,7.16,4.9,10.76.93,2.08-.29,3.38-1.84,4.5-2.76,2-2.75-.89-3.37-2.1q-5.37-10.52-10.49-21.17c-.53-1.1-2.63-2-1-3.57s3.38-3.16,5.71-2.23a53.81,53.81,0,0,1,6.58,3.66c3.39,1.94,6.19,5.06,10.46,5.22.24.93.73,2.16,1.71,1.24S176.79,87,175.81,86.73Z"/><path class="cls-1" d="M355,321c-1.36-8.4,3.55-14.39,8.2-20.26,2.26-2.85,9-3.23,10.76-.19,3,5.19,8.22,4.6,12.39,6.62,1.28.62,2.9.58,4.1,1.29a3.56,3.56,0,0,1,1.49,2.62,3.12,3.12,0,0,1-2.48,3.15,6.37,6.37,0,0,1-5.2-.84c-4.41-2.84-6.8.15-8.84,3.27-1.77,2.72-2.22,5.45,2,6.74a24.23,24.23,0,0,1,3.83,2c2.12,1.08,2.26,2.63.95,4.38-1.1,1.46-2.23,2.74-4.49,1.69-6.14-2.89-11.58-7.3-18.5-8.5l.19.18c-.51-2.77-2.62-2.44-4.6-2.36Zm14.64-15.32c-5.19-.18-5.67,3.75-7.33,6.33-2.28,3.53.94,4.06,3,5.33,2.29,1.4,3.76,1.56,5-1.33,1-2.33,2.59-4.42,2.16-7.12C372.21,306.89,371,305.71,369.68,305.72Z"/><path class="cls-1" d="M114.4,155a18,18,0,0,1-2.57-1.48q-8.89-7-17.72-14.08c-2.33-1.88-2.74-4-.72-6.5,1.58-1.94,3-4,4.59-5.95,3.56-4.29,7.61-7.58,13.76-6.26,7.76,1.67,12.47,6.73,15.11,13.88a7.14,7.14,0,0,1-.33,4.18c-1.86,6-5.85,10.63-10.07,15.09A7.93,7.93,0,0,1,114.4,155Zm6.34-16.9c-.72-4.91-4-7.59-7.86-9.83-4.26-2.49-7.49-1.49-11,3.13-3.09,4.1.59,5.82,2.79,7.92a41.08,41.08,0,0,0,5.24,3.85c1.68,1.16,3.14,4,5.36,2.57C117.92,144,120.44,141.58,120.74,138.05Z"/><path class="cls-1" d="M98.69,312.9c0,1.67-1.7,2.64-3.33,3.11s-2.44-.76-2.86-2.38c-.62-2.42-1.64-4.75-2.22-7.17-.62-2.61-1.47-5.52-4.59-4.72-4.21,1.07-2.2,4.59-1.67,7.21.42,2.09,1.41,4.07,1.87,6.16A2.67,2.67,0,0,1,84,318.47c-1.79.51-2.63-.81-3.2-2.14-1.12-2.63-2.18-5.29-3.13-8-.67-1.89-1.49-3.3-3.81-2.44s-3.87,2.32-3.09,4.87c1,3.41,2.67,6.66,3.68,10.09.65,2.22-1.42,3.2-3,3.77s-2.47-.56-3-2.18c-1.93-6.48-4-12.92-6-19.38,5.61-3.2,11.92-4.46,17.92-6.59,3.62-1.28,7.92-4.66,10.76-2.76,2.69,1.79,3.23,6.85,4.61,10.52C96.78,306.92,97.61,309.67,98.69,312.9Z"/><path class="cls-1" d="M348,82.46c8,.12,15.4,7.62,15.27,15.38-.13,8-9.05,17.32-16.7,17.42-8,.1-16-8.18-15.6-16.4C331.44,89.19,341,81.49,348,82.46Zm-2.23,26.35c5.13,0,11.44-7.09,11.11-12.51-.25-4.07-4.64-7.72-9-7.47-4.85.28-10.61,6.85-10.42,11.9A8.38,8.38,0,0,0,345.8,108.81Z"/><path class="cls-1" d="M428.2,249.11h-9.82c-1.85,0-3.68-.09-4.13-2.43a4.41,4.41,0,0,1,1.65-4.81c4.39-3.18,8.81-6.33,13.14-9.59a11.16,11.16,0,0,0,1.9-2.54,16.65,16.65,0,0,0-3.07-.6c-2.91,0-5.82.1-8.73.14-2.46,0-5.53.78-5.49-3.15,0-2.87,2.35-3.17,4.67-3.23,7.27-.21,14.54-.47,21.81-.69,1.84-.06,3.7,0,4.19,2.32.4,1.88.14,3.6-1.56,4.83L428.68,239.5c-1,.74-2.84.33-3.16,2.13a26.3,26.3,0,0,0,4.19.61c4,0,8-.17,12-.27,2.24-.06,3.34,1.19,3.26,3.28a2.88,2.88,0,0,1-2.61,3c-4.71.35-9.44.5-14.16.73Z"/><path class="cls-1" d="M128,323.32c.6-6.53-4.92-10.67-9.81-8.62a30.85,30.85,0,0,0-3.67,2.31c-1.19.71-2.53,2-3.69.21s-2.08-4.2-.07-5.86,4.33-2.49,6.53-3.68c5.36-2.92,10.68-5.92,16.12-8.67,1.85-.93,3.52.14,4.5,1.89s-.4,2.65-1.39,3.65a16.08,16.08,0,0,1-1.76,1.27c-5.52,4.15-5.73,5.39-2.25,10.59,1.71,2.56,3.61,3.18,6.32,1.55,2.48-1.49,5.86-3.53,7.65-.33,2.28,4.07-2.34,5.33-4.79,6.82-4.61,2.79-9.49,5.14-14.33,7.52-2.66,1.31-5.83,4.83-8.2.25-2.05-4,2.43-4.34,4.53-5.9C125.31,325.09,127.85,324.78,128,323.32Z"/><path class="cls-1" d="M264.78,412.76c3.17,1.17,9.74-2.4,10.16,1.92.62,6.39-6.41,3.35-10.12,4.42a15.25,15.25,0,0,1-3.26.2c-2.42.17-2.84,1.76-2.7,3.77.12,1.65.88,2.72,2.63,2.72,3.28,0,6.55-.07,9.83-.09,1.69,0,2.74.77,2.72,2.55a2.1,2.1,0,0,1-2.09,2c-2.53.25-5.09.29-7.63.29-3.6,0-3.95,2.21-3.83,5.08s1.92,3.6,4.33,3.3c3.21-.41,6.39-1.34,9.6-1.38a3.61,3.61,0,0,1,3.35,3.69c.06,2-1.66,2.11-3,2.26-1.8.19-3.66,0-5.45.24-16.17,2.48-16.16,2.5-16.92-14.26,0-1.09-.1-2.19-.12-3.28C251.92,410.45,250.33,414,264.78,412.76Z"/><path class="cls-1" d="M157.67,389.37a49.57,49.57,0,0,0-2.34,5.23c-1.25,3.94-7.69,1.27-7.83,5.91-.1,3.57-1.76,6.23-3.46,8.94-.69,1.08-1,4-3.64,2-1.53-1.13-2.78-2.53-2.08-4.56.58-1.69,1.7-3.2,2.28-4.89a6.36,6.36,0,0,0-1.51-7c-2.83-2.89-4.87-3-8.13.08-1.06,1-1.94,2.17-2.93,3.23s-2.36,1.84-3.75.77c-1.56-1.21-2.22-2.83-1.14-4.76a7.16,7.16,0,0,1,.58-.92c4.62-6.05,9.22-12.1,13.87-18.12,1.13-1.46,2.47-2.86,4.52-1.53,5.49,3.56,10.89,7.26,14.55,12.88A11.79,11.79,0,0,1,157.67,389.37Zm-14.79-8.77c-.9-.07-4.41,4.13-4.56,5.45-.26,2.13,4.28,6.52,7.2,6.95,2.1.32,5.49-2.34,5.4-4.24S144.87,380.75,142.88,380.6Z"/><path class="cls-1" d="M184.48,408.45c0,9.41-6.94,17.39-15.31,17.54-9.27.18-15.44-6.15-15.69-15.33-.22-8.08,6.87-17.14,15.8-17.33C177,393.16,184.46,400.8,184.48,408.45Zm-24.38,3.43c0,5.27,2.67,8,7.85,8,5.83,0,9.92-4.83,10-11.66,0-5.7-2.19-8.33-7.24-8.55C164.6,399.39,160.13,404.56,160.1,411.88Z"/><path class="cls-1" d="M423.81,187.43c9.45-.14,16.08,5.93,16.35,15,.25,8.28-7.93,15.71-17.38,15.77s-15.53-6.14-15.45-15.66C407.39,194.16,414.6,187.56,423.81,187.43Zm1,6.61c-6.19.06-12.8,5.06-12.49,9.44.34,4.6,4.57,8.13,9.67,8.05,7-.11,11.82-4.06,11.8-9.64S431.28,194,424.85,194Z"/><path class="cls-1" d="M424.82,296.77c.64,4-1.59,6.36-2.14,9.19-.37,1.9-.34,3.61,1.44,4.76s3.92,2.51,5.13-.67c1.39-3.69,2.52-7.48,3.88-11.19a2.37,2.37,0,0,1,3.45-1.5,3.15,3.15,0,0,1,1.46,2.57c-1.52,5.9-3.17,11.77-5,17.56a3.11,3.11,0,0,1-3.6,1.8c-8.58-1.36-16.62-4.59-24.81-7.28-1.57-.52-2-2.08-1.54-3.58,1.61-5.51,3.21-11,5.05-16.46a3,3,0,0,1,3.53-1.86c2.41.43,2.67,2.11,2.2,4-.77,3.14-1.75,6.23-2.52,9.37-.48,2,.11,3.65,2.29,4.1s3.37-1.08,4.05-2.8c1.05-2.67,1.86-5.43,2.76-8.16.55-1.67,1.85-2.3,3.29-1.65C424.47,295.33,424.76,296.66,424.82,296.77Z"/><path class="cls-1" d="M328.09,428.22c-.64-.57-1.67-1.1-2.11-1.93-4-7.66-7.83-15.37-11.76-23.05-.84-1.64-.3-2.67,1.24-3.42,5.49-2.68,11-5.36,16.46-8.09,1.63-.81,2.77-.41,3.29,1.28.43,1.42.53,3.05-.91,3.9-2.46,1.45-5.21,2.43-7.59,4-1.71,1.12-5.73,1-3.57,5,2,3.72,4.36,2.54,7.08.73A28.19,28.19,0,0,1,336.1,404a2.48,2.48,0,0,1,3.48,1.49,2.27,2.27,0,0,1-1,2.81,44.52,44.52,0,0,1-7.55,4.16c-2.8,1.08-3,2.89-2.1,5.09,1.05,2.59,3.13,2.57,5.37,1.58,3.27-1.46,6.5-3,9.83-4.33a2.87,2.87,0,0,1,3.53,1.79c.79,1.72-.57,2.31-2,3-5.15,2.53-10.21,5.25-15.32,7.86A17.36,17.36,0,0,1,328.09,428.22Z"/><path class="cls-1" d="M201,87.24c2.83.42,5.82-2.36,9.46-2.58,1.95-.11,3.74.23,4.12,2.44.3,1.7-1.19,2.38-2.47,3a6.9,6.9,0,0,1-.95.53c-5.84,1.61-12.37,5.6-17.35,4.17-5.62-1.61-4.78-10.26-6.5-15.74-4.78-15.22-6.29-12.71,8.92-16.69.68-.18,1.27-.73,2-.92,2.66-.73,6.39-2.64,7.65.47,1.63,4-3.45,3.48-5.49,4.87-1.65,1.12-4.18.61-6,2.07A4,4,0,0,0,193,73.64c.69,2.38,2.18,2.26,4.12,1.46,2.65-1.08,5.4-1.88,8.1-2.84,1.66-.59,2.72-.1,3.16,1.62s0,3.11-1.44,3.69a57.73,57.73,0,0,1-8.17,2.55c-1.84.46-3.77.8-3.2,3.21C196.12,85.5,197.46,87.21,201,87.24Z"/><path class="cls-1" d="M103.65,172c.07,12.85-8.46,18.39-19.59,13.48-4.28-1.88-8.55-3.78-12.79-5.76-2.15-1-3.72-2.34-2-5,1.38-2.08,2.73-2.85,5.32-1.39a132.25,132.25,0,0,0,12.72,6.05c5.06,2.2,7.47,1.65,9.24-1.75,2.07-4,1-7.31-3.59-9.81-4.44-2.41-9.06-4.53-13.66-6.64-2.09-1-2.52-2.45-1.81-4.36s2.54-2.86,4.36-2c6.19,2.94,12.37,6,18.33,9.31C103.37,166,104.05,169.32,103.65,172Z"/><path class="cls-1" d="M335.13,342.71c1.34,6.44-5.06,7.09-7.89,10.39-1.07,1.25-3.25,1.53-2.48,4a3.9,3.9,0,0,0,5.89,2c2.67-1.82,4.54-4.84,7.93-5.49a3.63,3.63,0,0,1,2.77,1.05,1.93,1.93,0,0,1-.32,2.84c-2.52,2-5.18,3.88-7.69,5.93-1.33,1.09-2.91,2.25-.78,4.21,1.69,1.55,2.55,4.64,5.77,1.84,2.72-2.36,5.76-4.33,8.7-6.43a2.11,2.11,0,0,1,2.88.06c1.13,1.11,1.75,2.84.55,3.83-5,4.12-10.22,8-15.32,11.94-1.87,1.47-2.7-.39-3.35-1.22-5.12-6.53-10.07-13.2-15.08-19.82-.91-1.2-1.8-2.84-.26-3.72,6.35-3.63,10.22-11.48,18.88-11.16Z"/><path class="cls-1" d="M359.22,323c-1.18,5.67,4.22,6.9,6.89,9.81,5.78,6.32,6.26,13,.68,18.91s-11.76,6.13-18.06,1.07c-4.4-3.54-7.72-8.55-13.6-10.11l.2.21c2.33-8,2.89-8.19,8.38-3.54,3.57,3,7,6.33,10.84,8.91,4.13,2.75,8.36.89,10.51-3.69,1-2.19-.14-3.61-1.37-4.74-4-3.67-8.23-7-12.19-10.67-5-4.62-4.43-5.84,3.54-8.15l-.23-.19c.1,3.58,2.38,2.91,4.6,2.36Z"/><path class="cls-1" d="M143.17,122.09c-1.82,0-3.59,0-5.12-1.33-6-5-9.63-11.8-14.41-17.72-1.51-1.87.81-3.06,2.17-4.17s2.72-.63,3.65.62c2.38,3.19,4.61,6.49,7,9.68a28.6,28.6,0,0,0,4.21,5c2.91,2.44,6.1,2,8.93-.26s2.72-5.07.84-7.78c-3.29-4.76-6.72-9.43-10.2-14.05-1-1.26-1.64-2.2-.21-3.54s2.92-2.69,4.61-1C150,93,155,99,157.78,106.06,160.65,113.47,152.09,122.37,143.17,122.09Z"/><path class="cls-1" d="M409.68,356.73a8.44,8.44,0,0,0-9.18,9.83c.29,1.68,1.81,3.22,1.89,4.87,0,1.11-1.27,2.52-2.31,3.4-1.58,1.33-2.58-.09-3.36-1.28-4.94-7.52-9.78-15.09-14.78-22.57-1.7-2.55.44-3.91,1.31-5.72,1-2.06,2.26-2,4.33-1.4,7.87,2.37,15.88,4.27,23.7,6.76,1.31.42,5.24-.38,3.82,3.16C414.34,355.68,413.29,359.13,409.68,356.73Zm-13.75,2.95a38.64,38.64,0,0,0,3.45-3.86c1.55-2.22-1-2-1.84-2.45a24.3,24.3,0,0,0-5-1.75,2.15,2.15,0,0,0-1.84.66C390,353.23,394.4,359.63,395.93,359.68Z"/><path class="cls-1" d="M380.88,145.06c-2.39,1.63-4.06.44-5.43-1.5-.89-1.26-1.36-3,.44-3.54,8.91-2.59,17.89-5,26.87-7.33,2.37-.63,4,.58,5.52,2.45,2,2.47.06,3.93-1,5.64-4.29,6.64-8.62,13.26-12.92,19.9-.92,1.43-1.55,3.69-3.81,2.31-1.79-1.08-3.91-2.93-2-5.23,4.13-5-.35-7.69-2.45-11.22C384.6,144.1,383.2,143.51,380.88,145.06Zm19.8-4.77c-1.35-.3-2.75-1-3.13-.62-1.94,1.85-6.86-.23-6.33,4.46.16,1.32,1.56,4.39,3.12,3.39C396.82,145.93,398.43,143,400.68,140.29Z"/><path class="cls-1" d="M294.46,80.38c-4.78-1.74-7.67-.12-7.57,6.06,0,2.24-1.85,2.82-3.88,2.56-2.34-.3-3-2-2.58-3.89,1.82-8,3.72-16.06,5.77-24a3.26,3.26,0,0,1,4.14-2.54,101.69,101.69,0,0,1,12.34,3.63c5.63,2.26,7.43,5.86,6.25,11-1.08,4.68-4.86,7.36-10.47,7.4C297.37,80.58,296.28,80.47,294.46,80.38ZM298,75.74A4.82,4.82,0,0,0,302.35,71c.21-3-3.21-5.62-7.6-5.84-4.05-.2-3.31,3.07-3.45,5.26C291.1,73.67,294.07,76,298,75.74Z"/><path class="cls-1" d="M154.19,329.57c3.41.25,6.27,3.79,5.12,6-4.47,8.56-9.07,17.05-13.87,25.42-1.62,2.83-2.92.19-3.92-.92-1.34-1.48-.83-3.17-.37-5,1.48-5.93-1.63-10.2-7.52-10.5-2.06-.1-4.31,1.41-6.12-.52-.79-.84-3.14-2.1-1.29-3.18C135.17,335.62,145.35,333.37,154.19,329.57ZM146.14,347c1.15-2.41,2.23-4.34,3-6.39.44-1.18-.65-2-1.68-2.08-2.65-.23-5.27,1-5.95,3.23C141.19,342.8,144,344.76,146.14,347Z"/><path class="cls-1" d="M291.35,277.13c3.49.27,7.68,2.36,12.06,3.9,12.6,4.41,24.23,10.79,35.85,17.19,2,1.08,4.11,2.71,1.73,4.89-2,1.81-3.09,6.81-7.5,3.35-14-11-29.67-18.94-45.5-26.71-.92-.45-1.76-1.05-2.64-1.58.92-1.4,2.37-.93,3.66-1C289.37,277.11,289.73,277.13,291.35,277.13Z"/><path class="cls-1" d="M246.82,373.41c2.4-.18,4.39.27,5.33,3.56a126.92,126.92,0,0,0,5,13,2,2,0,0,0,1.61.92,2.13,2.13,0,0,0,1.5-1.19c1.06-4.17,2.15-8.33,2.9-12.56.41-2.34,1.29-4.17,3.4-5.17a3.94,3.94,0,0,1,4.08.13c1.15.8.56,1.82.28,2.85-2.15,8-4.09,16-6.46,23.88-.74,2.46-1.24,5.44-5.5,5.37s-4.68-2.79-5.67-5.33c-2.85-7.35-5.41-14.81-8.32-22.13C244.11,374.72,243.71,373.52,246.82,373.41Z"/><path class="cls-1" d="M273.87,395.85a117.64,117.64,0,0,0,2.63-22.05,4.71,4.71,0,0,1,3.83-4.68,4.93,4.93,0,0,1,5.69,2c4.73,6.81,9.55,13.56,14.22,20.41.82,1.2,3.21,2.49.57,4.31-1.95,1.35-4.28,2.36-5.47-.3-2.27-5.1-5.51-3.77-9.55-2.71-3.11.81-5.61,1.06-5.24,5.08.24,2.6-1,4.15-3.74,4.06C272.45,401.84,274.46,398.48,273.87,395.85Zm10.79-7.43c1.43-.19,3.19-1.15,2.8-3.21-.49-2.58-2.09-6.28-4.14-6.17-2.51.13-2.26,3.87-2.35,6.36C280.89,387.63,281.92,388.65,284.66,388.42Z"/><path class="cls-1" d="M129.78,364.57c-7.79,0-13.89,5.31-21.22,6.8-1.71.34-3.28,1.35-5,1.91a4.86,4.86,0,0,1-5.73-1.72c-1.55-1.87-2-3.84-.63-5.92,2.9-4.51,6-8.91,8.76-13.49,1.79-2.94,4.92-5.37,4.08-9.46l-.22.22c7.33.66,8.34,1.85,5.39,7-2.5,4.34-5.48,8.4-8.2,12.62a5.19,5.19,0,0,0-.37,1.62c.65.13,1.42.55,1.95.35,4.33-1.65,8.59-3.49,12.93-5.14,5.75-2.18,5.93-2,8,5.48Z"/><path class="cls-1" d="M361.62,375.75c.35-1.71-3.08-2.55-1.16-4.53,4.8-5,9.64-9.9,14.58-14.73,1.48-1.44,3.34-1.27,4.84.21s.49,2.8-.63,3.65c-4.95,3.76-2.33,6.52.95,9.48s6.26,6.08,9.41,9.1c2,1.88,3.58,3.57.82,6.23-3,2.88-4.43.17-6.2-1.41-1.36-1.21-2.6-2.55-3.91-3.8-2.89-2.77-5.46-6-8.77-8.14-4.44-2.84-5.61,5.49-10.17,3.71Z"/><path class="cls-1" d="M413.83,154.36a13.88,13.88,0,0,0-.8-1.79c-1.3-2.24-2.92-4.84.42-6.31,2.61-1.15,3.63,1.75,4.64,3.46,2.91,4.94,5.62,10,8.33,15.05.47.87,1,1.91-.25,2.81s-3.45,1.35-3.92.4c-3.84-7.83-8.46-3.64-13-1.11-3.13,1.73-6.22,3.53-9.39,5.19-1.69.9-3.66,3.38-5.27.18-1.21-2.4-1.13-4.86,1.87-6.36,3.85-1.92,7.62-4,11.41-6a49.18,49.18,0,0,0,4.6-2.72C413.28,156.55,414.24,155.84,413.83,154.36Z"/><path class="cls-1" d="M326.52,381.63a5.73,5.73,0,0,1-.33,1.89,3.73,3.73,0,0,1-1.52,1.48c-5.12,2.58-10.45,7.34-15.38,7s-5.29-8.32-8-12.74a104.33,104.33,0,0,1-4.9-9.6c-1.29-2.68-.75-5,2-6.34,3.09-1.55,3.51,1.08,4.39,3,2.41,5.2,4.74,10.43,7.29,15.56,1.05,2.13,2.7,3.17,5.26,1.72a63.23,63.23,0,0,1,7.79-3.61C324.62,379.34,325.89,380,326.52,381.63Z"/><path class="cls-1" d="M396.35,327.53c.74.38,1.68.91,2.64,1.37,3.89,1.89,7.76,3.8,11.67,5.64,6.61,3.1,6.36,2.91,10.11-2.62,1.66-2.43,1.56-9,6.79-5.71,3.81,2.41-.84,5.7-2,8.21-7,14.79-4.83,12.48-18.47,6.14-4.24-2-8.28-4.36-12.51-6.34-2-1-2.89-2-1.68-4.06A4.55,4.55,0,0,1,396.35,327.53Z"/><path class="cls-1" d="M322.28,70.76c.27,3-1.63,5-2.49,7.37-1.23,3.37-2.93,6.56-4.19,9.92-1,2.56-1,4.94,2.48,5.89A17.69,17.69,0,0,1,323,96.23c1.68,1.09,4.56,1.92,3.36,4.67s-3.61,1.48-5.64.8c-15.79-5.25-16.18-6.19-9.35-21.59,1.6-3.61,3-7.3,4.59-10.91.9-2,2.71-2.35,4.54-1.64A2.6,2.6,0,0,1,322.28,70.76Z"/><path class="cls-1" d="M398.5,124a6.71,6.71,0,0,1-1.2,1.71,2.51,2.51,0,0,1-2.92,0c-6.87-3.65-6.93-3.67-12.12,1.15-3.19,3-6.26,6-9.31,9.13-2.1,2.13-3.65,1.24-5.42-.52-2.12-2.11-.07-3.17,1-4.25,3.53-3.63,7.09-7.26,10.87-10.63,3.36-3,5.91-5.68.77-9.32a2.54,2.54,0,1,1,3.25-3.87c4.89,4.83,9.69,9.77,14.46,14.72C398.29,122.56,398.3,123.39,398.5,124Z"/><path class="cls-1" d="M70.46,252.71c-4,0-8,0-11.95,0-2.54,0-4.34-1.42-4.54-3.69a3.79,3.79,0,0,1,4-4.15c8.32-.08,16.65,0,25,.15,2.35,0,2.91,1.67,3,3.63.09,2.43-.53,4.21-3.5,4.17-4-.07-8,0-11.94,0Z"/><path class="cls-1" d="M352.76,288.2c-.23,2.63-3.51,4.26-6.24,3-9.37-4.38-18.38-9.54-28.2-12.95a15,15,0,0,1-3.73-2,2.11,2.11,0,0,1-.6-1.86c.16-.55,1.05-1.39,1.45-1.3,12.55,2.67,24.8,6.27,36.11,12.51A2.1,2.1,0,0,1,352.76,288.2Z"/><path class="cls-1" d="M158.25,216.75c.17,2.7-.89,4.1-3.8,3.74-1.44-.17-2.91-.16-4.36-.21l-17.44-.59c3.49-5.09,9.78-5.69,14.41-9,2.62-1.84,5.34-3.52,8-5.28A24,24,0,0,1,158.25,216.75Z"/><path class="cls-1" d="M129.55,364.8c7.62,2,8.24,3,4.06,7.43-5,5.28-10.23,10.39-15.44,15.48-1.73,1.69-3.82,2.26-5.65.09-1.42-1.7-.77-3.45.56-4.86,3-3.17,6.27-6.11,9.13-9.41,2.56-2.95,6.47-4.79,7.57-9Z"/><path class="cls-1" d="M377,102.64a6.92,6.92,0,0,1-.7,2.27c-5.53,6.63-11.16,13.18-16.68,19.83-1.95,2.34-3-.06-4.37-.66-2.14-.94-2.41-2.45-.93-4.2,5.37-6.3,10.73-12.61,16.19-18.83,1.25-1.43,3.07-2,4.8-.79A8.48,8.48,0,0,1,377,102.64Z"/><path class="cls-1" d="M204,163.33a2.29,2.29,0,0,1-1.95,2.23,3.26,3.26,0,0,1-1.08,0c-13-1.72-13.15-1.77-9-14.28,1.23-3.76.8-8,3.33-11.34.42-.55.74-1.18,1.11-1.78a5.32,5.32,0,0,1,.81,1.59,64.86,64.86,0,0,0,6.55,21.53A6.11,6.11,0,0,1,204,163.33Z"/><path class="cls-1" d="M431.27,177.05c-.29,1.15-1.11,1.52-2.17,2-7.61,3.23-15.19,6.53-22.72,10-2.94,1.34-3.94-.64-4.93-2.54-1.24-2.36.52-2.92,2.31-3.69,7.58-3.28,15.08-6.78,22.67-10C428.37,171.89,431.81,175.16,431.27,177.05Z"/><path class="cls-1" d="M241.48,165.24c2.52.52,4,.82,2.57,2.78s-2.94,4.11-4.34,6.22c-2.36,3.54-4.66,7.12-7,10.69-2.83-3.07-5.39-6.48-8.58-9.14-3.38-2.81-1.78-4.45,1-4.85C231.32,170.07,236.51,166.44,241.48,165.24Z"/><path class="cls-1" d="M430.52,279.1c-3.93,0-8-4.58-7.8-8.78.16-4,4.78-8.15,8.75-7.91,3.35.2,6.75,4.34,6.86,8.37A8,8,0,0,1,430.52,279.1Z"/><path class="cls-1" d="M77.17,270.75c0,4.3-4.2,8.6-8.14,8.39a7.83,7.83,0,0,1-7.42-7.6c-.15-4.6,3.48-9.15,7.24-9.08C73.15,262.54,77.2,266.58,77.17,270.75Z"/><path class="cls-1" d="M150,165.33c6.4,2.45,12.8,5.7,19.83,7.26,2,.44.1,1.66-.37,2.2-3,3.5-6.14,6.9-9.22,10.33-3.83-2.82-5.06-7.48-7.86-11-1.56-2-3-4.06-4.36-6.17a2,2,0,0,1-.18-1.8C148.14,165.68,149,165.65,150,165.33Z"/><path class="cls-1" d="M249.17,189.62c2.16,0,4.32-.07,6.47,0,1.59.07,4-1,4.48,1,.33,1.39-2.15,1.38-3.38,1.92-5.53,2.43-11.14,4.71-16.66,7.17-1.4.63-3,1.24-3.89.06-1.86-2.38-1.58-5.45-1.29-8.23.16-1.51,2-1.64,3.48-1.61,3.6.07,7.19,0,10.79,0Z"/><path class="cls-1" d="M217.54,170.14c-2.1-1.11-4.67-1.89-6.36-3.55s.47-3.12,1.56-4.44a7.87,7.87,0,0,1,.71-.82c4.3-3.75,4.28-11.33,11.26-12.7-1.79,6.72-3.56,13.45-5.44,20.15C219.13,169.29,218.27,169.59,217.54,170.14Z"/><path class="cls-1" d="M182.67,164.79c-.75,3.54-4.18,3.8-6.59,4.61-2.19.74-2.33-2-2.55-3.68a16.72,16.72,0,0,0-.24-2.13c-1-4.26-2.15-8.51-3.18-12.78a1.31,1.31,0,0,1,.85-.41c6.36,2.26,7.48,9,11.44,13.38C182.61,164,182.58,164.44,182.67,164.79Z"/><path class="cls-1" d="M145.17,189.69H153c1.76,0,4.17-.5,4.9,1.22.81,1.92,0,4.21-1.32,6.06-1.73,2.36-3.5,1.5-5.54.39a49.6,49.6,0,0,0-5.88-2.4l-10.74-4.19C138.23,187.67,142.57,190.29,145.17,189.69Z"/><path class="cls-1" d="M172.31,306.87c5.5,3.26,10.25,7.24,12.71,13.39-.35.35-.69.69-1,1.05a22.48,22.48,0,0,1-13.31-13Z"/><path class="cls-1" d="M120,115c-3.53.37-5.24-1.27-5.65-4.08-.26-1.76,1.44-2.63,2.83-2.54a5.76,5.76,0,0,1,5.35,4.59C123.06,115.19,120.72,114.51,120,115Z"/><path class="cls-1" d="M170.69,308.34c-1.46-1.46-3-2.86-4.32-4.44-.45-.53-2.11-1.31-.38-2.32a2.38,2.38,0,0,1,2.82.26,10.74,10.74,0,0,1,3.5,5Z"/><path class="cls-1" d="M185,320.26c.8.53,1.61,1.39.77,2.13s-1.41-.32-1.79-1.08C184.33,321,184.67,320.61,185,320.26Z"/><path class="cls-1" d="M228,340.68l1.61,1c-1.61,1-1.46-.17-1.42-1.19Z"/><path class="cls-2" d="M233.56,225c9.09,0,18.17.09,27.26-.05,3.33,0,4.38,1.33,4.34,4.51-.12,10.17-.05,20.35-.06,30.52,0,1.78.26,3.78-2.35,4s-4-1.09-3.8-3.83c.09-1.45,0-2.91,0-4.36-.13-13.41-.13-13.41-14-13.58-10.36-.12-10.36-.12-10.53,10.09-.12,7.2-4.67,9.89-10.85,5.94-3.91-2.5-7.43-6.07-8.75-10.6-2-6.74-4.38-11.94-12.7-12.38-4.25-.22-2-4.61-2.32-7.12-.36-3,2-3.18,4.32-3.17,9.81,0,19.62,0,29.43,0Z"/><path class="cls-2" d="M175.5,244.48c4.37,1.53,5.3-2.85,7.77-4.55,1.92-1.32,4-2.44,5.7-.13,2.86,3.8,8.6,4.29,10.42,9.08.9,2.35,2.6,2,4.35,2.06,4.78.09,5.12,3.42,4.55,6.84s-3.75,5-7.57,3.44c-2-.82-3.58-2.12-6-1.55-3.72.89-6.79-.17-10.09-2.41-5-3.39-8.87-1-9.24,5.16a10.75,10.75,0,0,0,.76,3.09c.82-.48,1.63-1,2.46-1.43,5.69-3.12,8.92-2.3,11.39,2.79,1.85,3.83-.45,6.13-2.95,8.39s-5.41,2.41-7.67-.14a40.39,40.39,0,0,0-10.1-8.54c-6.22-3.64-5-12.48,2.22-15.13,4.5-1.65,4.36-3.84,4.14-7.14Z"/><path class="cls-2" d="M250,211.81c7.61,0,15.23-.05,22.84.05,1.56,0,4.1-1.1,4.47.88.29,1.56-2.38,2.24-3.73,3.32-4.18,3.37-8.65,4.36-14,4.25-15.59-.31-31.18-.09-46.77-.12-1.27,0-3.23.61-3.52-.85-.16-.79,1.66-2.17,2.79-3a22.37,22.37,0,0,1,15.07-4.47c7.59.47,15.22.12,22.84.12Z"/><path class="cls-2" d="M361.65,390.78c.88.28,2.14.75,1.23,1.73s-1.52-.22-1.85-1.13Z"/><path class="cls-2" d="M89.79,331.38c.44-.93,1.19-1.9,2.1-1s-.17,1.61-1,2.09Z"/><path class="cls-2" d="M175.81,86.73c1,.25,2.09.89,1.13,1.79s-1.47-.31-1.71-1.24Z"/><path class="cls-2" d="M369.68,305.72c1.34,0,2.53,1.17,2.85,3.21.43,2.7-1.17,4.79-2.16,7.12-1.23,2.89-2.7,2.73-5,1.33-2.09-1.27-5.31-1.8-3-5.33C364,309.47,364.49,305.54,369.68,305.72Z"/><path class="cls-2" d="M359.41,323.21c-2.22.55-4.5,1.22-4.6-2.36C356.79,320.77,358.9,320.44,359.41,323.21Z"/><path class="cls-2" d="M120.74,138.05c-.3,3.53-2.82,5.9-5.43,7.64-2.22,1.47-3.68-1.41-5.36-2.57a41.08,41.08,0,0,1-5.24-3.85c-2.2-2.1-5.88-3.82-2.79-7.92,3.47-4.62,6.7-5.62,11-3.13C116.7,130.46,120,133.14,120.74,138.05Z"/><path class="cls-2" d="M345.8,108.81a8.38,8.38,0,0,1-8.31-8.08c-.19-5,5.57-11.62,10.42-11.9,4.36-.25,8.75,3.4,9,7.47C357.24,101.72,350.93,108.82,345.8,108.81Z"/><path class="cls-2" d="M142.88,380.6c2,.15,8,6.2,8,8.16s-3.3,4.56-5.4,4.24c-2.92-.43-7.46-4.82-7.2-6.95C138.47,384.73,142,380.53,142.88,380.6Z"/><path class="cls-2" d="M160.1,411.88c0-7.32,4.5-12.49,10.57-12.23,5.05.22,7.28,2.85,7.24,8.55,0,6.83-4.13,11.63-10,11.66C162.77,419.89,160.08,417.15,160.1,411.88Z"/><path class="cls-2" d="M424.85,194c6.43-.06,9,2.15,9,7.85s-4.81,9.53-11.8,9.64c-5.1.08-9.33-3.45-9.67-8.05C412.05,199.1,418.66,194.1,424.85,194Z"/><path class="cls-2" d="M395.93,359.68c-1.53-.05-5.89-6.45-5.23-7.4a2.15,2.15,0,0,1,1.84-.66,24.3,24.3,0,0,1,5,1.75c.88.44,3.39.23,1.84,2.45A38.64,38.64,0,0,1,395.93,359.68Z"/><path class="cls-2" d="M400.68,140.29c-2.25,2.7-3.86,5.64-6.34,7.23-1.56,1-3-2.07-3.12-3.39-.53-4.69,4.39-2.61,6.33-4.46C397.93,139.3,399.33,140,400.68,140.29Z"/><path class="cls-2" d="M298,75.74c-3.95.25-6.92-2.07-6.72-5.35.14-2.19-.6-5.46,3.45-5.26,4.39.22,7.81,2.87,7.6,5.84A4.82,4.82,0,0,1,298,75.74Z"/><path class="cls-2" d="M146.14,347c-2.1-2.26-4.95-4.22-4.65-5.24.68-2.27,3.3-3.46,5.95-3.23,1,.08,2.12.9,1.68,2.08C148.37,342.68,147.29,344.61,146.14,347Z"/><path class="cls-2" d="M284.66,388.42c-2.74.23-3.77-.79-3.69-3,.09-2.49-.16-6.23,2.35-6.36,2.05-.11,3.65,3.59,4.14,6.17C287.85,387.27,286.09,388.23,284.66,388.42Z"/><rect class="cls-3" width="500" height="500"/></g></g></svg>