<svg xmlns="http://www.w3.org/2000/svg" viewBox="0 0 500 500"><defs><style>.cls-1{fill:none;}</style></defs><g id="Calque_2" data-name="Calque 2"><g id="Calque_1-2" data-name="Calque 1"><g id="uDeZow"><path d="M169.92,466.71V337.79H5v-32c1.19-.09,2.1-.22,3-.22q222.42,0,444.84-.18c5.2,0,5.95,1.67,5.94,6.26q-.27,75.09-.14,150.2c0,3,.11,5-4.14,5q-139.14-.24-278.27-.19Zm256.41-35.42c.12-1.88.28-3.28.28-4.68,0-27.59-.13-55.19.07-82.78,0-4.73-1-6.28-6.07-6.24-27.91.26-55.82.12-83.73.11q-65.7,0-131.38-.06c-7.16,0-7.12,0-7.12,7.33,0,26.95.14,53.9-.11,80.85,0,4.54,1.23,5.58,5.58,5.56,36.89-.16,73.79-.09,110.68-.09Z"/><path d="M495,264.88H134.1L313.85,33.1l70.45,91,1-.49V52.09H433c.11,1.77.34,3.76.34,5.76,0,38.83.25,77.66-.22,116.48-.1,8.13,2.45,14.15,7.3,20.23,13.77,17.24,27.13,34.8,40.67,52.23,3.73,4.79,7.5,9.54,11.24,14.32C493,262.06,493.7,263.07,495,264.88ZM314.57,85.61,200.08,232.49H429Z"/></g><rect class="cls-1" width="500" height="500"/></g></g></svg>