<svg xmlns="http://www.w3.org/2000/svg" xmlns:xlink="http://www.w3.org/1999/xlink" viewBox="0 0 500 500"><defs><style>.cls-1{fill:none;}.cls-2{clip-path:url(#clip-path);}.cls-3{fill:#19569b;}.cls-4{fill:#fae02f;}</style><clipPath id="clip-path"><rect class="cls-1" x="5" y="7.95" width="490" height="489.19"/></clipPath></defs><g id="Calque_2" data-name="Calque 2"><g id="Calque_1-2" data-name="Calque 1"><g id="surface1"><g class="cls-2"><path class="cls-3" d="M232.05,35.21,249.17,9.14l17.19,26.11,21-23.1,12.78,28.42,24.45-19.49,8.22,30.1L360,35.76l3.39,31,29.25-11-1.43,31.14,30.49-6.26-6.24,30.56,31.11-1.48-11,29.22,31,3.44-15.49,27.08,30.13,8.28-19.5,24.34L490.16,215l-23.11,21,26.16,17.13-26.16,17.18,23.1,21-28.42,12.86,19.46,24.36-30.06,8.25,15.46,27.14-31,3.39,11.05,29.17-31.2-1.4,6.28,30.58-30.57-6.31,1.47,31.18-29.2-11.08-3.48,31.06L332.83,455l-8.24,30.1-24.41-19.48L287.4,494.06,266.34,471l-17.17,26.18L232.07,471l-21,23.13-12.93-28.45-24.32,19.5L165.55,455,138.44,470.5l-3.45-31-29.18,11,1.46-31.2-30.6,6.37L83,395.09l-31.17,1.38,11.06-29.13-31-3.47L47.3,336.75,17.15,328.5l19.51-24.36L8.24,291.28l23.08-21.06L5.26,253.15l26-17.18-23-21,28.36-12.84L17.17,177.73l30.13-8.28L31.81,142.34l31.07-3.43L51.8,109.71,83,111.13,76.67,80.59l30.56,6.29-1.44-31.15,29.16,11,3.52-31,27.06,15.45,8.28-30.1,24.36,19.48L211,12.13l21,23.08"/></g><path class="cls-4" d="M249.21,399.06c80.56.06,145.93-65.31,146-146a146,146,0,1,0-146,146Zm-215-145.91c0-118.75,96.31-215,215-215s215.07,96.3,215.05,215-96.26,215-215,215.05-214.95-96.34-215-215"/><path class="cls-4" d="M232,125.56h13.17L249.21,113l4.13,12.54,13.18,0-10.65,7.79,4.15,12.5-10.79-7.67-10.57,7.73,4-12.56L232,125.56"/><path class="cls-4" d="M171.36,141.82l13.23,0,4-12.57,4.07,12.55,13.25-.06-10.72,7.82,4.07,12.54-10.57-7.77-10.68,7.84,4-12.55-10.68-7.77"/><path class="cls-4" d="M126.28,184.5l13.23-.06,4-12.47,4.19,12.52,13.19-.05-10.7,7.72,4.11,12.61L143.58,197,133,204.81l4-12.6-10.66-7.71"/><path class="cls-4" d="M109.62,248.79l13.2-.06,4.09-12.63,4,12.59,13.16,0-10.57,7.8L137.65,269l-10.72-7.68-10.71,7.85,4-12.6-10.65-7.74"/><path class="cls-4" d="M128.73,307.42l13.19,0L146,294.81l4.05,12.57H163.3l-10.61,7.74,4.08,12.55L146.09,320l-10.65,7.79,4-12.63-10.74-7.7"/><path class="cls-4" d="M168.3,350.11l13.19-.12,4.07-12.57L189.61,350l13.24,0-10.63,7.71,4.1,12.6-10.7-7.71-10.69,7.77L179,357.83l-10.7-7.72"/><path class="cls-4" d="M327,141.84l-13.29-.05-3.95-12.54-4.13,12.52-13.23-.06,10.7,7.77L299,162l10.67-7.72,10.63,7.79-4-12.56L327,141.84"/><path class="cls-4" d="M372.06,184.55l-13.13-.05-4.05-12.58-4.17,12.58-13.16-.09,10.65,7.8-4.11,12.54,10.68-7.7,10.65,7.76-4-12.6,10.67-7.66"/><path class="cls-4" d="M388.84,248.79l-13.28-.1-4-12.59-4.15,12.59-13.15-.08,10.69,7.84L360.79,269l10.73-7.8,10.54,7.84-4-12.6,10.79-7.68"/><path class="cls-4" d="M369.7,307.47l-13.3,0-4-12.62-4.13,12.59-13.15-.08,10.66,7.76-4.15,12.57L352.25,320,363,327.69l-4.07-12.53,10.8-7.69"/><path class="cls-4" d="M330.09,350.09l-13.2,0-4-12.5L308.73,350,295.58,350l10.6,7.76-4.11,12.55,10.73-7.71,10.65,7.75-4-12.51,10.67-7.74"/><path class="cls-4" d="M232,371.56h13.19l4-12.56,4.19,12.47h13.2l-10.71,7.81L260,391.81l-10.63-7.69-10.73,7.75,4-12.49L232,371.56"/><path class="cls-4" d="M212.23,267.91a302.56,302.56,0,0,0-55.67-11.19,80.74,80.74,0,0,0,1.32,12.37,318.46,318.46,0,0,1,51.25,10.56c26.85,8.07,63.75,23.32,90.58,51.18a98.78,98.78,0,0,0,9.87-7.4c-28.86-30.55-68.53-47-97.35-55.52"/><path class="cls-4" d="M213.42,296.31a275.49,275.49,0,0,0-52.52-14.79,94.75,94.75,0,0,0,5.61,13.54A280.19,280.19,0,0,1,209,307.69c19.4,7.51,43.22,20,51.62,37.42a109,109,0,0,0,12.29-2.31c-7.17-18.32-27.23-33.95-59.46-46.49"/><path class="cls-4" d="M337.85,280.25a83.39,83.39,0,0,0,2.77-11.86c-35.52-7.93-59.19-2-60.28-1.69l-.77.26c-4.46-1.94-7.78-3.34-12-5.14,15.33-3.69,40.1-7.09,74.22-3.46.05-1.74.05-3.51.08-5.26,0-2.34-.14-4.69-.22-7.06-50-5.06-80.72,4.05-92.82,8.75-2.41-.85-4.95-1.77-7.36-2.51a363.62,363.62,0,0,1,98.78-16.81,94.73,94.73,0,0,0-3.2-12.13,369.14,369.14,0,0,0-112.9,21.89l-2.71,1c-3.19-.87-2.74-.78-5.7-1.52a420.07,420.07,0,0,0-57.17-11,87.17,87.17,0,0,0-1.77,12.11,441.06,441.06,0,0,1,92,22l.17.31a1.67,1.67,0,0,1,.34-.12c24.93,9,51.58,21.56,75.57,38.65a92.63,92.63,0,0,0,6.45-10.43,290.45,290.45,0,0,0-31.9-19.53,151.91,151.91,0,0,1,38.42,3.62"/><path class="cls-4" d="M173.68,306.87a92.61,92.61,0,0,0,56.21,36.89c-17.52-29.86-46.22-35.71-56.21-36.89"/><path class="cls-3" d="M142.32,404.4a6.22,6.22,0,0,1-2.07-2.5,5.36,5.36,0,0,1-.62-3.35,6.34,6.34,0,0,1,1.16-3.13,6,6,0,0,1,2.55-2.09,6.18,6.18,0,0,1,3.32-.59,6.27,6.27,0,0,1,3.09,1.18,6.62,6.62,0,0,1,2.07,2.49,5.44,5.44,0,0,1,.59,3.37,6,6,0,0,1-1.12,3.13,6.89,6.89,0,0,1-2.57,2.07,5.59,5.59,0,0,1-3.35.51,7,7,0,0,1-3.05-1.09"/><path class="cls-3" d="M137.7,376.71,130,368.52c-8.29-8.76-16.12-5.73-19.88-2.19-6.49,6.14-5.26,13.65,1.19,20.57l7.39,7.81.44-.56c-1.87-2.36-1.87-3,.29-4.95l12.76-12.08c2-1.87,2.77-1.94,5,.08Zm-22,10.38c-.59.59-1.14,1.06-2.46-.3-3.38-3.55-4.15-5.91-4.19-8.46a11.33,11.33,0,0,1,4-8.83c8.33-7.91,15-.86,16.75,1,1.32,1.36,1.4,1.93.46,2.82l-14.61,13.73"/><path class="cls-3" d="M105.47,336.77l11.88,17.73-.64.41c-1.54-2-2.29-2.53-4.85-.85l-14.68,9.66c-2.58,1.75-2.27,2.67-1,4.87l-.63.46L83.86,351.5l4.66-3.17.6.81c-2.63,2.44-2.55,3.67-.13,7.27l3,4.46c.47.67.72,1.09,1.85.32l7.27-4.88-3.36-5.06c-1.92-2.92-3-2.67-5.61-1.54l-.44-.77,7.61-5.06.51.78c-2.37,2.19-2.43,2.92-.74,5.68l3.33,5.12,8.2-5.42c1.37-.9,1.37-.9-1.86-5.76-2.77-4.17-4.82-5.17-9.16-4.41l-.55-.93,6.47-2.17"/><path class="cls-3" d="M68.61,318.05c1.25,2.19,1.93,3.24,6.2,1.44l19-8.46.28.63L81.31,336.32l14.17-6.15c3.66-1.62,4.11-2.76,3-5.47l.74-.3,3.78,8.46-.74.39c-1.37-2.72-2.26-3.24-6.15-1.52l-15.92,7.09c-1.15,2.26-1.07,2.93-.46,4.37l-.67.34-2.79-6.23,11.3-21.51,0-.1-12.1,5.36c-4.21,1.81-4,2.92-3.12,5.51l-.62.32-3.83-8.52.71-.31"/><path class="cls-3" d="M88.35,291.64c-1.66-7-8-11.39-16.24-9.43-8.87,2.05-11.8,9.41-10.33,15.78s7.49,11.45,16.34,9.35C86.26,305.42,90,298.55,88.35,291.64ZM87,292c1.05,4.29-1.48,8.92-10,11-8.69,2.08-12.92-1.42-13.75-5.38-1-4,1.07-9,9.87-11.06,8.5-2,12.86,1.07,13.89,5.39"/><path class="cls-3" d="M57.39,243c.28,2.54.55,3.4,3.66,3.38l17.54-.6c3.08-.12,3.38-1,3.42-3.53l.86-.08.32,11.06H82.4c-.25-3-.83-3.48-4.13-3.38l-17.74.52,0,.12,22.82,9.33v.45L62.13,270.89l.06.1L78,270.44c4-.12,4.87-1,4.91-3.92h.74l.23,9.27-.61.1c-.32-3.06-1-3.87-5.25-3.73l-16.07.53c-3.12.08-3.28,1-3.39,3.87l-.78,0-.27-7.8,19.7-9.86-20.29-8.06L56.6,243l.79,0"/><path class="cls-3" d="M83.05,238.53c.29-3.3-.31-3.95-3.1-4.21l-17.42-2.19c-2.92-.35-3.42.2-4,3.36l-.68,0,1.33-11.64.81.13c-.36,2.86-.1,3.85,3,4.26l17.44,2.06c3,.43,3.56-.5,4-3.34l.8,0-1.46,11.7-.72-.12"/><path class="cls-3" d="M67.78,190.6c-.38,2.43-.61,3.74,4,4.84l20.07,5.41-.2.67L66.16,212.75l0,.12L81,216.77c4,1.1,5,.5,5.9-2.28l.7.22-2.37,9-.7-.23c.62-3,.23-3.89-3.94-5L63.76,214c-2.36,1-2.63,1.62-3.06,3.18L60,217l1.75-6.59L84,200.68v-.1l-12.78-3.35c-4.4-1.19-4.93-.24-5.87,2.38l-.69-.22,2.37-9,.73.2"/><path class="cls-3" d="M103.68,170.54c-.8,1.53-1.4,1.85-4.58,1.79l-24.58-.54-.3.73,14.15,15.65c1.26,1.39,3.37,3.77,3.85,5a2.72,2.72,0,0,1-.06,2.18l.79.35,3.24-7.13-.67-.31c-.32.75-1.11,2.4-2.67,1.73a3.73,3.73,0,0,1-1.23-.92l-3.41-3.51L92.54,176l4.06.18a8.8,8.8,0,0,1,2.69.36c1.33.61.83,1.78.18,3.16l.67.28,4.24-9.14ZM87,184.2l-7.92-8.73,11.84.41Z"/><path class="cls-3" d="M113.36,145.52l5.23,4.7-12.69,18.4-.47-.33-10-28-5,7.25C87.2,152.2,89.12,154,91,156l-.55.82-5.14-4.42,11.84-17.18.46.33,10.1,27.77,5.79-8.36c3-4.25,1.22-6.31-.64-8.72l.52-.72"/><path class="cls-3" d="M120.9,146.53c2.18-2.53,2-3.35-.1-5.23l-13.19-11.68c-2.16-2-2.88-1.83-5.14.5l-.55-.5,7.8-8.76.58.48c-1.8,2.29-2.3,3.21.08,5.25l13.09,11.74c2.3,2,3.24,1.61,5.26-.6l.53.56L121.45,147l-.55-.5"/><path class="cls-3" d="M142.1,127.08c5.43-4.65,6.48-12.32,1-18.71-5.93-6.94-13.71-6.28-18.74-2-4.93,4.13-6.82,11.86-.9,18.77C128.85,131.54,136.64,131.71,142.1,127.08Zm-.93-1c-3.36,2.82-8.75,2.7-14.34-3.82-5.87-6.89-4.6-12.23-1.52-14.84s8.45-3,14.36,3.86c5.59,6.62,4.78,11.91,1.5,14.8"/><path class="cls-3" d="M165.43,80.5c-2,1.49-3,2.19-.65,6.21l10.36,18-.53.34-26-10-.09,0,7.81,13.41c2,3.51,3.1,3.82,5.67,2.52l.39.63-8.05,4.65-.35-.64c2.48-1.63,3-2.59.74-6.25l-8.67-15.13c-2.43-.89-3-.76-4.42,0l-.38-.66,5.83-3.34,22.7,8.87h0L163.2,87.61c-2.3-3.94-3.36-3.72-5.83-2.47l-.33-.66,8.07-4.67.32.69"/><path class="cls-3" d="M200.81,94l-20,7.42-.27-.71c2.32-1,3.1-1.67,2-4.55l-6.07-16.48c-1.12-2.93-2.11-2.81-4.48-2.11l-.22-.66,19.64-7.36,2,5.31-.85.29c-1.81-3.1-3-3.34-7.09-1.78l-5,1.85c-.86.29-1.24.43-.76,1.72l3,8.25,5.72-2.16c3.3-1.19,3.36-2.23,2.71-5l.89-.35,3.22,8.66-.85.2c-1.52-2.71-2.33-3-5.42-1.92l-5.74,2,3.42,9.25c.65,1.47.61,1.54,6.12-.53,4.6-1.65,6.06-3.48,6.28-7.81l1.07-.39.65,6.86"/><path class="cls-3" d="M214.62,90.22l11.12-1.4c11.92-1.53,14.08-9.64,13.38-14.82-1.11-8.83-7.85-12.24-17.23-11.13l-10.61,1.41.08.71c3-.16,3.52.18,3.91,3.08l2.19,17.47c.34,2.73,0,3.38-3,3.93Zm4.49-23.89c-.1-.86-.21-1.57,1.61-1.81,5-.64,7.29.19,9.46,1.58a11.4,11.4,0,0,1,4.69,8.43c1.46,11.44-8.2,12.7-10.69,13-1.81.27-2.39,0-2.55-1.25l-2.52-19.9"/><path class="cls-3" d="M248.3,69.3c2.65-1.63,3.29-3.49,3.33-4.17a.6.6,0,0,0-.61-.58.47.47,0,0,1-.33,0,.93.93,0,0,1-.57.09c-1.11,0-2.45-.39-2.45-2A2.19,2.19,0,0,1,250,60.43c.84,0,3.17.57,3.09,3.85,0,2.76-3.16,5.36-4.44,5.75l-.36-.73"/><path class="cls-3" d="M273.57,89.54c7.05.94,13.57-3.26,14.82-11.6,1.32-9-4.39-14.48-10.79-15.41s-13.48,2.6-14.79,11.6C261.56,82.48,266.47,88.45,273.57,89.54Zm.25-1.46c-4.38-.6-7.81-4.67-6.57-13.27,1.36-9,6.08-11.47,10.13-10.87s7.82,4.4,6.56,13.29c-1.28,8.64-5.77,11.48-10.12,10.85"/><path class="cls-3" d="M313.87,98.85a4.33,4.33,0,0,1-2.72-2.8L306.6,84c1.95.28,7.15,1,8.91-4.07,1.85-5.78-4.07-8.6-7.41-9.68l-10.33-3.49-.3.75c2.65,1.17,3,1.63,2.12,4.42l-5.43,16.28c-.88,2.86-1.29,3.55-4.41,2.71l-.21.73,10.36,3.45.28-.75c-3-1.15-3.1-2-2.28-4.5l2.45-7.4,2.14.63,5.11,14.53,6,2.08Zm-10-27c.41-1.13.84-1.24,2.74-.57,1.58.5,6.48,2.22,4.82,7.21-1.82,5.35-7.45,3.56-10.63,2.57l3.07-9.21"/><path class="cls-3" d="M316.08,100.28c3.06,1.37,3.77.92,4.9-1.58l7.7-15.78c1.23-2.71.9-3.34-1.95-4.92l.31-.66,10.6,5.09-.33.69c-2.66-1.16-3.62-1.32-5.09,1.52l-7.55,15.82c-1.33,2.77-.65,3.54,2,4.87l-.31.71-10.65-5.15.41-.61"/><path class="cls-3" d="M359.15,110.93c-1.5-.81-2.39-1.39-3.95,1l-4.39,6.69c-.31.46-6-.54-9.58-2.94-3.32-2.17-6.28-5.58-6.94-9.63-.49-3.09-.17-5.66,2.67-10.07a13.21,13.21,0,0,1,18.55-3.58c3.39,2.22,4.13,4.28,5.18,5a2.11,2.11,0,0,0,2.29-.05l.67.49-4.29,7.13-.71-.46c.62-3,1.07-7.43-3.57-10.45-3.08-2-9.35-3.16-14.84,5.16-3.93,6-3,11.94,2.14,15.37,2.23,1.46,5.05,2.23,5.82,1.07l3.54-5.43c1.78-2.74,1.22-3.19-1.05-4.82l.46-.59,8.47,5.5-.47.64"/><path class="cls-3" d="M354.11,123.4c2.59,2.2,3.36,2,5.2-.14L370.84,110c1.89-2.16,1.79-2.94-.55-5.21l.51-.49,8.83,7.62-.51.61c-2.22-1.81-3.2-2.29-5.2.09l-11.53,13.26c-2.06,2.32-1.6,3.3.59,5.32l-.48.5-8.88-7.65.49-.65"/><path class="cls-3" d="M401.92,137c-1.82-1.65-2.79-2.53-6.25.57l-15.6,13.74-.42-.53,4.73-27.36-.06-.08-11.53,10.24c-3.09,2.68-3.16,3.83-1.36,6.11l-.59.46-6.14-7,.61-.46c2.09,2.1,3.12,2.35,6.29-.45l13.09-11.52c.41-2.61.16-3.2-.84-4.34l.53-.53,4.46,5.09-4.29,24,0,0,9.92-8.73c3.41-2.93,2.94-4,1.28-6.17l.59-.54,6.15,7-.61.45"/><path class="cls-3" d="M395.33,173.83l-11.26-18.12.56-.37c1.58,2.07,2.33,2.64,4.88,1l14.89-9.22c2.67-1.68,2.4-2.67,1.19-4.87l.63-.42,11.17,17.83-4.78,3.12-.51-.81c2.69-2.36,2.65-3.64.39-7.37l-2.88-4.48c-.35-.74-.68-1.12-1.81-.42l-7.47,4.59,3.24,5.19c1.88,3,2.89,2.82,5.49,1.72l.48.77-7.84,4.81-.43-.69c2.4-2.09,2.62-2.92.86-5.74L399,155.14l-8.3,5.27c-1.36.8-1.46.85,1.68,5.85,2.59,4.2,4.69,5.25,9,4.62l.57,1-6.59,2"/><path class="cls-3" d="M426.55,180.4c.77,2.87.38,3.42-2.27,4.35l-16.13,5.62c-2.72.94-3.62,1.22-4.87-1.81l-.78.24,3.72,10.45.64-.24c-.84-2.89-.52-3.77,2.2-4.62l6.78-2.39c.3.86.49,1.62.79,2.49,1.32,3.95,2.82,6.09,4.92,7.16a7.17,7.17,0,0,0,5.83.56c4.74-1.69,5.08-7,3.37-12.19l-3.47-9.81ZM427,188c1.21-.4,1.39,0,1.8,1.12.58,1.67,2.39,7.13-2.92,9-5.71,1.94-7.43-3-7.93-4.36a19.75,19.75,0,0,1-.64-2.31L427,188"/><path class="cls-3" d="M415.41,234.94a4.31,4.31,0,0,1,1.18-3.68l8.33-9.84c.76,1.88,2.63,6.82,7.85,5.81,6-1.12,5.63-7.66,5-11.12l-2-10.77-.77.08c.16,2.82,0,3.45-2.89,4l-16.86,3.21c-2.9.51-3.76.53-4.57-2.56l-.69.09,2.09,10.75.62-.13c-.35-3.11.29-3.63,2.9-4.11l7.72-1.47.42,2.24-10.24,11.47,1.13,6.22Zm18.86-21.86c1.11-.11,1.46.18,1.88,2.15.26,1.68,1.11,6.73-4,7.74-5.61,1-6.77-4.81-7.45-8l9.6-1.85"/><path class="cls-3" d="M414.54,250.41c.1,7.15,5.37,12.8,13.81,12.74,9.1-.14,13.59-6.68,13.49-13.19S437.1,237.07,428,237.22C419.58,237.35,414.4,243.24,414.54,250.41Zm1.42-.06c-.08-4.37,3.4-8.48,12-8.56,9.09-.17,12.38,4.19,12.44,8.22s-3,8.5-12.12,8.62c-8.73.07-12.25-3.84-12.35-8.28"/><path class="cls-3" d="M412.49,283.12l1.68-11.44.76.16c-.33,3.55.48,3.81,3.41,4.23l19.59,2.86.24-2.07c.72-4.36.08-5.49-4.05-7l.19-.95,6.59,1.21-3.25,22.06-6.65-.71.14-.92c4.4-.18,5.2-1.2,5.86-5.46l.26-2.18-20-2.93c-2.66-.34-3.45-.06-4,3.28l-.8-.14"/><path class="cls-3" d="M404.46,312.42l6.44-20.3.76.25c-.62,2.42-.52,3.41,2.39,4.32L430.8,302c2.9,1,3.39.12,4.37-2.23l.7.22L429.52,320l-5.38-1.6.28-.89c3.57.5,4.48-.4,5.84-4.52l1.6-5.09c.26-.84.36-1.31-.92-1.69l-8.42-2.65-1.73,5.76c-1.09,3.41-.31,4.1,2.22,5.34l-.29.89L414,312.83l.33-.89c3.09.49,3.73.17,4.86-3l1.88-5.82-9.33-3c-1.54-.47-1.62-.47-3.27,5.19-1.58,4.63-1,6.93,2.23,9.75l-.26,1.12-6-3.8"/><path class="cls-3" d="M394.86,332.86l5.22-10.37.67.36c-1.5,3.27-.73,3.85,1.88,5.09l17.66,8.89.93-1.87c2-3.9,1.76-5.18-1.64-7.91l.39-.81,5.95,3.22-10.08,19.91-6.12-2.84.49-.77c4.17,1.17,5.32.54,7.35-3.38l.91-1.91-18-9.09c-2.45-1.25-3.37-1.09-4.93,1.83l-.7-.35"/><path class="cls-3" d="M380.34,355l6.78-9.33.57.42c-1.95,3-1.22,3.59,1.07,5.35l16,11.53,1.3-1.71c2.5-3.48,2.58-4.78-.47-8.1l.59-.73,5.3,4.15-13,18-5.63-3.76.57-.69c4,1.83,5.24,1.35,7.73-2.15l1.35-1.68L386,354.39c-2.15-1.56-2.95-1.62-5,1l-.63-.39"/><path class="cls-3" d="M360.51,378c1.19-1.21,2-1.26,5-.18l23,8.3.57-.58-8.38-19.31c-.78-1.74-2.07-4.6-2.11-6a2.57,2.57,0,0,1,.79-2l-.57-.55-5.42,5.73.55.47c.62-.63,1.88-2,3.06-.83a8,8,0,0,1,.87,1.3l2.14,4.51-7.2,7.52-3.86-1.44a9.31,9.31,0,0,1-2.32-1.21c-1.05-1-.17-2,.84-3.08l-.56-.45-6.95,7.27Zm20.17-7.56,4.74,10.8-11.08-4.15Z"/><path class="cls-3" d="M350.36,394.3a5.33,5.33,0,1,1,6.16,8.69,5.24,5.24,0,0,1-7.41-1.26,5.33,5.33,0,0,1,1.25-7.43"/></g><rect class="cls-1" width="500" height="500"/></g></g></svg>