<svg xmlns="http://www.w3.org/2000/svg" viewBox="0 0 500 500"><defs><style>.cls-1,.cls-3{fill:none;}.cls-2{fill:#ec1c24;}.cls-2,.cls-4{fill-rule:evenodd;}.cls-3{stroke:#ec1c24;stroke-miterlimit:10;stroke-width:1.36px;}.cls-4{fill:#fff;}</style></defs><g id="Calque_2" data-name="Calque 2"><g id="Calque_1-2" data-name="Calque 1"><rect class="cls-1" width="500" height="500"/><g id="surface1"><path class="cls-2" d="M18,259.31c0,83.35,71.9,147.5,188.51,147.5S482,348.05,482,219.15,325.53,78.25,292.3,78.25C155.75,78.25,18,146,18,259.31"/><path class="cls-3" d="M5,260.26C5,348.26,80.93,416,204.06,416S495,354,495,217.84,329.75,69.05,294.66,69.05C150.47,69.05,5,140.6,5,260.26"/><path class="cls-4" d="M33.88,235.46c.24,0,.48,0,.71.08,5.24.73,7.85,3.13,7.42,6.23s-3.6,4.66-8.55,4-7.56-3.16-7.1-6.36c.3-2.19,1.88-3.58,4.55-3.95l.89,2.82c-1.54,0-2.38.54-2.54,1.6-.22,1.61,1.31,2.49,4.61,3s5.08-.11,5.28-1.58c.18-1.28-.85-2.24-3-2.54l-.36,2.63-2.71-.38.77-5.47"/><path class="cls-4" d="M38.55,231.39c-2.32-.95-4.55-1.82-6.69-2.64,2.44.35,4.82.6,7.16.71Zm4,5,.7-2.89-2.53-1.07.71-2.89,2.76.14.69-2.88-15.79-.4-.73,3,14.19,7"/><path class="cls-4" d="M37.81,220.63l-4.06-1.36a3.08,3.08,0,0,1,.11-.39c.43-1.24,1.22-1.56,2.61-1.1s1.89,1.33,1.47,2.54A2,2,0,0,1,37.81,220.63Zm7.38,5.5.92-2.73-6.07-2,6.85-.26,1-3-7.59.48c0-1.7-1-2.83-3.08-3.51-3-1-4.62.07-5.69,3.2l-1,2.93,14.64,4.89"/><path class="cls-4" d="M44.65,212.88c-2.11-1.32-4.16-2.58-6.13-3.74,2.33.76,4.65,1.41,6.93,1.93Zm3.09,5.67,1.19-2.73-2.29-1.49,1.19-2.73,2.69.62,1.19-2.71-15.48-3.12L35,209.25l12.76,9.3"/><path class="cls-4" d="M38.53,201.46,40,198.82l8.76,1.35c.49.08,1.58.32,3.23.72a41,41,0,0,1-5.11-2.26l-5.19-2.83L43,193.38l13.54,7.38-1.34,2.42-9.15-1.28c-.27,0-1.15-.27-2.59-.64a45.36,45.36,0,0,1,4.23,2.08l5.7,3.11-1.33,2.39-13.53-7.38"/><path class="cls-4" d="M47.92,191l-1.26,1.89-2.39-1.56,4.17-6.28,2.39,1.56-1.25,1.89,10.51,6.87-1.66,2.49L47.92,191"/><path class="cls-4" d="M49.76,183.32l1.81-2.44L64,190l-1.81,2.43-12.43-9.08"/><path class="cls-4" d="M53.43,178.43l4-4.84,2.21,1.8L57.48,178l2.42,2,2-2.37,2.2,1.78-2,2.37,2.8,2.27,2.16-2.61,2.33,1.89-4,4.84-12-9.7"/><path class="cls-4" d="M73.05,170.81l-.17,2.1,2.4.16c-.1.12-.2.25-.31.36-1,1-2.71.49-5-1.74-2.51-2.46-3.25-4.19-2.14-5.3s2.82-.43,5.19,1.91a11.81,11.81,0,0,1,2.11,2.64Zm7.42.46-2.31-.13c-.14-1.5-1.11-3.07-2.87-4.83-3.73-3.68-7.15-4.29-9.48-2s-1.69,5.68,1.75,9.08c3.68,3.64,7.13,4.29,9.44,2a4.08,4.08,0,0,0,1.23-2.11l2.13.14.11-2.16"/><path class="cls-4" d="M85,160.19a9.08,9.08,0,0,1,2.14,3.1c.43,1.61-.15,3-1.75,4.39s-3.09,1.78-4.63,1.13a9.26,9.26,0,0,1-2.8-2.52L71.58,159l2.25-1.95,6.53,7.44c1.31,1.49,2.06,2.16,3.25,1.12s.69-1.79-.69-3.34l-6.53-7.44,2.23-1.93L85,160.19"/><path class="cls-4" d="M89.41,157.55q-1.81-3.26-3.57-6.2c1.69,1.78,3.39,3.45,5.15,5Zm0,6.43,2.37-1.8-1.3-2.41,2.37-1.83,2.06,1.82,2.37-1.82-12.09-10.1-2.48,1.91L89.38,164"/><path class="cls-4" d="M89.11,144.93l2.42-1.7L98.7,153.3l2.78-2,1.74,2.44L98,157.44l-8.91-12.51"/><path class="cls-4" d="M95.7,140.37l2.55-1.66,8.51,12.78-2.54,1.67L95.7,140.37"/><path class="cls-4" d="M103.34,138.84l-2,1.18-1.49-2.4,6.45-4,1.5,2.42-1.95,1.19,6.61,10.63L110,149.47l-6.61-10.63"/><path class="cls-4" d="M109.85,130.06l-1.19.67-.28-4.32,2.2-1.23ZM108,132.72l5.48-3.1,1.42,2.48-3,1.66,1.54,2.69,2.68-1.51,1.41,2.44-2.68,1.52,1.78,3.12,3-1.67,1.49,2.59-5.48,3.11L108,132.72"/><path class="cls-4" d="M124.81,136.77a3.33,3.33,0,0,0,2.43-.09,1.46,1.46,0,0,0,.77-2.09c-.49-1-1.39-1-2.55-1.33-2.08-.6-3.33-1.27-4.19-3-1.2-2.36-.59-4.66,1.51-5.72a5.15,5.15,0,0,1,2.61-.45l1.22,2.42a5,5,0,0,0-2.09.27,1.41,1.41,0,0,0-.64,2c.47.93,1.38,1.18,2.74,1.54,1.89.49,3.1.89,4.07,2.8,1.25,2.46.6,4.76-1.8,6a4.5,4.5,0,0,1-2.64.5l-1.44-2.84"/><path class="cls-4" d="M140,127.35a9,9,0,0,1,1.15,3.56c0,1.67-1,2.84-2.93,3.71s-3.46.85-4.77-.22a9.25,9.25,0,0,1-2-3.2l-4-8.74,2.71-1.24,4.14,9c.84,1.8,1.36,2.65,2.8,2s1.16-1.52.29-3.39l-4.14-9,2.69-1.22,4.06,8.76"/><path class="cls-4" d="M143.72,122.57l-1.65-3.94c.1,0,.19-.09.29-.13,1.24-.51,2.06-.1,2.62,1.22s.2,2.27-1,2.75C143.91,122.51,143.8,122.53,143.72,122.57Zm.67,9.12,2.68-1.1-2.46-5.88a5.16,5.16,0,0,0,.63-.23c2.58-1.06,3.43-3.21,2.32-5.87s-3.19-3.5-6.22-2.25l-2.87,1.17,5.92,14.16"/><path class="cls-4" d="M149.89,111.47l-1.27.49.39-4.31,2.35-.9Zm-2.25,2.35,5.89-2.23,1,2.66-3.18,1.19,1.1,2.9,2.9-1.09,1,2.64L153.49,121l1.28,3.36,3.18-1.21,1.08,2.8-5.89,2.22-5.5-14.32"/><path class="cls-4" d="M160.67,116.12l-1.4-4,.37-.15c1.25-.44,2,0,2.48,1.37s.1,2.29-1.12,2.71Zm.15,9.15,2.74-1-2.11-6,4.41,5.21,3-1-5-5.65c1.35-1,1.62-2.54.91-4.58-1-2.91-2.89-3.57-6-2.48l-2.94,1,5.08,14.48"/><path class="cls-4" d="M165.37,107.53l2.89-.93L173,121.19l-2.9.93-4.72-14.59"/><path class="cls-4" d="M171,105.75l6-1.79.82,2.72-3.26,1,.89,3,3-.87.81,2.69-3,.88,1,3.44,3.27-1,.86,2.87-6,1.78L171,105.75"/><path class="cls-4" d="M190.74,110.23a9.15,9.15,0,0,1,.55,3.7c-.32,1.64-1.47,2.64-3.52,3.18s-3.56.26-4.66-1a9.3,9.3,0,0,1-1.4-3.49l-2.51-9.3,2.87-.76,2.59,9.53c.51,1.91.89,2.83,2.41,2.43s1.41-1.31.87-3.3l-2.58-9.53,2.87-.76,2.51,9.3"/><path class="cls-4" d="M195.13,106.1l-1-4.14.38-.12c1.29-.29,2,.2,2.33,1.62s-.14,2.29-1.39,2.59Zm-.8,9.12,2.82-.67-1.48-6.19,3.85,5.64,3.06-.73-4.42-6.14c1.45-.89,1.87-2.36,1.37-4.45-.72-3-2.51-3.84-5.74-3.09l-3,.72,3.57,14.91"/><path class="cls-4" d="M200.56,98l6.16-1.3.59,2.78-3.32.7.64,3,3-.64.58,2.76-3,.63.75,3.52,3.32-.71.63,2.93-6.17,1.3-3.19-15"/><path class="cls-2" d="M251.19,433.46V425h.69c3.09,0,4.62,1.21,4.62,4.26s-1.49,4.24-4.62,4.24Zm-4.07,3.44h4.19c2.5,0,4.58-.09,6.46-1.44a7.32,7.32,0,0,0,2.89-6.24,7.24,7.24,0,0,0-2.89-6.23c-2-1.43-4.23-1.46-7-1.46h-3.62V436.9"/><path class="cls-2" d="M267.72,419.9h-1.57l1.86-3.68h2.89Zm-4.49,1.63h9.19v3.37h-5.2v2.66h4.91v3.29h-4.91v2.61h5.2v3.44h-9.19V421.53"/><path class="cls-2" d="M286,426.7a4.5,4.5,0,0,0-3.48-1.84c-2.37,0-3.95,1.84-3.95,4.45a4,4,0,0,0,3.95,4.28,4.51,4.51,0,0,0,3.48-1.85v4.58a8.63,8.63,0,0,1-3.89,1c-4.43,0-7.64-3.41-7.64-8.06s3.21-8.06,7.64-8.06a8.64,8.64,0,0,1,3.89,1v4.57"/><path class="cls-2" d="M292.18,428.79v-4.05H293c1.7,0,2.47.53,2.47,2.14,0,1.35-.82,1.91-2.54,1.91Zm-3.84,8.11h3.84v-6l3.44,6h4.62l-4.1-6.2a4,4,0,0,0,3.37-4.38,4.63,4.63,0,0,0-1.68-3.77c-1.28-1-2.88-1-4.95-1h-4.54V436.9"/><path class="cls-2" d="M301.8,421.53H311v3.37h-5.21v2.66h4.92v3.29h-4.92v2.61H311v3.44h-9.2V421.53"/><path class="cls-2" d="M315.88,425.16h-3.34v-3.63h10.8v3.63H320V436.9h-4.09V425.16"/><path class="cls-2" d="M336,433.46V425h.7c3.08,0,4.62,1.21,4.62,4.26s-1.5,4.24-4.62,4.24Zm-4,3.44h4.18c2.5,0,4.58-.09,6.45-1.44a7.35,7.35,0,0,0,2.9-6.24,7.27,7.27,0,0,0-2.9-6.23c-2-1.43-4.23-1.46-7-1.46h-3.6V436.9"/><path class="cls-2" d="M352,421.53v8.33c0,2.74.48,3.92,2.61,3.92,2.5,0,2.61-1.59,2.61-4.89v-7.36h4.07v9.13c0,4.65-1.91,6.64-6.68,6.64-2.54,0-4.31-.6-5.38-1.86-1.19-1.41-1.3-3.21-1.3-5.62v-8.29H352"/><path class="cls-2" d="M374.42,425.16h-3.23l1.77-3.49h5.19V436.9h-3.73V425.16"/><path class="cls-2" d="M382.9,436.9l6.74-8.17a4.16,4.16,0,0,0,1.2-2.47,1.72,1.72,0,0,0-1.81-1.83c-1.25,0-2,.86-2,2.45v.19h-3.62V427c0-3.49,2.17-5.61,5.57-5.61s5.53,2.05,5.53,4.88c0,1.61-.74,2.85-2,4.34l-2.71,3.05h4.6v3.27H382.9"/><path class="cls-2" d="M398.91,433a2.13,2.13,0,0,1,0,4.26,2.13,2.13,0,0,1,0-4.26"/><path class="cls-2" d="M406.85,429.33c0-3.27.53-4.84,1.92-4.84s1.88,1.59,1.88,4.84-.52,4.83-1.88,4.83S406.85,432.57,406.85,429.33Zm7.59.15c0-5.23-2.14-8.1-5.67-8.1s-5.7,2.92-5.7,7.95,2.23,8,5.7,8,5.67-2.9,5.67-7.82"/><path class="cls-2" d="M420,431.8v.26c0,1.33.64,2,1.83,2a1.75,1.75,0,0,0,1.95-1.93c0-1.45-.68-2.07-2.22-2.07a3.94,3.94,0,0,0-.47,0v-2.47h.21c1.39,0,2.15-.64,2.15-1.81a1.57,1.57,0,0,0-1.66-1.59,1.53,1.53,0,0,0-1.67,1.66h-3.62c.06-2.83,2-4.53,5.48-4.53,3.15,0,4.94,1.59,4.94,3.95a3.14,3.14,0,0,1-2.37,3.16,3.5,3.5,0,0,1,3,3.78c0,3-2.3,5-5.61,5-3.5,0-5.7-2.06-5.7-5.28v-.22H420"/><path class="cls-2" d="M431.72,433a2.13,2.13,0,0,1,0,4.26,2.13,2.13,0,0,1,0-4.26"/><path class="cls-2" d="M441.69,429.11a2.35,2.35,0,1,1,2.26-2.34A2.14,2.14,0,0,1,441.69,429.11Zm.18,2.45-3.5,5.34h4.18l2.08-3.25c1.63-2.54,2.69-4.54,2.69-6.73,0-3.29-2.1-5.56-5.7-5.56a5.34,5.34,0,0,0-5.74,5.61,4.5,4.5,0,0,0,4.42,4.83,5.64,5.64,0,0,0,1.57-.24"/><path class="cls-2" d="M454.71,429.55a2.35,2.35,0,1,1-2.27,2.36A2.15,2.15,0,0,1,454.71,429.55Zm-.18-2.45,3.51-5.43h-4.19l-2.1,3.33c-1.49,2.41-2.69,4.37-2.69,6.74,0,3.28,2.1,5.56,5.7,5.56s5.75-2.3,5.75-5.59c0-2.87-1.95-4.85-4.41-4.85a5.35,5.35,0,0,0-1.57.24"/><path class="cls-4" d="M308.53,228c45-17.34,79.48-43.87,83.08-87S335.94,88.47,278,89.63l-.45-26.93L229.68,63c-4.28,163.51-56.5,248.89-173,351.54l77.68.29c44.55-43.81,102.26-48.63,133-47.52L302.58,329c19.24,29.82,44.42,60.06,77.73,85.1l78.58.34C393.52,362.79,341.45,311.79,308.53,228Zm-32.37-85.57c28.09-.86,49.31-2.51,48.52,13S288.37,191,265.29,192.53C265.29,192.53,274,157.85,276.16,142.45Zm-65.78,179.1c21.91-32.63,36.1-67,43.78-91.27,7.7,19.93,18.63,47.14,34.85,76.16-23.58-.13-53.34,4.72-78.63,15.11"/><path class="cls-4" d="M52.35,321.22c-1-3.62-1.25-14.51-.6-27.1,7.29-8.37,12.62-17.75,19.62-38.67,10.88-32.57,5.92-45.47,4.19-46.24-2-.77-14.8,6.95-27.21,47.86A159.4,159.4,0,0,0,41.24,296q-4.49,5-9.9,10.44s-1.35,1.34,1.4,3,2.77.64,4.4-.48l4-4c.41,11.34,2.59,19.14,4.41,23.35.41,1,.67,2.63,2.45,1.51A13.81,13.81,0,0,0,53.33,323S52.9,323,52.35,321.22Zm2.38-55.57c3.58-21,13.4-39.91,14.57-39.81,1.76.15,1,11.57-3.09,28.24-2.33,9.41-6.63,18.3-13.58,28,.52-5.62,1.22-11.23,2.1-16.39"/><path class="cls-4" d="M88.47,280.83l-2.75-1.95a11,11,0,0,1,1.84-3.3c1.36-1.71,2-4.45.71-4.78s-4.52-1.12-9,2.26-14.68,13.59-18.82,27.58-1.6,23.79,3.21,24.47,8-4.16,9.69-7.31c-1.17,5.92.88,5.54,4.42,4.6s3.42-2.38,4.06-4.26c1.6-5.63,6.74-30.62,7.41-33.95S88.47,280.83,88.47,280.83ZM73.23,311.26c-3.84,7.6-6.64,2.45-6.26-1.16,1.5-14.34,8-22.77,10.12-24.89,2.71-3.13,3.51-.21,3.45,2.41-.19,7.7-3.46,16-7.31,23.64"/><path class="cls-4" d="M118.22,266.59c-3.09.93-7.5,2-7.5,2,2.79-12.57,6.73-30.48,6.73-30.48.37-3,.84-4.34-4.15-3.59s-5,1.48-5.66,4.09C105,252,93.63,303,91.83,311s.83,7.86,2.58,8,17.82,1.43,26.49-23.92S125.46,264,118.22,266.59Zm-13,43C102.48,312,102,308,102.32,307s6.08-27.44,6.73-30.19c0,0,.63-1.87,2-2s3.8.38,3.69,4.46c-.25,10.44-6.82,27.85-9.51,30.26"/><path class="cls-4" d="M188.78,193.32c-6.55-.88-21.62,16.34-30,65.23a178.56,178.56,0,0,0-2.57,24.29c-3.53,6.23-6.37,10.7-11.13,15.75-8.53,9.06-14.43,5.49-11.9-5.23,5-2.77,14.74-11.9,17.66-21.21,3.17-10.08,3-15,0-16.26s-8,3.59-9.51,5.58c-3.76,4.27-10.6,14.71-13,23.22s-2.83,20.12-1.34,25.09,8.65,4.18,11.81,1.59a112.79,112.79,0,0,0,17.53-18.3c1.24,24.27,9.78,36,15.39,43,1.42,1.79,5.78,3.19,8.83-2.1s3.66-7.58.57-11.17c-10.57-12.25-15.65-24.63-15.86-42.54a263.35,263.35,0,0,0,20.5-40.57C197.43,211.39,195.35,194.21,188.78,193.32Zm-45.37,73c4.24-6,5.23-4.67,3.17,2s-4.36,10.36-5.54,11.34-2.73,2.44-4.28,1.09C138.67,274.93,140.87,269.89,143.41,266.31Zm23.93-3.06-1.3,2.19c.67-6.22,1.73-13,3.2-20.59,3.18-16.34,6.78-25.54,9.71-32,1.24-2.73,5.65-6.25,5.37,1.73-.46,13.2-6,30.14-17,48.68"/><path class="cls-4" d="M378.77,265.39c4.26-.62,8.16-4.3,9.85-7.76-1.86-1.78-1.26-8.15-.47-11s7.65-25.23,9.44-33.18c0,0-5.87.73-10.41,1.21,0,0-6,23.08-8.06,30.3-12.83,22.06-12,7.7-10.9,2.64.75-3.28,6.27-23.23,8.8-30.72l-6.57-.73c-2.59,2.72-11.74,8.5-15.45,9.65-.73-4.23-2.56-6.76-4.79-7.53-3.19-1.09-7.65,1.57-10.55,6.29-4,.49-9.39,1.37-16.3,20.23-3.38,9.24-4.16,15.84-3.89,20.41-2.48,3.6-9,8.06-13.8,9.09-5.44,1.18-.62,7.54,1.7,8.47s6.66-.46,14.69-9.21a2.79,2.79,0,0,0,.59.57c.87.45,6.18,4.79,16.26-.63,12.39-6.67,15.88-33.18,16.37-41.3,0-.33,0-.65.05-1a63.13,63.13,0,0,0,8.53-2.59s-6.45,18.87-7.9,24.07-3.13,14.3.16,17.28,12.24-3.48,16.28-7.31C372.79,264.52,374.51,266,378.77,265.39Zm-33.86-15.91c-2.61,11.13-8,17.24-11.09,16.73s-4.2-8.09-1.65-16.6,8.05-18.1,11.1-17,4.25,5.76,1.64,16.88"/><path class="cls-4" d="M458.07,272.81c-5.77-1.1-18.09-10.35-18.73-27.8,10.42-8.83,18.1-17.73,22.94-25.55,9.14-14.74,11.42-23.84,7.24-26.56-5.91-3.83-20.37,7.07-28.69,18.06-7.45,9.84-12,21.4-13.45,35-4.7,2.84-9.45,5.35-14.31,8.09-6-8-7-18.57-4.3-24.35a24.47,24.47,0,0,1,8.59-10.4c1.79-1.13,5.18-2.5,4.56,5,2.07-1,9-4.43,9-4.43,1.91-5.91,1.67-14-2.39-15.6s-14.12,2.28-22.72,13.26-14.28,23.15-8.62,35.38c1.36,2.94,2.74,5.63,4,8.13-14.09,8.68-29.07,19.61-38,40.15-10.37,24,21.46,23.61,33.36,12.7,23.82-21.83,24.66-42,20.5-53,3.48-2.11,6.82-4.28,9.95-6.47,1.37,14.26,14.1,27.2,20.91,29.9,7.39,2.93,11.13-.6,13.55-3.31S464.19,274,458.07,272.81Zm-5.29-65.63c5.86-6.25,8.16-4.89,8.74-4.45s3.81,4.39-7.8,19.72a88.89,88.89,0,0,1-14,14.82C441.32,220.77,447.39,212.93,452.78,207.18Zm-47.53,77c-4.35,10.06-22,37.23-31.73,28.43s5.57-31.27,30.94-44.66c2.32,5.62,3.22,10.59.79,16.23"/></g></g></g></svg>