<svg xmlns="http://www.w3.org/2000/svg" viewBox="0 0 603.77 497.81"><g id="Calque_2" data-name="Calque 2"><g id="Calque_1-2" data-name="Calque 1"><g id="UG52gG"><path d="M24.85,473.84c38.15,0,76.3-.07,114.45.1,4.86,0,7.21-1.08,6.57-6.36-.5-4.08-.1-7.87,5.57-7.85,1.56,0,2.23-1.3,2.32-2.78.08-1.16.06-2.33.06-3.49q0-89.71,0-179.43c0-3.06.71-6.54-3.79-7.49-1.44-.31-1.14-1.89-1.15-3-.05-5-.08-10,0-15,0-4.12,2-6.57,6.32-6.6,8.83-.07,17.66.07,26.48-.07,3.46-.06,3.86,2.49,4,4.61.3,5.48.14,11,.08,16.48,0,.79-.23,2-.76,2.3-4.51,2.74-3.17,7.14-3.17,11.05q-.08,90.46-.13,180.92c0,2,.18,2.78,2.21,2.62,5.11-.4,6.07,2.58,6,6.92-.17,8.1-.55,7,6.8,7.05,8.5,0,17-.07,25.49.05,4.17.05,6.29-1.39,5.73-5.88-.58-4.65-.14-8.78,6-9.14,1.44-.08,2-1,2-2.37,0-1.16,0-2.33,0-3.5q0-90.21,0-180.42c0-2.59.64-5.39-3-6.45a3.4,3.4,0,0,1-1.56-2.43,80,80,0,0,1-.17-18.88c.14-1.7,1.84-2.48,3.62-3a25.76,25.76,0,0,1,10.87-.77,102.55,102.55,0,0,0,17.41.78c3.35,0,4.88,1.17,4.75,4.69-.18,5-.05,10,0,15,0,1.35.18,3.11-.89,3.76-4.39,2.65-3.12,6.83-3.13,10.59q-.06,88.71-.06,177.43c0,3.47-.38,6.51,4.78,6.84,3.16.2,3.2,3.72,3.29,6.43.22,7.26.22,7.26,7.55,7.26,16.33,0,32.66-.09,49,.06,3.46,0,4.95-1,4.55-4.52-.21-1.81,0-3.66-.06-5.49-.1-2.67,1.06-4.28,3.8-4,3.84.4,4.29-1.61,4.29-4.77q-.11-92,0-183.93c0-2,.22-4-2.43-4.76a3.35,3.35,0,0,1-1.82-2.21A59.41,59.41,0,0,1,336.4,244c.3-2.07,2.29-2.06,4-2.06,9,0,18,0,27,0,4,0,5.65,1.77,5.4,5.83s0,8.32-.06,12.49c0,2.72.71,5.6-3,7.08-2,.78-1,3.31-1,5q-.06,79.21,0,158.44,0,12,0,24c0,2-.11,3.63,2.71,4.39,6.47,1.73,7.3,2.87,6.08,9.91-.73,4.19.61,5,4.23,4.84,9.79-.5,19.6.64,29.4-.81,3.24-.48,3.81-1.76,3.66-4.46a35.24,35.24,0,0,1,.09-6c.24-2.12,1.16-4,3.77-3.68,3.94.45,4.19-1.82,4.18-4.87-.08-21.83,0-43.65,0-65.48q0-58.21,0-116.45c0-2.84.46-5.71-3.43-6.71-1.69-.44-1.61-2.33-1.61-3.85,0-5.16.06-10.33,0-15.49,0-3.56,1.66-5.16,5.19-5.14,9.16.05,18.32.08,27.48,0,3.31,0,4.39,1.47,4.31,4.58-.13,5-.05,10,0,15,0,1.35.19,3-.86,3.79-4.23,3.18-3.15,7.66-3.15,11.84q0,88.47,0,176.93c0,3.31-.44,6.16,4.65,6,3.67-.09,4.37,3.38,4.36,6.6,0,7.62-1.09,7.22,7.26,7.22h110a26.85,26.85,0,0,1,4.49.11c4.43.77,5.7,3.86,3.32,7.79a27.16,27.16,0,0,1-7.36,1.05q-274.79,0-549.56.05c-2.62,0-4.93-.36-6.9-2.15.34-1.64.67-3.28,1-4.91C23,474.81,24.14,475,24.85,473.84Z"/><path d="M124.93,211.87c5.29-4.2,10.84-6.24,15.91-8.42,6.59-2.83,12.82-6.4,19.51-9.06,7.77-3.09,15.08-7.33,22.63-11,12.17-5.9,24.34-11.81,36.57-17.59,18.92-8.94,38-17.62,56.81-26.71,7.12-3.44,14.67-6,21.32-10.44,2.41-1.6,4.61-.19,6.62.67,7.58,3.26,15.19,6.49,22.52,10.25,12,6.16,24.43,11.26,36.49,17.22,17.85,8.82,36,16.89,54.1,25.25,17.76,8.23,35.35,16.83,53,25.29,1,.47,2.57.79,2,2.33-.61,1.77-1.95.33-3,.31-10.14-.17-20.27.64-30.38.7-61,.36-122-.53-182.93.51-41.63.71-83.24.12-124.85.68C129.53,211.89,127.74,211.87,124.93,211.87Z"/><path d="M207.07,99.19A78.13,78.13,0,0,1,221.53,53.5c7.9-11.18,17.19-21.78,29.89-28.52,4.5-2.39,8.78-5.11,13.52-7.2,7.34-3.23,14.89-2.8,22.5-2.8q14.73,0,29.46,0c13.14,0,23.88,6.43,33.91,13.76a95.28,95.28,0,0,1,33.63,44.4c3.27,8.83,3.88,18,5.19,27.18.44,3-1,4.14-3.73,3.39-13.93-3.91-28.46-3.9-42.58-6.63A81.71,81.71,0,0,0,328.47,96c-17.48-.13-35-.41-52.43,0a308.71,308.71,0,0,0-51.77,5.45c-4,.8-8.21.8-12.19,2.15S205.31,104.67,207.07,99.19Z"/><path d="M598.65,215.65c-1.91,1.86-3.66,1.24-5.21,1.24q-45.72.06-91.44,0c-2.67,0-5.25.45-5.78-3.54-.25-1.86-2.4-3-4.26-3.94-15.88-7.56-31.55-15.63-47.68-22.6-14.14-6.1-27.68-13.41-41.81-19.46-4.32-1.85-6.1-5.08-7.65-8.89-6.29-15.45-17.25-26.86-30.85-36.12-14-9.54-29.18-15.9-46.1-18,8.62-1,17.14-.31,25.64.7q16,1.89,31.87,4.62c11.85,2,23.52,4.55,34.89,8.53A231.1,231.1,0,0,1,451,136.67c14.12,8.27,26.62,18.55,36.58,31.69.2.26.56.48.61.77,1.76,9.28,9.45,11.24,16.78,13.73,25.7,8.74,51.44,17.36,77,26.46C587.36,211.24,593,212.87,598.65,215.65Z"/><path d="M279.59,104.45a117.38,117.38,0,0,0-23.79,6.21A101.92,101.92,0,0,0,232,123.38a129.22,129.22,0,0,0-13.64,11.56c-8.53,8-13.7,18.06-17.22,29-.94,2.93-2.31,4.05-5,5.28-12.64,5.83-25,12.23-37.62,18.17-13.55,6.39-27.29,12.38-40.8,18.84-3.83,1.83-7.09,4.66-11.65,5-1.89.15-3,2.85-2.76,4.3.63,3.54-1.19,3.39-3.58,3.39q-47.46-.06-94.94,0a40.13,40.13,0,0,1-4-.46c3.57-3.64,7.94-3.81,11.55-5.2,10.07-3.88,20.68-6.4,30.62-10.55,8.23-3.43,16.78-5.75,25.09-8.83,12.06-4.45,24.22-8.61,36.36-12.86a8.33,8.33,0,0,0,4.93-4.35c6.54-12.07,15.5-21.75,26.65-30.16,11.78-8.87,24.95-14.75,37.58-21.82,3.65-2,7.8-2.62,11.66-4.11,10.31-4,20.67-8.25,31.65-9.94,14-2.15,28-5.16,42.24-5.83C265.85,104.44,272.62,103.94,279.59,104.45Z"/><path d="M599.7,488.83l2,.09c1.75,1.34,2.71,3.1,1.71,5.18s-2.44,3.61-4.94,3.66c-1.66,0-3.33,0-5,0l-445.61,0h-126l-14.37,0C0,497.79-1.16,496.25.92,489l178.93-.09Z"/><path d="M299.85,109c20.4-1,40.37,4.55,58.54,15.61,12.71,7.73,23.47,17.92,30.38,31.51.67,1.32,1.67,2.8.37,4.13s-2.5,0-3.63-.51c-17.29-8-34.84-15.5-51.75-24.23-9.55-4.94-19.58-8.77-29-14a8.2,8.2,0,0,0-8.41,0c-14.05,7-28.22,13.79-42.39,20.55-14.32,6.83-28.7,13.54-43,20.34-1.14.55-2.08,2-3.43.48-1.16-1.27-.37-2.5.22-3.68a84.18,84.18,0,0,1,31.08-34.36C257.16,113.24,277.25,108.48,299.85,109Z"/><path d="M298.19,7.9c-7.32,0-14.64-.12-22,0-3.43.08-5-1.64-5.24-4.63C270.71-.24,273.48,0,275.83,0c14,0,27.95,0,41.92,0A9.67,9.67,0,0,1,323,1.18c1.94,1.19,1.77,3.05,1.58,4.88-.24,2.21-2,1.82-3.45,1.83C313.5,7.92,305.84,7.9,298.19,7.9Z"/><path d="M24.85,473.84c-.71,1.16-1.88,1-3,1-.57-.41-1-1.11-.39-1.54A2.27,2.27,0,0,1,24.85,473.84Z"/></g></g></g></svg>