<svg xmlns="http://www.w3.org/2000/svg" viewBox="0 0 500 500"><defs><style>.cls-1{fill:#073798;}.cls-2{fill:#fdfdfd;}.cls-3{fill:#b4c8d8;}.cls-4{fill:none;}</style></defs><g id="Calque_2" data-name="Calque 2"><g id="Calque_1-2" data-name="Calque 1"><path class="cls-1" d="M249.57,495C115,495.25,4.86,385.25,5,249.94,5.14,115.06,114.08,5,250,5A244.63,244.63,0,0,1,495,250.44C494.87,386.32,384.38,495.57,249.57,495ZM14.81,250c.42,130.4,104.8,235.17,235,235.28,131.6.11,235.29-106.89,235.24-235.36C485,121,379.89,14.86,250,15,120.37,15,15.2,119.8,14.81,250Z"/><path class="cls-2" d="M14.81,250C15.2,119.8,120.37,15,250,15,379.89,14.86,485,121,485,249.88c.05,128.47-103.64,235.47-235.24,235.36C119.61,485.13,15.23,380.36,14.81,250ZM213.68,55.48c.65-.74.27-1.29-.47-1.43-1.09-.21-2.2-.17-2.5,1.28l-2.39.24c-.52-1.13-2.9-.38-2.48-2.46,1.84-.58,3.66-1.19,5.51-1.72,1.66-.48,2.26-1.5,1.62-3.09-2.68-6.61-6-10.86-14.42-10.32a27,27,0,0,0-6.47,1.27c-7.06,2.22-11.28,8.93-10,15.57,1.44,7.47,6.89,13.48,15.27,12.27,6.45-.93,12.3-3,15.79-9.1.62-.11.88-.32.19-.76ZM425.22,386.13c-.21-1.29-1.24-1.49-2.27-1.7a14.68,14.68,0,0,1,3.45-4.07c1.47-1.13,1.33-2.17-.1-3.21-4.24-3.08-8.72-5.06-14.09-3.31A17,17,0,0,0,402,396.93c2.9,6.23,11.37,9.06,17.65,6.28,4.72-2.08,7.65-5.8,9.93-10,1.83-3.36,2.52-7.16.21-11ZM342,437.89a2.54,2.54,0,0,1,1.34,2.34c-1.74.78-2.31,2.52-3.33,3.94-2.22,3.08-1.79,5.9.37,8.7a7.28,7.28,0,0,0,8.09,2.65,16.09,16.09,0,0,0,7.51-4.08c1.89-1.87,3-5.34,6.88-3.48.31.14,1-.39,1.44-.7,1.67-1.2,4.37-1.32,5.15-3.11s-1.8-3.06-2.61-4.75c-1.89-3.95-3.85-7.89-6-11.68-2.57-4.48-6.5-5.72-11.23-3.87a38.62,38.62,0,0,0-3.83,1.52c-4.35,2.29-8.94,4.31-11.21,9.16-4.33-1.83-6.5-1.36-9.72,2-.56.58-.76,1.69-2.2,1-3.34-1.65-5.91,1.14-8.82,1.95-1.09.3-.5,1.36-.26,2.12,1.82,5.77,3.46,11.59,5.52,17.27,2.63,7.27,2.78,7.17,9.91,4.13,1.86-.8,2.07-1.73,1.46-3.48-1.16-3.37-2.2-6.79-3.16-10.24s-.33-6.15,2-6.8c2.61-.71,3.87-2.11,4.3-4.91,1,2.59,2.46,2.92,4.57,1.75A24,24,0,0,1,342,437.89ZM250.43,67c-50.47-1-96.61,20-129.06,52.4C86.9,153.78,68,195.72,66.85,244.81,65.53,299.53,85,346,124.69,383.55c34.52,32.72,76,49.36,123.46,49.81,51.57.48,96-17.91,132.26-54.49,34.9-35.24,52.72-78.42,52.86-128.09.15-50.52-17.84-94.23-53.59-130C344.09,85.09,300.78,67.34,250.43,67ZM245.55,449c.7,8.1,1.54,17,2.16,26,.16,2.27,1.09,2.69,3.07,2.62,5.65-.19,11.29-.47,16.88-1.22,7.17-1,11.87-5.88,13-13a33.13,33.13,0,0,0-.55-11.92c-1.73-8.18-7.17-12.4-15.63-12.29-3.85.05-7.72.27-11.55.68-2.41.25-5.6-.8-7,1.06S245.75,445.71,245.55,449ZM239.73,40.25h-.1c0,2.63,0,5.25,0,7.88s.06,5.25-.06,7.87c-.09,2.09.6,2.9,2.83,2.84,5.24-.15,10.49.11,15.72,0,7.52-.22,12.64-3.83,14.85-10.86a25.89,25.89,0,0,0-.19-16.3c-2.31-6.72-7.06-10.24-14.33-10.23-5.24,0-10.49-.11-15.72-.36-2.37-.11-3.1.7-3,3.05C239.83,29.48,239.73,34.87,239.73,40.25ZM84.21,127.63c0-4.35-3.12-8.7-8-10.64s-8.78-1.08-12.2,3c-4.31,5.18-7.25,11.3-11.13,16.8-1.09,1.55-.55,2.56,1.12,3.6,7.45,4.62,14.77,9.44,22.18,14.13,2.35,1.48,4.86,4.72,7.23,3.55s3.46-4.72,5.1-7.23c.73-1.12.61-1.9-.68-2.66-2.36-1.39-4.59-3-6.86-4.54-3.07-2.09-3-2.06-1.08-5.22S84.33,132.08,84.21,127.63ZM381.53,433.2c9.49.82,15.79-7.4,12.77-15-1.39-3.51-3.12-6.86-6-9.24-4.3-3.51-8.23-5-13.93-1.36-2.43,1.54-3.46,4.05-5.15,6.07-.36-.2-.68-.28-.82-.48-.81-1.11-1.59-2.24-2.36-3.37-3.7-5.43-3.7-5.43-9-2-3.58,2.33-3.63,2.5-1.25,5.94q7.63,11,15.3,22c4,5.72,3.94,5.6,9.84,1.3C382.49,435.91,382.69,435,381.53,433.2Zm-6.41-332.66c1.71,9.78,10.23,12.48,16.21,9.1a21.27,21.27,0,0,0,9-9.86,11,11,0,0,0-6.76-15.28c-3.76-1.07-3.76-1.07-1.43-4.13.17-.22.31-.45.49-.67,4.89-6,4.84-6-1-10.65-1.83-1.46-2.91-1.31-4.37.52-6.54,8.11-13.19,16.14-19.85,24.16-1.42,1.7-1.61,3.1.27,4.51a27.14,27.14,0,0,1,2.88,2.33C372.06,102.06,373.53,102.54,375.12,100.54Zm-255,294.09a11.63,11.63,0,0,0-3.24-6.91c-4.55-4.38-9.18-8.69-13.72-13.1-1.43-1.38-2.45-1.22-3.75.2-5.94,6.51-12,12.89-17.9,19.43-1.8,2-5.11,3.77-4.91,6.16.22,2.61,3.85,4,5.68,6.16,1.46,1.75,2.68,1.37,4-.22,1.78-2.1,3.75-4,5.53-6.13,1.37-1.6,2.5-1.77,4-.13a36.73,36.73,0,0,0,7,5.71C110.8,411.05,120.1,402,120.08,394.63ZM155.67,56.27c-2.06-1.27-2.15-3.53-3-5.35-2.74-6-2.71-6-8.71-3.5-3.61,1.5-3.74,1.56-2.18,5.07,3.71,8.39,7.61,16.72,11.34,25.11,2.78,6.24,2.79,6.29,8.81,3,3.38-1.84,3.31-1.81,1.57-5.53-1.5-3.22-3-6.46-4.2-9.79-1-2.75-.16-5.17,1.85-6,2.92-1.16,4,1.08,4.94,3,1.75,3.56,3.33,7.22,4.95,10.85.58,1.28,1,2.75,2.9,1.91,2.14-.94,4.26-1.91,6.35-3,.88-.44,1.54-1,.92-2.29-2.84-5.63-4.85-11.67-8.14-17.07-2.14-3.48-5.71-4.47-9.7-3.33A12.14,12.14,0,0,0,155.67,56.27Zm6.1,403.35c2.68,1.06,4.69,1.93,6.76,2.65,2.28.78,3.86.45,4.58-2.37a92,92,0,0,1,3.58-11c1.09-2.81,3.36-3.84,5.54-2.87,2.53,1.12,2.21,3.29,1.68,5.33-.69,2.66-1.7,5.23-2.42,7.88-.57,2.13-3.11,4.4-1.28,6.33,1.44,1.52,4.22,1.81,6.44,2.54,1.9.64,3,.06,3.58-2.07,1.42-5.17,3.26-10.23,4.69-15.39,1.71-6.18-1.77-10.93-8.19-11.6-2.33-.25-4.58.25-7.57,1.1.94-2.56,1.65-4.43,2.31-6.32,2.24-6.39,1.82-7-4.64-8.67-2.4-.62-3.55-.26-4.42,2.33-1.6,4.8-2.43,9.83-4.17,14.52C166.11,447.8,164.77,453.84,161.77,459.62ZM360.94,92.13a46.26,46.26,0,0,1,4.68-10.07,55.84,55.84,0,0,0,3.09-5.82c1.57-3.58,2.26-7.44-.7-10.48a29.35,29.35,0,0,0-15.75-8.42,8.51,8.51,0,0,0-6.94,2c-.83.63-1.59,1.49-.29,2.25,3,1.75,5.06,5.8,9.59,3.85a2.93,2.93,0,0,1,2.36.41c1.48,1,4.28,1.38,3.29,3.91-.73,1.87-3,.9-4.43.58-3.22-.71-6.32-1.94-9.52-2.7-4.36-1-7.46.37-9,3.79-1.7,3.77-.6,7.67,3,10.18,3,2.08,6.18,3.6,10,3.32.76-.06,2-.54,2.17.48C353.35,90.19,357.79,90,360.94,92.13Zm-58.31,367c.24,2.48-.76,4.14-3.21,4.55s-3.75-1.17-4.24-3.46c-.26-1.21-.58-2.41-.79-3.62a69.55,69.55,0,0,0-2.1-9.25c-.88-2.79-3.06-1.41-4.46-1-2,.53-4.87-.1-5.71,2.87-.09.34.17.79.26,1.2,1,5,2.05,10,3.14,14.93,2.13,9.69,10.31,9.32,15.88,5.64,1.51-1,2.77-5.33,5.22-.77.09.17,1-.06,1.53-.17,1.48-.32,2.94-.75,4.43-1,2.28-.37,2.73-1.46,2.32-3.74-1-5.41-2.56-10.69-3.41-16.15-1.23-8-1.54-8-9.52-5.82-2.92.81-3.22,1.4-2.08,4.29A56.33,56.33,0,0,1,302.63,459.12ZM118.86,102.56c-3.24,3.26-7.29,5.08-8,10-.32,2.14-2.39,3.27-4.68,3.32a2.76,2.76,0,0,1-2.7-1.59c-.35-.83.58-1.45,1.08-2,2.68-2.92,5.46-5.74,8.15-8.66,4.52-4.9,4.37-5.7-1.57-9a9.71,9.71,0,0,0-2.27-.91c-6.43-1.67-11.19.91-15.68,5.44-7.7,7.75-6.36,18.57,4.43,23.92a11.68,11.68,0,0,0,11.78-.31,24.06,24.06,0,0,0,8.79-9.07C120,110.46,121.1,106.91,118.86,102.56ZM297.87,61c-.57,2.86.34,4,2.56,4.1a16,16,0,0,1,2.39.59c4.1.9,4.51.78,5.2-3.35.94-5.57,2.16-11.08,3.38-16.59,1.28-5.79,1.2-5.82-4.77-7-4.65-.91-4.53-.88-5.54,3.78-.82,3.75-.77,7.7-2.63,11.21-.94,1.76-2.23,2.79-4.31,2.34-2.24-.48-2.59-2.14-2.5-4.1a53.6,53.6,0,0,1,1.59-8.51c1.53-7.23,1.47-7.14-5.66-8.79-2.71-.63-3.62.11-4,2.86-.66,4.48-1.87,8.87-2.76,13.32a19.5,19.5,0,0,0-.34,4.11c.06,3.49,1.77,5.84,4.93,7.42C289.53,64.46,293.35,63.73,297.87,61Zm126.77,92.26c-2.57-3.3-2.83-7.88-7.37-9.52-2.08-.76-2.73-2.69-2.72-4.69,0-1.18.22-2.7,1.53-3.17,1.51-.55,2,.84,2.68,1.89,2.67,4.14,5.42,8.23,8.12,12.35.75,1.15,1.52,1.91,3,1,5-3.15,8.8-9.7,6.63-15.44a30.06,30.06,0,0,0-4.53-8.25c-3.43-4.27-7.89-6.57-13.42-5.34s-9.66,4.57-11.53,10.12c-2.82,8.33,6.61,21.27,14.49,21.72A4.26,4.26,0,0,0,424.64,153.26ZM214.91,474.33c2.59.39,6-.85,8.89-3.48.76-.69,1.57-2.05.49-2.18-3.52-.43-6.67-3.56-10.64-1.28a4.45,4.45,0,0,1-6.13-1.63c-.61-.91-1.33-1.93-.83-3.06.65-1.46,1.9-.58,2.9-.47a137.81,137.81,0,0,1,13.83,2.39c1.51.32,3.26,1,3.86-1.62a13.76,13.76,0,0,0-7.36-15.51,23.2,23.2,0,0,0-8.37-2.06c-5.87-.52-10.75,1.53-13.49,6.83s-3,10.68.48,15.69C202.13,473.15,207.78,474,214.91,474.33ZM137.3,423.58c.5-4.46-1.23-8-4.66-10.79a37.44,37.44,0,0,0-4.8-3.2c-4.71-2.71-9.44-2.93-14,.06-5,3.26-7.53,8-7,14,.62,7,5.89,10.16,11.24,13.12a11.94,11.94,0,0,0,10.35,1.08c.93-.35,2.25-1,1.13-1.9-2.54-2.07-4.16-5.5-8.34-5.34a5.4,5.4,0,0,1-5.52-5.07c0-.95-.09-2.05.9-2.58s1.71.22,2.52.8c3.89,2.8,7.83,5.53,11.78,8.25,1.59,1.09,3.22,1.08,4-.83C136,428.76,138,426.57,137.3,423.58Zm3.75-352.29c-5.4-3.65-7.54-3.85-13.07-1.35a29.5,29.5,0,0,0-7,4.85c-5,4.31-6.47,11.54-2,18.23,3.92,5.89,10.47,8.17,16.44,5.45a29.7,29.7,0,0,0,8.2-5.38,13.06,13.06,0,0,0,4.24-12.32c-.26-1.47-1.06-2.64-2.43-1.62-2.67,2-7.61,2-6.73,7.31.11.71-.45,1.21-.9,1.75-3.09,3.79-5.86,3.86-9.19,0-1.91-2.23-3.44-4.84-1.91-7.86,1.38-2.73,3.59-4.08,6.79-2.75a1.79,1.79,0,0,0,1.89-.51C137.31,75.23,139.53,73.62,141.05,71.29Zm7.72,353.77c-5-.51-10.05,2.56-12.61,8.74s-1.66,11.29,2.88,15.44a23.75,23.75,0,0,0,12.05,6,12.18,12.18,0,0,0,9.68-2.6c.75-.58,1.87-1.48.89-2.33a50.65,50.65,0,0,0-6-4.24c-1.27-.81-2.29.19-3.42.66a5.41,5.41,0,0,1-7.57-5.32c.1-3,1.79-5.22,3.89-7s6.92-1.16,7.48,1.36c1,4.36,4.44,4.78,7.52,5.92,2.62,1,3.09.53,2.92-2.37a11.1,11.1,0,0,0-.45-2.42C164.16,430.54,156.18,425.09,148.77,425.06Zm230.4-34c6.49,7.76,13,15.51,19.5,23.34,4.45,5.39,4.39,5.44,9.58.73,2.71-2.46,2.7-2.45.42-5.19-5.36-6.42-10.74-12.83-16.05-19.29C386.3,383,386.15,382.94,379.17,391.07Zm19.29-263.82c4.11-3.18,7.87-6.78,11.72-10.28s7.81-6.83,11.64-10.32c4.54-4.13,4.5-4.17.26-8.85-2.81-3.09-2.79-3.08-6.1-.11-5.89,5.3-11.75,10.63-17.71,15.86C390.61,120.26,390.58,120.22,398.46,127.25ZM341.4,52c-.34-.54-.53-1.16-.94-1.43-2-1.37-4.07-2.91-6.82-1.93-.68.24-1.72,1.22-2.11.15-1.1-3.06-4.11-2.81-6.28-4s-3.42-.47-4.24,1.9c-1.75,5.07-3.73,10-5.61,15.07-2.93,7.81-2.91,7.74,5,10.49,2,.7,2.43.07,3.14-1.72,1.62-4.06,2.69-8.36,5.27-12.05,1.63-2.32,3.49-3,5.95-1.8,1,.52,1.79,1.24,2.8,0C338.81,55.15,340.73,54.13,341.4,52Zm-256,52c2.64-2.13,4.67-3.73,4-7-.28-1.43.75-1.69,2-1.85,3.65-.46,4.36-1.08,6.1-4.87-3.63.28-7-2.55-10.72,1.17C82.9,95.46,84.72,99.26,85.4,104.06Zm38.89,299.4c2.82,1.9,4.42,4.42,7.73,3.05,1.89-.78,2,.55,2.13,1.87.39,3,2.31,4.42,5.34,5.23-.11-4.13.95-8-3.29-10.86S128.77,402.37,124.29,403.46Z"/><path class="cls-3" d="M250.43,67c50.35.39,93.66,18.14,129.25,53.8,35.75,35.8,53.74,79.51,53.59,130-.14,49.67-18,92.85-52.86,128.09-36.22,36.58-80.69,55-132.26,54.49-47.47-.45-88.94-17.09-123.46-49.81C85,346,65.53,299.53,66.85,244.81c1.18-49.09,20.05-91,54.52-125.46C153.82,86.92,200,66,250.43,67ZM79.34,249.56c0,94.34,75.57,171.14,170.63,171.12A170,170,0,0,0,420.64,250.11c.15-94.69-76.49-170.54-170.58-170.65C156.15,79.35,79.66,155.51,79.34,249.56Z"/><path class="cls-1" d="M342,437.89a24,24,0,0,0-3.86,1.4c-2.11,1.17-3.57.84-4.57-1.75-.43,2.8-1.69,4.2-4.3,4.91-2.33.65-2.95,3.37-2,6.8s2,6.87,3.16,10.24c.61,1.75.4,2.68-1.46,3.48-7.13,3-7.28,3.14-9.91-4.13-2.06-5.68-3.7-11.5-5.52-17.27-.24-.76-.83-1.82.26-2.12,2.91-.81,5.48-3.6,8.82-1.95,1.44.72,1.64-.39,2.2-1,3.22-3.36,5.39-3.83,9.72-2,2.27-4.85,6.86-6.87,11.21-9.16a38.62,38.62,0,0,1,3.83-1.52c4.73-1.85,8.66-.61,11.23,3.87,2.18,3.79,4.14,7.73,6,11.68.81,1.69,3.42,2.87,2.61,4.75s-3.48,1.91-5.15,3.11c-.44.31-1.13.84-1.44.7-3.85-1.86-5,1.61-6.88,3.48a16.09,16.09,0,0,1-7.51,4.08,7.28,7.28,0,0,1-8.09-2.65c-2.16-2.8-2.59-5.62-.37-8.7,1-1.42,1.59-3.16,3.33-3.94,3.43-1,5.41-3.92,8-6.05a1.61,1.61,0,0,0,.54-2.16,2.27,2.27,0,0,0-2-1.13c-2.24-.22-5.1,1.35-5.66,3.78C343.8,436.21,342.74,436.86,342,437.89Zm14,4.4c-.18-1.34.06-2.84-1.21-3.44s-2.06.82-2.95,1.54c-.42.35-.77.77-1.17,1.14-1.3,1.24-2.56,2.49-1.85,4.56a2,2,0,0,0,2.14,1.52c2.13-.09,3.48-1.42,4.49-3.09A7.22,7.22,0,0,0,356,442.29Z"/><path class="cls-1" d="M245.55,449c.2-3.31-1.07-6.32.31-8.11s4.62-.81,7-1.06c3.83-.41,7.7-.63,11.55-.68,8.46-.11,13.9,4.11,15.63,12.29a33.13,33.13,0,0,1,.55,11.92c-1.09,7.12-5.79,12-13,13-5.59.75-11.23,1-16.88,1.22-2,.07-2.91-.35-3.07-2.62C247.09,466,246.25,457.12,245.55,449Zm23.66,10.09c-.11-1.15-.22-2.52-.37-3.89-.62-5.72-3.6-8-9.19-7.21-1.67.23-2.43.78-2.27,2.6q.72,7.8,1.22,15.63c.11,1.62.89,2,2.37,2.07C266.87,468.59,269.36,465.93,269.21,459.11Z"/><path class="cls-1" d="M239.73,40.25c0-5.38.1-10.77,0-16.15-.06-2.35.67-3.16,3-3.05,5.23.25,10.48.36,15.72.36,7.27,0,12,3.51,14.33,10.23a25.89,25.89,0,0,1,.19,16.3c-2.21,7-7.33,10.64-14.85,10.86-5.23.15-10.48-.11-15.72,0-2.23.06-2.92-.75-2.83-2.84.12-2.62.06-5.25.06-7.87s0-5.25,0-7.88Zm11.59-.75h0c0,1.78-.09,3.57,0,5.35s-.91,4.08.69,5c2,1.17,4.64.49,6.76-.4,1.95-.82,2.93-2.78,3.24-4.92a33.3,33.3,0,0,0,.17-7.4c-.43-5.17-2.81-7.24-8-7.32-2,0-3.06.38-2.89,2.68S251.32,37.16,251.32,39.5Z"/><path class="cls-1" d="M84.21,127.63c.12,4.45-2.3,7.56-4.29,10.82s-2,3.13,1.08,5.22c2.27,1.54,4.5,3.15,6.86,4.54,1.29.76,1.41,1.54.68,2.66-1.64,2.51-2.78,6.09-5.1,7.23s-4.88-2.07-7.23-3.55C68.8,149.86,61.48,145,54,140.42c-1.67-1-2.21-2-1.12-3.6,3.88-5.5,6.82-11.62,11.13-16.8,3.42-4.11,7.37-5,12.2-3S84.25,123.28,84.21,127.63Zm-19.53,5.12c.57,1.27,1.72,1.6,2.59,2.22,4.1,2.95,4.79,2.66,6.72-1.92.91-2.17.39-3.82-1.43-5a3.85,3.85,0,0,0-5.21.74A33.53,33.53,0,0,0,64.68,132.75Z"/><path class="cls-1" d="M381.53,433.2c1.16,1.77,1,2.71-.65,3.89-5.9,4.3-5.83,4.42-9.84-1.3q-7.68-11-15.3-22c-2.38-3.44-2.33-3.61,1.25-5.94,5.32-3.46,5.32-3.46,9,2,.77,1.13,1.55,2.26,2.36,3.37.14.2.46.28.82.48,1.69-2,2.72-4.53,5.15-6.07C380,404,384,405.46,388.27,409c2.91,2.38,4.64,5.73,6,9.24C397.32,425.8,391,434,381.53,433.2ZM374.17,420c.14,3.46,4.05,7.71,6.89,7.5a4,4,0,0,0,3.65-4.2c0-3.49-3.73-7.76-6.7-7.7A3.91,3.91,0,0,0,374.17,420Z"/><path class="cls-1" d="M375.12,100.54c-1.59,2-3.06,1.52-4.57,0a27.14,27.14,0,0,0-2.88-2.33c-1.88-1.41-1.69-2.81-.27-4.51,6.66-8,13.31-16,19.85-24.16,1.46-1.83,2.54-2,4.37-.52,5.85,4.69,5.9,4.63,1,10.65-.18.22-.32.45-.49.67-2.33,3.06-2.33,3.06,1.43,4.13a11,11,0,0,1,6.76,15.28,21.27,21.27,0,0,1-9,9.86C385.35,113,376.83,110.32,375.12,100.54Zm11.83-11c-3.6.1-7.57,5.5-6.55,8.91a3.79,3.79,0,0,0,5.23,2.4,9.4,9.4,0,0,0,5.31-6.37A4,4,0,0,0,387,89.54Z"/><path class="cls-1" d="M120.08,394.63c0,7.41-9.28,16.42-17.29,11.17a36.73,36.73,0,0,1-7-5.71c-1.52-1.64-2.65-1.47-4,.13-1.78,2.1-3.75,4-5.53,6.13-1.34,1.59-2.56,2-4,.22-1.83-2.2-5.46-3.55-5.68-6.16-.2-2.39,3.11-4.16,4.91-6.16,5.89-6.54,12-12.92,17.9-19.43,1.3-1.42,2.32-1.58,3.75-.2,4.54,4.41,9.17,8.72,13.72,13.1A11.63,11.63,0,0,1,120.08,394.63Zm-10.71-1.72c.08-1.65-3.36-5.8-4.77-5.76-.78,0-5,4.24-5.14,5.13-.2,1.34,3.78,4.44,5.77,4.5A4.32,4.32,0,0,0,109.37,392.91Z"/><path class="cls-1" d="M155.67,56.27a12.14,12.14,0,0,1,7.73-6.82c4-1.14,7.56-.15,9.7,3.33,3.29,5.4,5.3,11.44,8.14,17.07.62,1.24,0,1.85-.92,2.29-2.09,1-4.21,2-6.35,3-1.89.84-2.32-.63-2.9-1.91-1.62-3.63-3.2-7.29-4.95-10.85-1-2-2-4.2-4.94-3-2,.81-2.87,3.23-1.85,6,1.24,3.33,2.7,6.57,4.2,9.79,1.74,3.72,1.81,3.69-1.57,5.53-6,3.29-6,3.24-8.81-3-3.73-8.39-7.63-16.72-11.34-25.11-1.56-3.51-1.43-3.57,2.18-5.07,6-2.5,6-2.49,8.71,3.5C153.52,52.74,153.61,55,155.67,56.27Z"/><path class="cls-1" d="M161.77,459.62c3-5.78,4.34-11.82,6.47-17.59,1.74-4.69,2.57-9.72,4.17-14.52.87-2.59,2-2.95,4.42-2.33,6.46,1.65,6.88,2.28,4.64,8.67-.66,1.89-1.37,3.76-2.31,6.32,3-.85,5.24-1.35,7.57-1.1,6.42.67,9.9,5.42,8.19,11.6-1.43,5.16-3.27,10.22-4.69,15.39-.6,2.13-1.68,2.71-3.58,2.07-2.22-.73-5-1-6.44-2.54-1.83-1.93.71-4.2,1.28-6.33.72-2.65,1.73-5.22,2.42-7.88.53-2,.85-4.21-1.68-5.33-2.18-1-4.45.06-5.54,2.87a92,92,0,0,0-3.58,11c-.72,2.82-2.3,3.15-4.58,2.37C166.46,461.55,164.45,460.68,161.77,459.62Z"/><path class="cls-1" d="M360.94,92.13c-3.15-2.09-7.59-1.94-8.51-6.76-.2-1-1.41-.54-2.17-.48-3.79.28-7-1.24-10-3.32-3.57-2.51-4.67-6.41-3-10.18,1.54-3.42,4.64-4.83,9-3.79,3.2.76,6.3,2,9.52,2.7,1.44.32,3.7,1.29,4.43-.58,1-2.53-1.81-2.94-3.29-3.91a2.93,2.93,0,0,0-2.36-.41c-4.53,1.95-6.61-2.1-9.59-3.85-1.3-.76-.54-1.62.29-2.25a8.51,8.51,0,0,1,6.94-2A29.35,29.35,0,0,1,368,65.76c3,3,2.27,6.9.7,10.48a55.84,55.84,0,0,1-3.09,5.82A46.26,46.26,0,0,0,360.94,92.13ZM357,76c-3.57-1.53-6-2.2-7.42-2.06a3.07,3.07,0,0,0-3,2.38c-.37,1.6.48,2.53,1.83,3.27C352.16,81.63,355.07,80.45,357,76Z"/><path class="cls-1" d="M302.63,459.12a56.33,56.33,0,0,0-2.74-11.54c-1.14-2.89-.84-3.48,2.08-4.29,8-2.2,8.29-2.14,9.52,5.82.85,5.46,2.43,10.74,3.41,16.15.41,2.28,0,3.37-2.32,3.74-1.49.24-2.95.67-4.43,1-.52.11-1.44.34-1.53.17-2.45-4.56-3.71-.23-5.22.77-5.57,3.68-13.75,4.05-15.88-5.64-1.09-5-2.1-10-3.14-14.93-.09-.41-.35-.86-.26-1.2.84-3,3.68-2.34,5.71-2.87,1.4-.36,3.58-1.74,4.46,1a69.55,69.55,0,0,1,2.1,9.25c.21,1.21.53,2.41.79,3.62.49,2.29,1.66,3.88,4.24,3.46S302.87,461.6,302.63,459.12Z"/><path class="cls-1" d="M118.86,102.56c2.24,4.35,1.13,7.9-.7,11.15a24.06,24.06,0,0,1-8.79,9.07,11.68,11.68,0,0,1-11.78.31c-10.79-5.35-12.13-16.17-4.43-23.92,4.49-4.53,9.25-7.11,15.68-5.44a9.71,9.71,0,0,1,2.27.91c5.94,3.26,6.09,4.06,1.57,9-2.69,2.92-5.47,5.74-8.15,8.66-.5.55-1.43,1.17-1.08,2a2.76,2.76,0,0,0,2.7,1.59c2.29,0,4.36-1.18,4.68-3.32C111.57,107.64,115.62,105.82,118.86,102.56Zm-17.17-.8a4.75,4.75,0,0,0-4.33,6.95c.94,1.84,2,2.11,3.38.47.89-1,2-1.91,2.82-3,.71-.92,2.32-1.56,1.73-3S103.08,101.79,101.69,101.76Z"/><path class="cls-1" d="M297.87,61c-4.52,2.73-8.34,3.46-12.49,1.4-3.16-1.58-4.87-3.93-4.93-7.42a19.5,19.5,0,0,1,.34-4.11c.89-4.45,2.1-8.84,2.76-13.32.41-2.75,1.32-3.49,4-2.86,7.13,1.65,7.19,1.56,5.66,8.79A53.6,53.6,0,0,0,291.65,52c-.09,2,.26,3.62,2.5,4.1,2.08.45,3.37-.58,4.31-2.34,1.86-3.51,1.81-7.46,2.63-11.21,1-4.66.89-4.69,5.54-3.78,6,1.17,6.05,1.2,4.77,7-1.22,5.51-2.44,11-3.38,16.59-.69,4.13-1.1,4.25-5.2,3.35a16,16,0,0,0-2.39-.59C298.21,65,297.3,63.86,297.87,61Z"/><path class="cls-1" d="M424.64,153.26a4.26,4.26,0,0,1-3.12.65c-7.88-.45-17.31-13.39-14.49-21.72,1.87-5.55,6-8.88,11.53-10.12s10,1.07,13.42,5.34a30.06,30.06,0,0,1,4.53,8.25c2.17,5.74-1.61,12.29-6.63,15.44-1.48.93-2.25.17-3-1-2.7-4.12-5.45-8.21-8.12-12.35-.68-1.05-1.17-2.44-2.68-1.89-1.31.47-1.52,2-1.53,3.17,0,2,.64,3.93,2.72,4.69C421.81,145.38,422.07,150,424.64,153.26Zm0-22.39c-2.84,0-3.84.88-2.91,2.56a60.07,60.07,0,0,0,3.58,5.49c1.1,1.56,2.28,1.22,3.29-.13a4.47,4.47,0,0,0,.42-5C428.05,132.05,426.7,130.61,424.61,130.87Z"/><path class="cls-1" d="M425.22,386.13l4.52-3.92c2.31,3.83,1.62,7.63-.21,11-2.28,4.21-5.21,7.93-9.93,10-6.28,2.78-14.75,0-17.65-6.28a17,17,0,0,1,10.26-23.09c5.37-1.75,9.85.23,14.09,3.31,1.43,1,1.57,2.08.1,3.21a14.68,14.68,0,0,0-3.45,4.07c-1.75.38-2.1,2-2.92,3.25l0,0a1.55,1.55,0,0,0-1.51,1.82c-.91,1-2.22,1.64-2.68,3a.91.91,0,0,0-.76,1,.9.9,0,0,0,0,1c1.13,2.16,2.66,1.88,4.34.73,1.89-.54,2.63-2,2.92-3.77C423.73,390,423.7,387.67,425.22,386.13Zm-12.35-4.26a5.08,5.08,0,0,0-5,5.41,3.69,3.69,0,0,0,1.8,3.06c1.46.71,2.11-.67,2.88-1.6A31.34,31.34,0,0,0,415,386c.55-.85,1.7-1.62,1.07-2.89S413.93,382,412.87,381.87Z"/><path class="cls-1" d="M213.13,58c-3.49,6.11-9.34,8.17-15.79,9.1-8.38,1.21-13.83-4.8-15.27-12.27-1.27-6.64,3-13.35,10-15.57A27,27,0,0,1,198.55,38C207,37.44,210.29,41.69,213,48.3c.64,1.59,0,2.61-1.62,3.09-1.85.53-3.67,1.14-5.51,1.72-3.09-.11-5.85,1.12-8.66,2.15-1.18.43-3.16,0-3.12,1.88,0,2.09,1.95,2.81,3.64,3.34a3.54,3.54,0,0,0,3.81-.93c1.82-2.2,4.29-3.09,6.81-4l2.39-.24,3,.15-.36,1.75Zm-16.3-13.45c-2-.19-3.41,1-4.46,2.72a3,3,0,0,0-.18,3.1c.6,1.12,1.69.62,2.57.45,1.73-.32,3.46-.69,5.15-1.17,2-.56,2.26-1.71,1-3.34A4.45,4.45,0,0,0,196.83,44.54Z"/><path class="cls-1" d="M214.91,474.33c-7.13-.37-12.78-1.18-16.37-6.38-3.46-5-3.13-10.54-.48-15.69s7.62-7.35,13.49-6.83a23.2,23.2,0,0,1,8.37,2.06A13.76,13.76,0,0,1,227.28,463c-.6,2.58-2.35,1.94-3.86,1.62a137.81,137.81,0,0,0-13.83-2.39c-1-.11-2.25-1-2.9.47-.5,1.13.22,2.15.83,3.06a4.45,4.45,0,0,0,6.13,1.63c4-2.28,7.12.85,10.64,1.28,1.08.13.27,1.49-.49,2.18C220.87,473.48,217.5,474.72,214.91,474.33Zm-2.8-22.67a4.75,4.75,0,0,0-1,.11c-1.84.55-3.31,1.79-3.47,3.62-.2,2.33,2.2,1.29,3.35,1.89a10.49,10.49,0,0,0,3.18.57c1,.15,2.22.94,3-.27s0-2.4-.49-3.48C215.79,452.34,214.25,451.61,212.11,451.66Z"/><path class="cls-1" d="M137.3,423.58c.66,3-1.29,5.18-2.35,7.61-.83,1.91-2.46,1.92-4,.83-4-2.72-7.89-5.45-11.78-8.25-.81-.58-1.49-1.36-2.52-.8s-.91,1.63-.9,2.58a5.4,5.4,0,0,0,5.52,5.07c4.18-.16,5.8,3.27,8.34,5.34,1.12.91-.2,1.55-1.13,1.9a11.94,11.94,0,0,1-10.35-1.08c-5.35-3-10.62-6.14-11.24-13.12-.54-6,2-10.75,7-14,4.57-3,9.3-2.77,14-.06a37.44,37.44,0,0,1,4.8,3.2C136.07,415.59,137.8,419.12,137.3,423.58Zm-17.28-6a1.57,1.57,0,0,0,.73,1.4c1.77,1.25,3.56,2.47,5.36,3.69,1.55,1.05,2.46.34,3-1.18.7-1.86-.39-4.33-2.4-5.51s-5.06-.76-6.33.94A7.44,7.44,0,0,0,120,417.61Z"/><path class="cls-1" d="M141.05,71.29c-1.52,2.33-3.74,3.94-5.73,5.77a1.79,1.79,0,0,1-1.89.51c-3.2-1.33-5.41,0-6.79,2.75-1.53,3,0,5.63,1.91,7.86,3.33,3.89,6.1,3.82,9.19,0,.45-.54,1-1,.9-1.75-.88-5.3,4.06-5.34,6.73-7.31,1.37-1,2.17.15,2.43,1.62a13.06,13.06,0,0,1-4.24,12.32,29.7,29.7,0,0,1-8.2,5.38c-6,2.72-12.52.44-16.44-5.45-4.46-6.69-3-13.92,2-18.23a29.5,29.5,0,0,1,7-4.85C133.51,67.44,135.65,67.64,141.05,71.29Z"/><path class="cls-1" d="M148.77,425.06c7.41,0,15.39,5.48,17.22,11.8a11.1,11.1,0,0,1,.45,2.42c.17,2.9-.3,3.34-2.92,2.37-3.08-1.14-6.55-1.56-7.52-5.92-.56-2.52-5.27-3.24-7.48-1.36s-3.79,4-3.89,7a5.41,5.41,0,0,0,7.57,5.32c1.13-.47,2.15-1.47,3.42-.66a50.65,50.65,0,0,1,6,4.24c1,.85-.14,1.75-.89,2.33a12.18,12.18,0,0,1-9.68,2.6,23.75,23.75,0,0,1-12.05-6c-4.54-4.15-5.41-9.31-2.88-15.44S143.81,424.55,148.77,425.06Z"/><path class="cls-1" d="M379.17,391.07c7-8.13,7.13-8.11,13.45-.41,5.31,6.46,10.69,12.87,16.05,19.29,2.28,2.74,2.29,2.73-.42,5.19-5.19,4.71-5.13,4.66-9.58-.73C392.21,406.58,385.66,398.83,379.17,391.07Z"/><path class="cls-1" d="M398.46,127.25c-7.88-7-7.85-7-.19-13.7,6-5.23,11.82-10.56,17.71-15.86,3.31-3,3.29-3,6.1.11,4.24,4.68,4.28,4.72-.26,8.85C418,110.14,414,113.49,410.18,117S402.57,124.07,398.46,127.25Z"/><path class="cls-1" d="M341.4,52c-.67,2.09-2.59,3.11-3.85,4.68-1,1.26-1.76.54-2.8,0-2.46-1.24-4.32-.52-5.95,1.8-2.58,3.69-3.65,8-5.27,12.05-.71,1.79-1.13,2.42-3.14,1.72-7.9-2.75-7.92-2.68-5-10.49,1.88-5,3.86-10,5.61-15.07.82-2.37,2.1-3.07,4.24-1.9s5.18.92,6.28,4c.39,1.07,1.43.09,2.11-.15,2.75-1,4.77.56,6.82,1.93C340.87,50.88,341.06,51.5,341.4,52Z"/><path class="cls-1" d="M85.4,104.06c-.68-4.8-2.5-8.6,1.38-12.52,3.67-3.72,7.09-.89,10.72-1.17-1.74,3.79-2.45,4.41-6.1,4.87-1.22.16-2.25.42-2,1.85C90.07,100.33,88,101.93,85.4,104.06Z"/><path class="cls-1" d="M124.29,403.46c4.48-1.09,7.75-3.52,11.91-.71s3.18,6.73,3.29,10.86c-3-.81-5-2.26-5.34-5.23-.17-1.32-.24-2.65-2.13-1.87C128.71,407.88,127.11,405.36,124.29,403.46Z"/><path class="cls-3" d="M208.32,55.57c-2.52.89-5,1.78-6.81,4a3.54,3.54,0,0,1-3.81.93c-1.69-.53-3.6-1.25-3.64-3.34,0-1.91,1.94-1.45,3.12-1.88,2.81-1,5.57-2.26,8.66-2.15C205.42,55.19,207.8,54.44,208.32,55.57Z"/><path class="cls-3" d="M342,437.89c.77-1,1.83-1.68,2.18-3.22.56-2.43,3.42-4,5.66-3.78a2.27,2.27,0,0,1,2,1.13,1.61,1.61,0,0,1-.54,2.16c-2.58,2.13-4.56,5.05-8,6.05A2.54,2.54,0,0,0,342,437.89Z"/><path class="cls-3" d="M425.22,386.13c-1.52,1.54-1.49,3.9-2.92,5.48-.83-1.26.36-3.7-2.27-3.93.82-1.23,1.17-2.87,2.92-3.25C424,384.64,425,384.84,425.22,386.13Z"/><path class="cls-3" d="M213.68,55.48l-3-.15c.3-1.45,1.41-1.49,2.5-1.28C214,54.19,214.33,54.74,213.68,55.48Z"/><path class="cls-3" d="M213.13,58c.07-.25.13-.5.19-.76C214,57.67,213.75,57.88,213.13,58Z"/><path class="cls-1" d="M79.34,249.56c.32-94.05,76.81-170.21,170.72-170.1,94.09.11,170.73,76,170.58,170.65A170,170,0,0,1,250,420.68C154.91,420.7,79.31,343.9,79.34,249.56Zm143,105.14c.27-.43,1.62-.13.89-1.12-.18-.23-.51.78-.86,1.15l-.13.12Zm-54.6-181.36c-3,.31-3.42,3.57-5.63,5.08-2.45-2.56-3.69-5.84-5.81-8.52-4-5.12-12.94-7-17.48-1.32a3.68,3.68,0,0,1-3.34,1.28c-.23.09.16,0,.51-.21,7.68-3.79,12.75-1,16.28,4.33,2.21,3.29,4.49,6.54,6.61,9.89,1.93,3,4.42,2.73,5.39-.8.92-3.33,2.86-6.32,3.43-9.79l1.56-1.83C167.85,171.44,168.91,173.21,167.78,173.34Zm85.67,51.94a5.45,5.45,0,0,0,2.71,3.69,50.56,50.56,0,0,1,8,7.7c1.32,1.47,1.68,2.67-.46,3.93-2.47,1.45-4.68,3.34-7.1,4.89-1.32.84-2.73,1.91-4.29.08-5.17-6-12.19-8.65-19.62-10.46a151.45,151.45,0,0,0-17.85-3c-4.17-.5-5,.29-3.91,4.52,2.64,10,6.24,19.66,12,28.41,1.07,1.64,2,2.26,4,1.53,9.73-3.57,19.3-7.37,25.75-16.13,1.25-1.7,2.52-1.76,4.24-.88,2.32,1.18,4.67,2.32,7.09,3.27s2.43,2.38,1.18,4.17c-2.6,3.73-5.23,7.44-8.77,10.38A71.25,71.25,0,0,1,237,279.09c1.71,2.08,3.72,1.73,5.54,1.8,16.81.68,33.62.57,50.43.12,8.41-.23,16.79-.8,25.16-1.59A117.9,117.9,0,0,0,344,274.37a107.36,107.36,0,0,0,23-10.89c8.57-5.3,16.42-11.43,22.77-19.34C398,233.92,402.82,222,407,209.76c1.44-4.19,1.09-4.54-3.21-4.45-10.88.23-21.75.94-32.6,1.71-5.5.39-11,.72-16.51,1-3.63.16-3.79,0-3.93-3.53-.11-2.76.29-5.62-.29-8.26-.92-4.11.54-6.95,3.65-9.24,3.32-2.43,4.34-5.61,4-9.67-.2-2.63-.92-3.1-3.48-2.87-11.93,1.06-23.82,2.64-35.8,3.15-7.72.32-15.06,1.41-21.46,6.86-3.26,2.77-4.14,5.34-3.76,9.12,1,9.35.42,18.76.79,28.13.09,2.22-.79,2.88-2.88,2.88-6.75,0-13.48.87-20.24.75C265.58,225.2,259.82,225.28,253.45,225.28ZM225.6,352.84q11.51-9,23-17.94c.87-.67,1.66-1.45,2.48-2.18,7.59-6.76,7.56-6.71,15.49-.8,16,11.94,33.92,18.44,54,18.31,16.22-.11,32-2.71,47-9.23a61.24,61.24,0,0,0,23.72-18c3.48-4.37,2.7-6.68-2.8-8.45-.91-.3-1.81-.58-2.71-.91a5.44,5.44,0,0,1-1.46-.69c-2.18-1.63-2.21-2.75.18-3.88s4.48-3.12,6.76-4.61c1.73-1.14,1.94-2.22.66-3.65-2.77-3.06-5.54-6.11-9.06-8.4-11.76-7.69-24.92-10.48-38.68-11.19A116,116,0,0,0,313,283.86c-10.77,2.38-21.1,5.92-30.36,12.2a141.86,141.86,0,0,0-21.19,17.68c-2.93,3-3.49,2.45-6.6.62-8.39-4.94-16.68-10.05-25.19-14.77-2.28-1.26-4.45-3.26-7.52-3.33.93,1.83,2.68,2.25,3.94,3.3,7.75,6.52,15.59,12.93,23.4,19.38,3.13,2.58,3.18,3.51.26,6.61-6.6,7-13.29,14-19.8,21.07C228.25,348.45,226,349.91,225.6,352.84Zm10.87-247.58c.65,1.1,1.55.76,2.3.84,4,.44,7.88-.55,11.81-.69a80,80,0,0,1,32.63,5.9c5.65,2.26,10.94,5.34,14.84,10.22.78,1,1.28,2.82,2.57,2.34,1.6-.6,3.37-1.66,3.56-3.87.06-.73.21-1.45.32-2.18-1.63,3.17-2.61,3.28-4.91,1-2.48-2.48-4.49-5.39-7.22-7.64-7.81-6.44-16.94-9.44-26.85-10.37-8.32-.78-16.46.59-24.51,2.47C239.51,103.6,237.55,103.68,236.47,105.26Zm-15,34c1.1,0,2.21.09,3.3,0a48.46,48.46,0,0,1,23.9,3.44c5.31,2.26,10.61,4.53,15.83,7,5.4,2.55,5.42,2.69,7.85-2.55a30.7,30.7,0,0,1,5.38-7.64c-2.78,1.13-5.71,2.28-7.53,5-1.3,2-2.57,1.9-4.34.46C252.28,133.93,237.33,132.89,221.47,139.21ZM152,140.59c2.11-.14,4.45-.13,6.74-.47,5.49-.82,10.26,1.08,14.92,3.6a99.82,99.82,0,0,0,10.58,5.47c3.07,1.2,4.24.82,5.61-2.09,1.44-3.07,2.71-6.22,4.07-9.37-1.91-.45-2.69.85-3.62,1.8-4.58,4.7-4.56,4.69-10.38,1.27-1.18-.69-2.53-1.12-3.66-1.88-4.38-2.92-9.22-2.64-14-1.68A45.26,45.26,0,0,0,152,140.59Zm74.6,36.94c-2.35,1.84-3.32.36-4.66-1.75a36.36,36.36,0,0,0-8.25-9.08c-6.08-4.76-14.31-6.14-18.91-2,2.67,1.76,6,.47,9.05,1.9A42.84,42.84,0,0,1,219.71,180c1.19,1.58,2.08,4.37,4.16,3.94s2.53-3.26,2.95-5.43A.74.74,0,0,0,226.58,177.53ZM112.71,206.29c.54,1,1.78,1.66,2.65,2.6,2.23,2.4,4.71,4.75,5,8.31.13,1.77.49,3.55,2.31,4,1.52.35,2.81-1,3.73-2.15a63.92,63.92,0,0,0,8.3-13.72c.23-.51,1-1.55.09-2.09-.73-.43-1.54,0-2.2.65-2.24,2.23-4.74,4.26-6.49,6.9-1.55,2.35-2.87,1.94-4.51.24A14.45,14.45,0,0,0,112.71,206.29Z"/><path class="cls-2" d="M356,442.29a7.22,7.22,0,0,1-.55,2.23c-1,1.67-2.36,3-4.49,3.09a2,2,0,0,1-2.14-1.52c-.71-2.07.55-3.32,1.85-4.56.4-.37.75-.79,1.17-1.14.89-.72,1.58-2.18,2.95-1.54S355.77,441,356,442.29Z"/><path class="cls-2" d="M269.21,459.11c.15,6.82-2.34,9.48-8.24,9.2-1.48-.07-2.26-.45-2.37-2.07q-.51-7.83-1.22-15.63c-.16-1.82.6-2.37,2.27-2.6,5.59-.79,8.57,1.49,9.19,7.21C269,456.59,269.1,458,269.21,459.11Z"/><path class="cls-2" d="M251.32,39.5c0-2.34.13-4.68,0-7s.87-2.72,2.89-2.68c5.18.08,7.56,2.15,8,7.32a33.3,33.3,0,0,1-.17,7.4c-.31,2.14-1.29,4.1-3.24,4.92-2.12.89-4.74,1.57-6.76.4-1.6-.93-.58-3.29-.69-5s0-3.57,0-5.35Z"/><path class="cls-2" d="M64.68,132.75a33.53,33.53,0,0,1,2.67-3.92,3.85,3.85,0,0,1,5.21-.74c1.82,1.14,2.34,2.79,1.43,5-1.93,4.58-2.62,4.87-6.72,1.92C66.4,134.35,65.25,134,64.68,132.75Z"/><path class="cls-2" d="M374.17,420a3.91,3.91,0,0,1,3.84-4.4c3-.06,6.69,4.21,6.7,7.7a4,4,0,0,1-3.65,4.2C378.22,427.73,374.31,423.48,374.17,420Z"/><path class="cls-2" d="M387,89.54a4,4,0,0,1,4,4.94,9.4,9.4,0,0,1-5.31,6.37,3.79,3.79,0,0,1-5.23-2.4C379.38,95,383.35,89.64,387,89.54Z"/><path class="cls-2" d="M109.37,392.91a4.32,4.32,0,0,1-4.14,3.87c-2-.06-6-3.16-5.77-4.5.14-.89,4.36-5.11,5.14-5.13C106,387.11,109.45,391.26,109.37,392.91Z"/><path class="cls-3" d="M357,76c-1.88,4.48-4.79,5.66-8.58,3.59-1.35-.74-2.2-1.67-1.83-3.27a3.07,3.07,0,0,1,3-2.38C350.91,73.77,353.38,74.44,357,76Z"/><path class="cls-3" d="M101.69,101.76c1.39,0,3-.09,3.6,1.42s-1,2.09-1.73,3c-.83,1.08-1.93,2-2.82,3-1.42,1.64-2.44,1.37-3.38-.47A4.75,4.75,0,0,1,101.69,101.76Z"/><path class="cls-3" d="M424.61,130.87c2.09-.26,3.44,1.18,4.38,2.88a4.47,4.47,0,0,1-.42,5c-1,1.35-2.19,1.69-3.29.13a60.07,60.07,0,0,1-3.58-5.49C420.77,131.75,421.77,130.86,424.61,130.87Z"/><path class="cls-3" d="M412.87,381.87c1.06.17,2.46-.18,3.15,1.2s-.52,2-1.07,2.89a31.34,31.34,0,0,1-2.41,2.78c-.77.93-1.42,2.31-2.88,1.6a3.69,3.69,0,0,1-1.8-3.06A5.08,5.08,0,0,1,412.87,381.87Z"/><path class="cls-2" d="M420,387.68c2.63.23,1.44,2.67,2.27,3.93-.29,1.79-1,3.23-2.92,3.77-1.25-1.43-2.87-.62-4.34-.73a.9.9,0,0,1,0-1,.88.88,0,0,0,.76-1c.46-1.4,1.77-2.05,2.68-3,1.18,0,1.78-.57,1.51-1.82Z"/><path class="cls-3" d="M415,394.65c1.47.11,3.09-.7,4.34.73C417.7,396.53,416.17,396.81,415,394.65Z"/><path class="cls-3" d="M420,387.71c.27,1.25-.33,1.78-1.51,1.82A1.55,1.55,0,0,1,420,387.71Z"/><path class="cls-3" d="M415.82,392.57a.88.88,0,0,1-.76,1A.91.91,0,0,1,415.82,392.57Z"/><path class="cls-3" d="M196.83,44.54a4.45,4.45,0,0,1,4.07,1.76c1.27,1.63,1,2.78-1,3.34-1.69.48-3.42.85-5.15,1.17-.88.17-2,.67-2.57-.45a3,3,0,0,1,.18-3.1C193.42,45.54,194.83,44.35,196.83,44.54Z"/><path class="cls-3" d="M212.11,451.66c2.14-.05,3.68.68,4.56,2.44.53,1.08,1.23,2.31.49,3.48s-2,.42-3,.27a10.49,10.49,0,0,1-3.18-.57c-1.15-.6-3.55.44-3.35-1.89.16-1.83,1.63-3.07,3.47-3.62A4.75,4.75,0,0,1,212.11,451.66Z"/><path class="cls-3" d="M120,417.61a7.44,7.44,0,0,1,.38-.66c1.27-1.7,4.27-2.14,6.33-.94s3.1,3.65,2.4,5.51c-.56,1.52-1.47,2.23-3,1.18-1.8-1.22-3.59-2.44-5.36-3.69A1.57,1.57,0,0,1,120,417.61Z"/><path class="cls-3" d="M253.45,225.28c6.37,0,12.13-.08,17.89,0,6.76.12,13.49-.74,20.24-.75,2.09,0,3-.66,2.88-2.88-.37-9.37.17-18.78-.79-28.13-.38-3.78.5-6.35,3.76-9.12,6.4-5.45,13.74-6.54,21.46-6.86,12-.51,23.87-2.09,35.8-3.15,2.56-.23,3.28.24,3.48,2.87.31,4.06-.71,7.24-4,9.67-3.11,2.29-4.57,5.13-3.65,9.24.58,2.64.18,5.5.29,8.26.14,3.49.3,3.69,3.93,3.53,5.5-.24,11-.57,16.51-1,10.85-.77,21.72-1.48,32.6-1.71,4.3-.09,4.65.26,3.21,4.45-4.21,12.23-9.08,24.16-17.29,34.38-6.35,7.91-14.2,14-22.77,19.34a107.36,107.36,0,0,1-23,10.89,117.9,117.9,0,0,1-25.86,5.05c-8.37.79-16.75,1.36-25.16,1.59-16.81.45-33.62.56-50.43-.12-1.82-.07-3.83.28-5.54-1.8a71.25,71.25,0,0,0,19.48-11.71c3.54-2.94,6.17-6.65,8.77-10.38,1.25-1.79,1.2-3.24-1.18-4.17s-4.77-2.09-7.09-3.27c-1.72-.88-3-.82-4.24.88-6.45,8.76-16,12.56-25.75,16.13-2,.73-3,.11-4-1.53-5.71-8.75-9.31-18.39-12-28.41-1.12-4.23-.26-5,3.91-4.52a151.45,151.45,0,0,1,17.85,3c7.43,1.81,14.45,4.42,19.62,10.46,1.56,1.83,3,.76,4.29-.08,2.42-1.55,4.63-3.44,7.1-4.89,2.14-1.26,1.78-2.46.46-3.93a50.56,50.56,0,0,0-8-7.7A5.45,5.45,0,0,1,253.45,225.28ZM335.51,186h-8.66c-1.69,0-2.55.79-2.49,2.52.19,5.08,0,10.17.45,15.26.23,2.82,1.48,3.43,4,3.29,4.94-.29,9.88-.5,14.82-.55,2.24,0,2.89-1,2.7-3-.24-2.6-.33-5.21-.52-7.82-.22-3.13,1.21-7.13-.76-9.17C342.82,184.25,338.74,186.23,335.51,186ZM233.05,255.18a6.8,6.8,0,0,0,6.41-6.65c0-3.63-3.39-7.11-6.78-6.95-2.89.13-5.77,3.6-5.8,7C226.83,252.79,229.1,255.22,233.05,255.18Z"/><path class="cls-3" d="M225.6,352.84c.44-2.93,2.65-4.39,4.33-6.22,6.51-7.11,13.2-14.05,19.8-21.07,2.92-3.1,2.87-4-.26-6.61-7.81-6.45-15.65-12.86-23.4-19.38-1.26-1.05-3-1.47-3.94-3.3,3.07.07,5.24,2.07,7.52,3.33,8.51,4.72,16.8,9.83,25.19,14.77,3.11,1.83,3.67,2.34,6.6-.62a141.86,141.86,0,0,1,21.19-17.68c9.26-6.28,19.59-9.82,30.36-12.2a116,116,0,0,1,31.15-2.64c13.76.71,26.92,3.5,38.68,11.19,3.52,2.29,6.29,5.34,9.06,8.4,1.28,1.43,1.07,2.51-.66,3.65-2.28,1.49-4.24,3.4-6.76,4.61s-2.36,2.25-.18,3.88a5.44,5.44,0,0,0,1.46.69c.9.33,1.8.61,2.71.91,5.5,1.77,6.28,4.08,2.8,8.45a61.24,61.24,0,0,1-23.72,18c-14.95,6.52-30.74,9.12-47,9.23-20.09.13-38-6.37-54-18.31-7.93-5.91-7.9-6-15.49.8-.82.73-1.61,1.51-2.48,2.18Q237.12,343.89,225.6,352.84ZM337,296.24a155.25,155.25,0,0,0-28,4.07,116,116,0,0,0-36.85,16.92c-1.37.93-4.07,1.18-3.66,3.37s2.87,2.71,4.71,3.5c10.74,4.59,21.67,8.19,33.4,9.78a114,114,0,0,0,36.05-.94,83.49,83.49,0,0,0,25.56-8.77c4.54-2.51,8.94-5.37,12-9.76,1.4-2,1.9-3.5-.29-5.65A34.4,34.4,0,0,0,367,301C357.49,297.57,347.5,296.68,337,296.24Z"/><path class="cls-2" d="M236.47,105.26c1.08-1.58,3-1.66,4.54-2,8.05-1.88,16.19-3.25,24.51-2.47,9.91.93,19,3.93,26.85,10.37,2.73,2.25,4.74,5.16,7.22,7.64,2.3,2.31,3.28,2.2,4.91-1-.11.73-.26,1.45-.32,2.18-.19,2.21-2,3.27-3.56,3.87-1.29.48-1.79-1.36-2.57-2.34-3.9-4.88-9.19-8-14.84-10.22a80,80,0,0,0-32.63-5.9c-3.93.14-7.84,1.13-11.81.69C238,106,237.12,106.36,236.47,105.26Z"/><path class="cls-2" d="M221.47,139.21c15.86-6.32,30.81-5.28,44.39,5.71,1.77,1.44,3,1.5,4.34-.46,1.82-2.74,4.75-3.89,7.53-5a30.7,30.7,0,0,0-5.38,7.64c-2.43,5.24-2.45,5.1-7.85,2.55-5.22-2.46-10.52-4.73-15.83-7a48.46,48.46,0,0,0-23.9-3.44C223.68,139.3,222.57,139.21,221.47,139.21Z"/><path class="cls-2" d="M152,140.59a45.26,45.26,0,0,1,10.31-3.35c4.73-1,9.57-1.24,14,1.68,1.13.76,2.48,1.19,3.66,1.88,5.82,3.42,5.8,3.43,10.38-1.27.93-.95,1.71-2.25,3.62-1.8-1.36,3.15-2.63,6.3-4.07,9.37-1.37,2.91-2.54,3.29-5.61,2.09a99.82,99.82,0,0,1-10.58-5.47c-4.66-2.52-9.43-4.42-14.92-3.6C156.43,140.46,154.09,140.45,152,140.59Z"/><path class="cls-2" d="M167.74,173.28c-.57,3.47-2.51,6.46-3.43,9.79-1,3.53-3.46,3.85-5.39.8-2.12-3.35-4.4-6.6-6.61-9.89-3.53-5.29-8.6-8.12-16.28-4.33-.35.18-.74.3-.51.21a3.68,3.68,0,0,0,3.34-1.28c4.54-5.63,13.44-3.8,17.48,1.32,2.12,2.68,3.36,6,5.81,8.52,2.21-1.51,2.63-4.77,5.63-5.08Z"/><path class="cls-2" d="M226.58,177.53a.74.74,0,0,1,.24.94c-.42,2.17-.78,5-2.95,5.43s-3-2.36-4.16-3.94a42.84,42.84,0,0,0-15.9-13.32c-3-1.43-6.38-.14-9.05-1.9,4.6-4.18,12.83-2.8,18.91,2a36.36,36.36,0,0,1,8.25,9.08C223.26,177.89,224.23,179.37,226.58,177.53Z"/><path class="cls-2" d="M112.71,206.29a14.45,14.45,0,0,1,8.86,4.7c1.64,1.7,3,2.11,4.51-.24,1.75-2.64,4.25-4.67,6.49-6.9.66-.66,1.47-1.08,2.2-.65.93.54.14,1.58-.09,2.09a63.92,63.92,0,0,1-8.3,13.72c-.92,1.14-2.21,2.5-3.73,2.15-1.82-.41-2.18-2.19-2.31-4-.27-3.56-2.75-5.91-5-8.31C114.49,208,113.25,207.33,112.71,206.29Z"/><path class="cls-2" d="M167.78,173.34c1.13-.13.07-1.9,1.52-1.89l-1.56,1.83Z"/><path class="cls-3" d="M222.41,354.73c.35-.37.68-1.38.86-1.15.73,1-.62.69-.89,1.12Z"/><polygon class="cls-3" points="222.38 354.7 222.28 354.86 222.41 354.73 222.38 354.7"/><path class="cls-1" d="M335.51,186c3.23.23,7.31-1.75,9.5.52,2,2,.54,6,.76,9.17.19,2.61.28,5.22.52,7.82.19,2.06-.46,3-2.7,3-4.94,0-9.88.26-14.82.55-2.48.14-3.73-.47-4-3.29-.42-5.09-.26-10.18-.45-15.26-.06-1.73.8-2.52,2.49-2.52Z"/><path class="cls-1" d="M233.05,255.18c-4,0-6.22-2.39-6.17-6.6,0-3.4,2.91-6.87,5.8-7,3.39-.16,6.79,3.32,6.78,6.95A6.8,6.8,0,0,1,233.05,255.18Z"/><path class="cls-1" d="M337,296.24c10.55.44,20.54,1.33,30.09,4.72a34.4,34.4,0,0,1,12.88,7.8c2.19,2.15,1.69,3.67.29,5.65-3.09,4.39-7.49,7.25-12,9.76a83.49,83.49,0,0,1-25.56,8.77,114,114,0,0,1-36.05.94c-11.73-1.59-22.66-5.19-33.4-9.78-1.84-.79-4.32-1.4-4.71-3.5s2.29-2.44,3.66-3.37A116,116,0,0,1,309,300.31,155.25,155.25,0,0,1,337,296.24Zm30.53,15.65c-.11-3.58-3-6.64-6.06-6.44-3.27.2-6.33,3.7-6.17,7.05.19,3.77,2.72,6.35,6.2,6.31S367.59,315.75,367.48,311.89Z"/><path class="cls-3" d="M367.48,311.89c.11,3.86-2.52,6.88-6,6.92s-6-2.54-6.2-6.31c-.16-3.35,2.9-6.85,6.17-7.05C364.5,305.25,367.37,308.31,367.48,311.89Z"/><rect class="cls-4" width="500" height="500"/></g></g></svg>