<svg xmlns="http://www.w3.org/2000/svg" viewBox="0 0 500 500"><defs><style>.cls-1{fill:#6bc233;}.cls-2{fill:#122a0f;}.cls-3{fill:none;}</style></defs><g id="Calque_2" data-name="Calque 2"><g id="Calque_1-2" data-name="Calque 1"><path class="cls-1" d="M107.63,112.06c15-16.6,33-29.19,52.84-39.31a192.08,192.08,0,0,1,61.4-19.34,196.75,196.75,0,0,1,60.89.65c44,7.65,81.53,27.35,112.25,59.84a7,7,0,0,1,.81,1.31c-.83.14-1.4.75-.87,1.41,4.14,5.21,8.3,10.42,12.64,15.47.87,1,1.37-.21,1.49-1.12,6.53-.79,12.26-4.06,18.4-6,9.67-3.08,18.86-7.55,28.79-9.85-.72,2.13-.14,4.1.59,6.13,11.26,31,22.42,62,33.79,93,1.28,3.48.75,4.94-2.74,6.17-12.57,4.42-25,9.21-37.6,13.61-3.38,1.18-4.68,2.86-4.52,6.48a199.76,199.76,0,0,1-36,121.86C385.1,397,352.38,421.32,311.9,435c-38.76,13.09-77.85,12.68-117,2.38-12.55-3.3-24.33-9-35.8-15.17a194.18,194.18,0,0,1-64-54.46c-2.13-2.83-4.07-3.14-7.12-2-12.84,4.72-25.77,9.19-38.57,14-3.05,1.14-4.5.63-5.42-2.44-1.09-3.66-2.4-7.25-3.7-10.84C31.72,343,23.33,319.6,14.58,296.29c-2.31-6.14-3.22-13-8.15-18l45.5-16.89c.94,1.31,2.09,1.54,2.8,0a9.41,9.41,0,0,0,.4-3.59c.1-10.52-.47-21.1.43-31.56.81-9.39,3.25-18.6,5.69-27.8A203.62,203.62,0,0,1,77.13,158.2a191.16,191.16,0,0,1,29.11-41.77C107.19,115.39,109.9,114.35,107.63,112.06ZM73.34,189c-1.27.91-1.78,1.89-.22,3-.21,1-.33,2-.63,3A187,187,0,0,0,64,251.84c0,3.46.27,5.24,4.58,3.6,15.51-5.9,31.14-11.47,46.72-17.17,2.47,2,2.84.26,3-1.72a135.43,135.43,0,0,1,17.83-55.5c.58-1,2.78-2.55-.1-3.65a49,49,0,0,1,2.57-4.53c38.64-54.41,99.66-66.85,148.73-53.19a131.12,131.12,0,0,1,56.11,32c2.22,2.12,4,2.58,6.89,1.49,14.27-5.38,28.65-10.5,43-15.73,1.28-.46,2.81-.58,3.39-2.16.73-.46,3.16.48,1.62-1.84a43.06,43.06,0,0,0-3.25-4.13c-12.35-14.46-26-27.31-42.46-37.21-13-7.81-26.35-14.85-40.44-20.13A166.42,166.42,0,0,0,243,61.6Q136.77,68.13,84.51,161c-4.94,8.77-9.91,17.79-11.26,28.12ZM332.45,159.3c5.38-.55,1.93-2.54.54-3.86-17.76-16.74-39.63-25.62-63-29.4-44.94-7.25-82.73,7.76-113.8,40.52-1,1-2.09,1.95-1.71,3.6,0,1.39-1.24,1.9-1.92,2.81a8,8,0,0,0-3.3,2.42,121,121,0,0,0-22.63,56.83c-.21,1.61.49,1.29,1.39.86,2.24.44,4.1-.78,6-1.48q72.11-26.11,144.18-52.31C296.33,172.7,314.38,166,332.45,159.3ZM167.72,340.48a16.71,16.71,0,0,0,1.95,2.38,122.61,122.61,0,0,0,176.89-16.57c13.86-17.53,22.76-37.35,25.11-59.81.89-.89,3-1.25,1.79-3.11-.84-1.33-2.19-.47-3.33-.1l-1.5.51c-27.56,9.71-54.67,20.65-82.33,30.1-24.9,8.51-49.49,17.9-74.22,26.9q-22.26,8.1-44.5,16.23c-1,.38-2.77.33-2.45,2.11C165.35,340.37,166.74,340.23,167.72,340.48ZM436.5,243.71c.42-1.22,2.2-2.27.88-3.69-1.14-1.23-2.62-.36-3.92.11Q410,248.7,386.53,257.25a7.31,7.31,0,0,0-4.51,4.6c-1.74,4.1-.55,8.35-1.47,12.4-10.62,47-37.41,81-82.66,98.51-36.62,14.14-73.25,12.89-108.52-5.79-8.86-4.69-17.76-9.64-24.66-16.88-6.64-7-12.68-8.61-21.81-4.5-12.43,5.59-25.63,9.46-38.47,14.16-1.32.48-3.43.56-3.33,2.64.06,1.21,1.6,1.11,2.54,1.47.19,1.71,1.47,2.77,2.48,3.94,46.35,53.54,104.82,77.27,174.73,65.43,70.72-12,118.85-53.75,144.57-120.82C433.89,290.34,436.45,267.2,436.5,243.71Zm11.87-110.87c.42-1.15,2-2.62-.78-2.93a13.09,13.09,0,0,0-6.13,1.23c-13.09,5-26.34,9.53-39.5,14.33q-122.25,44.58-244.57,88.94Q95.85,256.76,34.25,279c-3.63,1.31-7.31,2.49-10.87,4-1.85.77-3.51,2.06,0,3-.45,1.65.3,3.08.83,4.56,8.79,24,17.67,48,26.24,72.15,1.47,4.13,2.91,4.76,7,3.26q85.91-31.41,171.93-62.49Q325,268.76,420.65,234c17.47-6.35,34.89-12.84,52.41-19.06,3.44-1.22,4.41-2.55,2.77-6s-2.56-6.9-3.81-10.36Q460.2,165.73,448.37,132.84Z"/><path class="cls-2" d="M6.43,278.28c4.93,5,5.84,11.87,8.15,18C23.33,319.6,31.72,343,40.23,366.43c1.3,3.59,2.61,7.18,3.7,10.84.92,3.07,2.37,3.58,5.42,2.44,12.8-4.8,25.73-9.27,38.57-14,3-1.12,5-.81,7.12,2a194.18,194.18,0,0,0,64.05,54.46c11.47,6.14,23.25,11.87,35.8,15.17,39.16,10.3,78.25,10.71,117-2.38,40.48-13.67,73.2-38,97.89-72.69a199.76,199.76,0,0,0,36-121.86c-.16-3.62,1.14-5.3,4.52-6.48,12.58-4.4,25-9.19,37.6-13.61,3.49-1.23,4-2.69,2.74-6.17-11.37-30.94-22.53-62-33.79-92.95-.73-2-1.31-4-.59-6.13,2.2.54,2.05,2.64,2.6,4.16,11.81,32.23,23.5,64.51,35.42,96.7,1.54,4.17.66,5.73-3.47,7.14-12.77,4.34-25.35,9.24-38.09,13.67-3.31,1.14-4.45,2.51-4.39,6.25,1.12,70.47-26.31,127.44-83.47,168.56-49.26,35.44-104.6,45-163.55,30.67-43.89-10.67-79.54-34.71-107.47-70.09-2.53-3.2-4.48-3.28-7.85-2-12.77,4.82-25.67,9.29-38.44,14.13-3.28,1.24-4.65.46-5.79-2.71Q23.9,332.16,5.89,282.79C5.36,281.34,3.92,279.49,6.43,278.28Z"/><path class="cls-2" d="M107.63,112.06c2.27,2.29-.44,3.33-1.39,4.37A191.16,191.16,0,0,0,77.13,158.2a203.62,203.62,0,0,0-15.88,40.23c-2.44,9.2-4.88,18.41-5.69,27.8-.9,10.46-.33,21-.43,31.56a9.41,9.41,0,0,1-.4,3.59c-.71,1.55-1.86,1.32-2.8,0-.62-21.2.65-42.23,6.4-62.77C67.55,165.67,83.6,136.59,107.63,112.06Z"/><path class="cls-2" d="M409.08,131c-.12.91-.62,2.13-1.49,1.12-4.34-5-8.5-10.26-12.64-15.47-.53-.66,0-1.27.87-1.41A163.53,163.53,0,0,1,409.08,131Z"/><path class="cls-2" d="M448.37,132.84c-5.54.3-10.33,3-15.37,4.88q-104.79,38-209.49,76.18Q126.75,249.11,30,284.26c-2.12.77-4.16,1.9-6.54,1.73-3.54-1-1.88-2.27,0-3,3.56-1.48,7.24-2.66,10.87-4q61.57-22.28,123.14-44.57Q279.7,190,402,145.47c13.16-4.8,26.41-9.35,39.5-14.33a13.09,13.09,0,0,1,6.13-1.23C450.35,130.22,448.79,131.69,448.37,132.84Z"/><path class="cls-2" d="M436.5,243.71c-1.87-.93-3.37.34-4.95.91-13.51,4.88-26.94,10-40.55,14.58-4.41,1.49-6.2,3.54-6.84,8.25-5.55,41.14-25.7,73.61-60.48,96-53.23,34.34-120.62,27.78-165.56-14.34-3-2.78-5.23-3.47-9.1-2-15,5.78-30.24,11.17-45.37,16.7-1-.36-2.49-.26-2.55-1.47-.1-2.08,2-2.16,3.33-2.64,12.84-4.7,26-8.57,38.47-14.16,9.13-4.11,15.17-2.47,21.81,4.5,6.9,7.24,15.8,12.19,24.66,16.88,35.27,18.68,71.9,19.93,108.52,5.79,45.25-17.48,72-51.48,82.66-98.51.92-4.05-.27-8.3,1.47-12.4a7.31,7.31,0,0,1,4.51-4.6q23.48-8.52,46.93-17.12c1.3-.47,2.78-1.34,3.92-.11C438.7,241.44,436.92,242.49,436.5,243.71Z"/><path class="cls-2" d="M396.75,135.27C377.19,110.6,353,91.76,324,79.64c-59.78-25-117.61-20-173.14,13.14a170.73,170.73,0,0,0-37.34,30.44,176.87,176.87,0,0,0-25.88,36.29,279.19,279.19,0,0,0-13.53,29.31c-.08.17-.57.18-.87.27,1.35-10.33,6.32-19.35,11.26-28.12Q136.67,68.3,243,61.6A166.42,166.42,0,0,1,312.22,72c14.09,5.28,27.46,12.32,40.44,20.13,16.45,9.9,30.11,22.75,42.46,37.21a43.06,43.06,0,0,1,3.25,4.13C399.91,135.75,397.48,134.81,396.75,135.27Z"/><path class="cls-2" d="M371.67,266.48c-22.65,8.12-45.33,16.17-67.94,24.38q-65.88,24-131.71,48.05l-4.3,1.57c-1-.25-2.37-.11-2.59-1.36-.32-1.78,1.42-1.73,2.45-2.11q22.23-8.16,44.5-16.23c24.73-9,49.32-18.39,74.22-26.9,27.66-9.45,54.77-20.39,82.33-30.1l1.5-.51c1.14-.37,2.49-1.23,3.33.1C374.64,265.23,372.56,265.59,371.67,266.48Z"/><path class="cls-2" d="M332.45,159.3c-9.56-9.8-21.12-16.67-33.58-21.91-22.15-9.32-45.14-12.76-69-8.5-18.8,3.36-36.16,10-51.7,21.41a179.28,179.28,0,0,0-20.35,17.76c-.95.95-1.62,2.38-3.35,2.1-.38-1.65.74-2.58,1.71-3.6C187.24,133.8,225,118.79,270,126c23.39,3.78,45.26,12.66,63,29.4C334.38,156.76,337.83,158.75,332.45,159.3Z"/><path class="cls-2" d="M115.32,238.27c2.12-21.93,8.72-42.33,20.76-60.88,2.88,1.11.68,2.66.1,3.66a135.43,135.43,0,0,0-17.83,55.5C118.16,238.53,117.79,240.26,115.32,238.27Z"/><path class="cls-2" d="M152.54,173c.32,1.62-.48,2.86-1.37,4.06-12.4,16.75-19.85,35.55-23.17,56.05-.9.43-1.6.75-1.39-.86a121,121,0,0,1,22.63-56.83A8,8,0,0,1,152.54,173Z"/><path class="cls-2" d="M73.34,189c1.21,1.1-.11,2-.22,3C71.56,190.84,72.07,189.86,73.34,189Z"/><path class="cls-1" d="M260.45,212.47c6.13-3.61,12.31-7.09,19.81-6.58-1.06,3.16.65,5.83,1.63,8.58,5.37,15,10.71,30,16.27,44.93,1.26,3.38.3,4.62-2.89,5.69s-5.13,1.36-6.36-2.53c-3-9.66-7.18-18.92-10.18-28.62-1.09-3.54-2.13-7.88-5.6-11-1.11,2.85-.76,5.31-.55,7.68,1.09,11.87,2.22,23.74,3.56,35.59.35,3.15.93,5.67-3.11,7-3.86,1.28-6.59,2.4-9.49-2.26-6.76-10.85-14.29-21.22-21.52-31.78-.67-1-1.23-2.25-3.17-1.24q3,6,6,12c2,9.07,6.14,17.42,8.92,26.23.57,1.79,1.77,3.41,1.54,5.42-1.49-1.72-3-.85-4.72-.26-6.54,2.26-6.55,2.19-9-4.56q-8.29-22.67-16.61-45.32c-.76-2.09-1.1-4.62-4.26-4.4,5.22-4.72,12.14-5.37,18.41-7.52,1.92-.66,2.89,1.62,3.88,3,5.68,8,11.29,16.07,17,24.07,1,1.38,1.56,3.23,3.57,3.62.95.8.4,2.76,2.71,3.08-1.21-12.75-2.38-25.24-3.56-37.73C262.52,214.13,262.14,212.85,260.45,212.47Z"/><path class="cls-1" d="M160.22,249c9.45-5.81,20-8.86,30.5-12,15-4.49,23.8,1.76,25,17.1-2.48,5.74-4.91,11.51-11.13,14.45,1.93,2,3.15.33,4.42.48,7.11,4.81,14.55,9.13,21.07,14.78,1.42,1.23,3.25,2.08,3.72,4.15a76,76,0,0,0-8.49,2.48c-3.15,1.31-5.57,1.39-8.51-1-5.27-4.25-11.06-7.85-16.58-11.79-4.67-3.34-9.51-2.78-14.39-.73-2.7,1.13-2.76,2.49.08,3.65l7.62,22.26c-2.58-.44-4.87.66-7,1.69-3.64,1.72-5.09.58-6.29-3.1-2.77-8.49-5.84-16.9-9.15-25.19C167.43,267.21,165.26,257.54,160.22,249Zm41.29,9.1c1.59,2,1.93.23,2.23-.85a8.47,8.47,0,0,0-9.55-10.41c-6.07.77-11.6,3.49-17.23,5.73-2.4,1-2.37,2.42.38,3.17.2,3.73,2.22,6.9,3.23,10.38.29,1,.73,2.34,2,1.77C189.06,265,196.93,264.72,201.51,258.12Z"/><path class="cls-1" d="M426.14,190.86c10.38,3.7,18.16,11.19,26.35,18.08-3.88-.77-7.2,1.24-10.41,2.7-3.44,1.56-5.81.81-8.53-1.24-5-3.79-10.29-7.27-15.34-11-4.7-3.49-9.55-3.68-14.86-1.57-2.38.94-3.49,1.87-2.47,4.57,2,5.4,3.53,11,5.86,16.29,1.88,4.22.44,5.58-3.39,7.1-4.13,1.64-5.37.26-6.67-3.42-5.47-15.49-11.18-30.89-16.93-46.27-.7-1.87-.51-4.9-3.91-4.67-.44-1.66.76-2.2,1.92-2.61,11.57-4,22.78-9.11,34.76-12,4.05-1,7.89-.75,11,2.47,10.75,12.4,10.72,17.89-.21,29.1-.72.74-1.91,1.53-1.08,2.57C423.39,192.4,424.82,190.84,426.14,190.86Zm-7.28-14.81c.73-.13,1.36-.38,1.27-1.28-.47-4.83-4.18-8-9.2-6.8-5.91,1.43-11.59,3.78-17.35,5.79-1.47.51-2.44,1.63-1.88,3.24,1.5,4.27,3,8.58,4.8,12.71.79,1.78,1.77,1.14,1.86-.66,5.3-1,10.16-3.3,15.18-5.14C417.33,182.52,419.06,180,418.86,176.05Z"/><path class="cls-1" d="M119.39,276.85c1.78,10.86,2.07,11,12,7.48,5.25-1.89,10.57-3.63,15.7-5.81,4.15-1.76,6.65-1,7.66,3.56.44,2,1.9,3.74,1.67,5.95-.46-.25-1-.8-1.37-.72-10,2-19.3,6.07-28.66,9.89-2.75,1.12-.45,2.3,1,3a88.44,88.44,0,0,1,2.89,8.39c1,4,2.63,5.11,6.74,3.39,7.4-3.09,15.16-5.33,22.54-8.45,4.68-2,7.24-1.21,8.31,3.83.35,1.69.87,3.34,1.32,5-2.35-.73-4.46.07-6.63.86q-17.31,6.29-34.65,12.47c-1.64.58-3.54,2.05-4.68-1-3.13-8.27-6.94-16.34-9.45-24.79-2.61-8.75-6.05-17.17-9-25.77-.66-1.91-1.3-4.18-4.14-4,1.61-2.45,4.49-2.32,6.81-3.2,10.91-4.1,22-7.71,32.81-12.1,5-2,7.48-1.07,8.63,4,.37,1.67.86,3.32,1.3,5-11.59.72-21.59,6.45-32.12,10.42C115.26,275.34,118,276.39,119.39,276.85Z"/><path class="cls-1" d="M349.22,233.91c7.11-.56,13.16-4.39,19.83-6.34,4-1.17,7.93-2.8,11.88-4.23,1.1-.4,2.08-.68,2.05,1a2,2,0,0,0-.61,2.78c2.42,4.76-.17,6.26-4.26,7.67q-16.38,5.61-32.52,11.88c-3.58,1.39-5,.8-6.36-3C333.77,228.08,328,212.53,322.14,197c-.71-1.87-.34-5.41-4.23-4.68-.5-2.09,1.25-2.26,2.45-2.7q20.2-7.4,40.44-14.69c1.21-.44,2.63-1.5,3.51.54-1.7.93-1.3,2.44-.65,3.62,2.31,4.22.16,5.6-3.6,6.85-7.44,2.46-14.74,5.33-22.08,8.09-1.68.63-4.91,1.09-3.91,3.16,1.79,3.7-1,9.48,4.94,11.23.14,0,.45-.47.68-.72,6.29,0,11.45-3.67,17.25-5.28,3.51-1,6.85-2.53,10.3-3.74,1.41-.5,3.11-1.46,3.63,1.12-2.63.65-1.47,2.47-.88,3.67,1.85,3.69.48,5-3.2,6.09-7.14,2.2-14.09,5-21.09,7.66-1.86.7-4.32,1.15-3.16,4.24,1.46,3.91,2.85,7.85,4.32,11.76C347.3,234.4,347.83,235.81,349.22,233.91Z"/><path class="cls-1" d="M65.94,296.43c3.52,11.32,3.52,11.32,14.49,7.36,2.29-.83,4.59-1.63,6.88-2.45,8-2.87,9.36-1.93,9.94,7-7.4,2.69-14.82,5.37-22.2,8.13-1.06.39-2.67.65-2.46,2.27.16,1.29,1.61,1.05,2.54,1.39.89,6.67,4.27,12.53,6.1,18.89.48,1.66,1,3.33,1.42,5a9,9,0,0,0-7.11.64c-3.26,1.82-4.78.82-6-2.66C63.87,326,58,310.19,52.11,294.35c-.81-2.2-1.22-4.89-4.32-5.29,9.62-4.86,20.12-7.43,30-11.5.64-.26,1.32-.43,2-.66,11.25-4,11.28-4,14.09,8.06-1-.74-2.16-1.44-3.39-1-8.41,2.94-16.84,5.8-25.14,9C62.37,294.15,64.18,295.52,65.94,296.43Z"/><path class="cls-1" d="M292.83,200.67c3.17-1.5,6.34-3,9.49-4.49,2.45-1.19,3.92-.78,4,2.23-.66.36-1.16.89-.88,1.66q9.12,24.84,18.31,49.64c1,2.66,2.2,5-2.08,5.69-3,.49-6,4.07-8-2-5.05-15.05-10.76-29.89-16.26-44.79C296.3,205.76,295.72,202.54,292.83,200.67Z"/><path class="cls-2" d="M244.81,250q-3-6-6-12c1.94-1,2.5.25,3.17,1.24,7.23,10.56,14.76,20.93,21.52,31.78,2.9,4.66,5.63,3.54,9.49,2.26,4-1.34,3.46-3.86,3.11-7-1.34-11.85-2.47-23.72-3.56-35.59-.21-2.37-.56-4.83.55-7.68,3.47,3.08,4.51,7.42,5.6,11,3,9.7,7.14,19,10.18,28.62,1.23,3.89,3.21,3.59,6.36,2.53s4.15-2.31,2.89-5.69c-5.56-14.93-10.9-29.93-16.27-44.93-1-2.75-2.69-5.42-1.63-8.58q10.61,28.5,21.21,57c.76,2,.38,3.41-1.83,4a2.91,2.91,0,0,0-.5.16c-10,4.41-10,4.41-13.87-6-3-8.26-6.06-16.53-9.52-24.65-.43,11.09,1.82,21.84,2.88,32.69.39,4-.37,6.36-4.51,7.17a14.81,14.81,0,0,0-4.45,1.55c-3.24,1.84-5,.44-6.78-2.29-4.78-7.33-9.76-14.53-14.74-21.73C247.19,252.43,246.69,250.57,244.81,250Z"/><path class="cls-2" d="M375.84,171.4c3.4-.23,3.21,2.8,3.91,4.67,5.75,15.38,11.46,30.78,16.93,46.27,1.3,3.68,2.54,5.06,6.67,3.42,3.83-1.52,5.27-2.88,3.39-7.1-2.33-5.26-3.82-10.89-5.86-16.29-1-2.7.09-3.63,2.47-4.57,5.31-2.11,10.16-1.92,14.86,1.57,5.05,3.76,10.31,7.24,15.34,11,2.72,2,5.09,2.8,8.53,1.24,3.21-1.46,6.53-3.47,10.41-2.7a1.67,1.67,0,0,1-.82,2.6q-6.62,2.53-13.32,4.83c-1.77.61-2.91-.82-4.16-1.72-5-3.57-10.05-7.07-14.95-10.75s-9.89-6.16-16.11-2.32c2,5.72,4.24,11.79,6.38,17.88,2.28,6.43,2.13,6.73-4.06,9-8,2.91-8,2.92-10.89-5.13Q385.17,197.37,375.84,171.4Z"/><path class="cls-2" d="M292.83,200.67c2.89,1.87,3.47,5.09,4.54,8,5.5,14.9,11.21,29.74,16.26,44.79,2,6,5,2.45,8,2,4.28-.71,3.08-3,2.08-5.69q-9.24-24.79-18.31-49.64c-.28-.77.22-1.3.88-1.66,1.81.69,1.75,2.52,2.27,3.92,5.92,16.12,11.68,32.3,17.73,48.37,1.63,4.33,1.22,6.51-3.7,8-8.89,2.7-8.78,3-12-5.76-5.7-15.65-11.44-31.28-17-47C293,204.35,291.21,202.68,292.83,200.67Z"/><path class="cls-2" d="M317.91,192.33c3.89-.73,3.52,2.81,4.23,4.68,5.86,15.52,11.63,31.07,17.09,46.73,1.32,3.78,2.78,4.37,6.36,3q16.16-6.24,32.52-11.88c4.09-1.41,6.68-2.91,4.26-7.67a2,2,0,0,1,.61-2.78c1.75,1.23,1.78,3.32,2.54,5,1.77,4,.71,6.25-3.69,7.75-12.91,4.4-25.68,9.21-38.49,13.89-2,.74-3.73,1.6-4.85-1.56C331.73,230.41,324.79,211.38,317.91,192.33Z"/><path class="cls-2" d="M100.61,270.15c2.84-.19,3.48,2.08,4.14,4,3,8.6,6.4,17,9,25.77,2.51,8.45,6.32,16.52,9.45,24.79,1.14,3,3,1.55,4.68,1q17.36-6.17,34.65-12.47c2.17-.79,4.28-1.59,6.63-.86.44,2.64-1.78,2.63-3.29,3.18-13.29,4.88-26.62,9.67-39.88,14.62-2.54.94-4.07,1.08-5.16-1.95-6.63-18.52-13.43-37-20.12-55.49A8.6,8.6,0,0,1,100.61,270.15Z"/><path class="cls-2" d="M47.79,289.06c3.1.4,3.51,3.09,4.32,5.29C58,310.19,63.87,326,69.53,341.94c1.23,3.48,2.75,4.48,6,2.66a9,9,0,0,1,7.11-.64c-1.16,1.9-11,6.67-12.8,6.25-1.22-.28-1.56-1.29-1.91-2.26q-10.26-28.24-20.5-56.5A2,2,0,0,1,47.79,289.06Z"/><path class="cls-2" d="M160.22,249c5,8.52,7.21,18.19,10.84,27.27,3.31,8.29,6.38,16.7,9.15,25.19,1.2,3.68,2.65,4.82,6.29,3.1,2.17-1,4.46-2.13,7-1.69.93,1.73-.07,2.4-1.49,3.16-10.79,5.72-11.61,5.41-15.76-6.07-5.65-15.58-11.36-31.14-17-46.75C158.83,251.84,156.59,249.7,160.22,249Z"/><path class="cls-2" d="M220.66,227.07c3.16-.22,3.5,2.31,4.26,4.4q8.31,22.67,16.61,45.32c2.47,6.75,2.48,6.82,9,4.56,1.71-.59,3.23-1.46,4.72.26-3,4.28-8.15,3.68-12.26,5.44-.92.4-1.32-.86-1.6-1.69C234.59,265.89,226.7,246.81,220.66,227.07Z"/><path class="cls-2" d="M185.92,280.63c-2.84-1.16-2.78-2.52-.08-3.65,4.88-2.05,9.72-2.61,14.39.73,5.52,3.94,11.31,7.54,16.58,11.79,2.94,2.37,5.36,2.29,8.51,1a76,76,0,0,1,8.49-2.48c1.24.91,2.45,1.93.1,2.83-4.06,1.56-8.18,3-12.26,4.47-2,.73-3.28-.53-4.69-1.54-5.52-3.94-11.11-7.8-16.55-11.86C195.77,278.43,191.07,277.49,185.92,280.63Z"/><path class="cls-2" d="M339.69,207.71c-.23.25-.54.76-.68.72-5.93-1.75-3.15-7.53-4.94-11.23-1-2.07,2.23-2.53,3.91-3.16,7.34-2.76,14.64-5.63,22.08-8.09,3.76-1.25,5.91-2.63,3.6-6.85-.65-1.18-1.05-2.69.65-3.62C369,186.11,369,186.11,358.44,190c-5.88,2.14-11.68,4.55-17.68,6.29-4.13,1.19-4.71,3.07-2.88,6.57A39,39,0,0,1,339.69,207.71Z"/><path class="cls-2" d="M349.22,233.91c-1.39,1.9-1.92.49-2.36-.68-1.47-3.91-2.86-7.85-4.32-11.76-1.16-3.09,1.3-3.54,3.16-4.24,7-2.64,13.95-5.46,21.09-7.66,3.68-1.12,5-2.4,3.2-6.09-.59-1.2-1.75-3,.88-3.67,3.9,10.34,3.9,10.35-6.47,14.13-5.59,2-11.16,4.1-16.79,6-2.25.77-3.11,1.62-2,4.12C347.09,227.23,348.05,230.62,349.22,233.91Z"/><path class="cls-2" d="M260.45,212.47c1.69.38,2.07,1.66,2.21,3.14,1.18,12.49,2.35,25,3.56,37.73-2.31-.32-1.76-2.28-2.71-3.08C262.36,237.68,260.65,225.14,260.45,212.47Z"/><path class="cls-2" d="M119.39,276.85c-1.36-.46-4.13-1.51-1.35-2.57,10.53-4,20.53-9.7,32.12-10.42.32,2.63-2,2.51-3.41,3C137.65,270.27,128.52,273.55,119.39,276.85Z"/><path class="cls-2" d="M426.14,190.86c-1.32,0-2.75,1.54-3.88.11-.83-1,.36-1.83,1.08-2.57,10.93-11.21,11-16.7.21-29.1,9.93,2.49,13.91,18.21,6.81,27C429.08,187.94,427.55,189.36,426.14,190.86Z"/><path class="cls-2" d="M127.37,300.18c-1.42-.68-3.72-1.86-1-3,9.36-3.82,18.66-7.9,28.66-9.89.39-.08.91.47,1.37.72-.2,2.7-2.68,2.41-4.26,3C144,294.19,135.65,297.15,127.37,300.18Z"/><path class="cls-2" d="M65.94,296.43c-1.76-.91-3.57-2.28-.57-3.45,8.3-3.24,16.73-6.1,25.14-9,1.23-.42,2.38.28,3.39,1-.63,2.37-2.93,2.22-4.58,2.85C81.57,290.78,73.74,293.57,65.94,296.43Z"/><path class="cls-2" d="M75.13,320.08c-.93-.34-2.38-.1-2.54-1.39-.21-1.62,1.4-1.88,2.46-2.27,7.38-2.76,14.8-5.44,22.2-8.13,1.45,2.08,1.53,3.4-1.42,4.37C88.87,314.94,82,317.58,75.13,320.08Z"/><path class="cls-2" d="M209,269.07c-1.27-.15-2.49,1.51-4.42-.48,6.22-2.94,8.65-8.71,11.13-14.45C216.86,260.63,214.24,265.43,209,269.07Z"/><path class="cls-1" d="M253.49,399c3.13-7.35,9.54-9,16.58-9.55,7.26-.56,12.72,2.49,16.77,8.39,1.69,2.46,1.68,5.21,1.48,8-.95.41-1.12,1.07-.95,2.09,1.9,11.19-6,17.5-13.05,18.89-9.65,1.91-17.29-3-20-12.45C252.88,409.24,253.83,404.1,253.49,399Zm8.32,16.1c2.55,3.51,4.82,7.76,10.11,6.85,4.64-.8,7.35-4.07,8.58-8.56,2.82-3.13.89-6.38.44-9.71-.76-5.65-4.29-8.47-9.37-9-4.75-.51-9,1.27-11.35,5.93A12.78,12.78,0,0,0,261.81,415.09Z"/><path class="cls-1" d="M240.65,430.25H239c-6.2-1.7-8.34-6.88-10.46-12.12a31.34,31.34,0,0,0-2.82-5.61,7.3,7.3,0,0,0-7.24-3.41c-3.32.49-2.41,3.75-3,5.92-.44,1.5-.45,3.12-.9,4.62s.66,4.4-2.75,3.84c-3-.49-2.69-2.51-2.29-4.77,1.55-8.6,2.94-17.22,4.49-25.82.34-1.85.35-3.46-1-4.87a71.63,71.63,0,0,1,25.61,4.6,6.18,6.18,0,0,1,4.08,6.16c-2.27,5-3.4,11.1-10.69,11.49-.68,0-1.41.78-.89,1.37s1.53.64,2.32.94c2.83,5.69,6.33,11.09,7.36,17.53Zm-7.38-26.62c3.41-3.11,2.92-6.6-1.34-8.05a57.73,57.73,0,0,0-8.2-1.75c-4.78-.87-6.52,1.61-5,7,1.37,1.49-.15,4.47.77,4.76a58.49,58.49,0,0,0,10.6,1.86C232.94,407.78,231.26,404.13,233.27,403.63Z"/><path class="cls-1" d="M292.43,386.17A59,59,0,0,1,311.3,378c6.67-1.5,12.36.78,15.87,7.11l-.41.25.47.59-.07-.1c.07.9,0,1.84,1.17,2.18l-.07-.11c.27,1.35.43,2.74.82,4.05,3.32,11.13.93,16.44-9.73,21.42a57.78,57.78,0,0,0-6.2,2.8c-3.59,2.23-5.12.76-6.53-2.65-3.13-7.59-6.64-15-9.89-22.58C295.81,388.82,295.07,386.69,292.43,386.17Zm15.8,15.46c.31,3.29,1.07,6.34,4.15,8.23.53,1.78,1.34,2.68,3.31,1.48a22,22,0,0,0,8.1-8.55c4.08-7.31-1.63-12.07-5-17.05-2.58-3.85-6.95-3-11-1.39-7.72,3.11-7.83,3.2-3.78,7.89l-.07-.09a16.15,16.15,0,0,0,4.28,9.57Z"/><path class="cls-1" d="M347.19,354.44c1-2.22,3.32-2.87,5-4.27,1.08-.91,2.32-1,3.21.17,5.59,7.46,11.39,14.77,16.11,22.85.62,1.06.2,2-.07,3-1.52.53-1.11,2-1.49,3.06-2.12,6.11-6.82,9.66-12.63,11.54-5.56,1.8-9.25-1.71-12.38-5.71-3.76-4.79-7.47-9.64-11.05-14.56-1.24-1.69-2.51-2.87-4.71-2.58,5.7-6.46,7.08-6.7,11.28,0,2.84,4.55,6.93,8.1,9.35,13,1.16,2.36,3.9,4.73,7.24,4.18,3.66-.59,5.7-3.1,6.31-6.74,3-1,1.84-3,.83-4.46-4.2-6-8.58-11.81-12.92-17.68A4.51,4.51,0,0,0,347.19,354.44Z"/><path class="cls-1" d="M177.24,374.32c.14-.3.36-.88.43-.86,8.09,2,15.81,4.82,22.39,10.09a4.75,4.75,0,0,1,1.79,4.67c-1.63.74-1.08,2.43-1.54,3.67-2.84,7.8-7.87,10.16-15.68,7.27-9-3.33-9-3.31-12.92,5.3-.71,1.55-.89,4.12-3.91,2.83s-1.43-3.05-.72-4.72c3.21-7.59,6.57-15.12,9.62-22.77C177.34,378.19,179.7,376.37,177.24,374.32ZM192.05,393c4.54-1.92,3.74-4.95,1.19-7.69-1.48-1.58-3.74-2.51-5.78-3.45-1.78-.84-4.28-2.7-5.53-.21-1.42,2.83-4.9,5.57-2.15,9.46-.5,4.18,3.31,3.31,5.33,4.49C188.42,397.54,190.1,394.86,192.05,393Z"/><path class="cls-1" d="M385.57,314.23l25.94,13.86c-3.16,5.75-7,3.93-11.34,1.35-5.22-3.1-10.82-5.56-16.11-8.56-3.22-1.82-5.43-1.14-6.51,2.16-1.39,4.24-4.32,5.32-8.3,4.92,4.24-8.3,8.32-16.7,12.8-24.87,1.78-3.25,3.72-1,5.3.73-1.26,2.63-2.57,5.23-3.77,7.88C382.67,313.69,382.6,315.2,385.57,314.23Z"/><path class="cls-1" d="M358.8,340.64c4.78-7.55,4.89-7.61,11.43-2.19,7.55,6.25,15,12.6,22.51,18.9-3.84,4.34-7.05,2.94-10.83-.52-5.66-5.19-11.86-9.8-17.78-14.72A6,6,0,0,0,358.8,340.64Z"/><path class="cls-2" d="M177.24,374.32c2.46,2.05.1,3.87-.54,5.48-3,7.65-6.41,15.18-9.62,22.77-.71,1.67-2.22,3.47.72,4.72s3.2-1.28,3.91-2.83c4-8.61,3.92-8.63,12.92-5.3,7.81,2.89,12.84.53,15.68-7.27.46-1.24-.09-2.93,1.54-3.67.85,12-7.16,18.1-18.38,14-7.21-2.65-7.56-2.78-10.16,4.61-1.75,5-4,5.72-8.26,3.15-2-1.19-2.75-1.94-1.61-4.42C168.2,395.2,172.66,384.74,177.24,374.32Z"/><path class="cls-2" d="M213,388c1.36,1.41,1.35,3,1,4.87-1.55,8.6-2.94,17.22-4.49,25.82-.4,2.26-.71,4.28,2.29,4.77,3.41.56,2.29-2.29,2.75-3.84s.46-3.12.9-4.62c.63-2.17-.28-5.43,3-5.92a7.3,7.3,0,0,1,7.24,3.41,31.34,31.34,0,0,1,2.82,5.61c2.12,5.24,4.26,10.42,10.46,12.12-4.19,1.55-7.56,1-9.56-3.53-1.7-3.84-3.48-7.64-5.31-11.41a5.08,5.08,0,0,0-5.09-3.1c-2.64.23-1.42,2.76-1.93,4.21a33.73,33.73,0,0,0-.91,5.16c-1.06,6-1.47,6.16-7.38,4.67-2-.51-2.56-1.17-2.19-3.18C208.8,411.41,210.87,399.72,213,388Z"/><path class="cls-2" d="M292.43,386.17c2.64.52,3.38,2.65,4.3,4.79,3.25,7.55,6.76,15,9.89,22.58,1.41,3.41,2.94,4.88,6.53,2.65a57.78,57.78,0,0,1,6.2-2.8c10.66-5,13-10.29,9.73-21.42-.39-1.31-.55-2.7-.82-4.05,7.7,9.65,5.35,21.93-5.38,27.17-4.83,2.36-10.5,6.63-14.71,5.6-4-1-4.84-8.6-6.92-13.35C298.19,400.34,294.45,393.61,292.43,386.17Z"/><path class="cls-2" d="M253.49,399c.34,5.11-.61,10.25.84,15.37,2.7,9.49,10.34,14.36,20,12.45,7.07-1.39,14.95-7.7,13.05-18.89-.17-1,0-1.68.95-2.09a17.39,17.39,0,0,1-7.44,21.55c-8.87,5.1-20.34,3.31-25.43-4.54C250.63,415.42,249.66,407.3,253.49,399Z"/><path class="cls-2" d="M329.19,368c2.2-.29,3.47.89,4.71,2.58,3.58,4.92,7.29,9.77,11.05,14.56,3.13,4,6.82,7.51,12.38,5.71,5.81-1.88,10.51-5.43,12.63-11.54.38-1.09,0-2.53,1.49-3.06.26.21.72.38.77.63,1.12,5.56-2.58,11.18-10.15,15.48-5.76,3.27-11.28,3.15-15.37-1.14A132.26,132.26,0,0,1,329.19,368Z"/><path class="cls-2" d="M369.25,328c4,.4,6.91-.68,8.3-4.92,1.08-3.3,3.29-4,6.51-2.16,5.29,3,10.89,5.46,16.11,8.56,4.34,2.58,8.18,4.4,11.34-1.35,1.78,3.54-1.2,5.8-2.76,8-1.33,1.84-3.4-.57-5-1.35-5.91-2.94-11.92-5.77-17.52-9.24-4.12-2.55-6.3-2.42-8.34,2.36C375.55,333.37,373.35,333.24,369.25,328Z"/><path class="cls-2" d="M358.8,340.64a6,6,0,0,1,5.33,1.47c5.92,4.92,12.12,9.53,17.78,14.72,3.78,3.46,7,4.86,10.83.52,2.22,4.1-2,5.34-3.67,7.41s-3-.74-4.17-1.7q-11.65-9.4-23.14-19C360.61,343.08,358.9,342.52,358.8,340.64Z"/><path class="cls-2" d="M347.19,354.44a4.51,4.51,0,0,1,4.09,1.86C355.62,362.17,360,368,364.2,374c1,1.45,2.21,3.49-.83,4.46-3.15-6.87-8.58-12.16-12.7-18.36C349.46,358.24,347.45,356.87,347.19,354.44Z"/><path class="cls-2" d="M233.41,412.6c-.79-.3-1.82-.38-2.32-.94s.21-1.34.89-1.37c7.29-.39,8.42-6.47,10.69-11.49C243.28,407.41,240.66,411.32,233.41,412.6Z"/><path class="cls-2" d="M385.57,314.23c-3,1-2.9-.54-2-2.53,1.2-2.65,2.51-5.25,3.77-7.88,3.14-.44,2.53,1.32,1.73,3.05C388,309.35,386.75,311.78,385.57,314.23Z"/><path class="cls-2" d="M328.33,388c-1.12-.34-1.1-1.28-1.17-2.18A1.51,1.51,0,0,1,328.33,388Z"/><path class="cls-1" d="M240.77,430.13l.4.54-.52-.42Z"/><path class="cls-2" d="M327.23,386l-.47-.59.41-.25A.52.52,0,0,1,327.23,386Z"/><path class="cls-1" d="M113.27,132.89c4.43-4.47,8.71-9.1,13.35-13.35,3.08-2.83,7.4-4.78,11.16-3,4.28,2.06,9,4.84,8,11.32-.54,3.42.53,5.11,4.81,5.54,4.74.47,10.11.4,14,4.29l-.89.71.16,0c-4.85,3.51-10,3.63-15.62,2a24.5,24.5,0,0,0-7.77-.87c-3.52.14-5.08,2.07-4.71,5,1.8,3.43,5,5.62,7.52,8.4,1,1.07,2.79,1.59,2.45,3.58-5.58,3.57-8.76,0-12.32-3.73C126.88,146,120,139.5,113.27,132.89Zm16.16,5.8c.15,1.08.89,1.72,1.77,1.14a23.1,23.1,0,0,0,7.92-8.14,5.67,5.67,0,0,0-.8-6.83c-2.06-2-5.21-2-6.74-.64-2.87,2.55-6.69,4.55-7.66,8.82A9,9,0,0,0,129.43,138.69Z"/><path class="cls-1" d="M244,82.69a64.77,64.77,0,0,1-.24-6.81c.44-6.76,3.68-8.42,9.34-5,1.56.94.74,2.1.69,3.21-.33,6.65-.7,13.31-1,20-.25,5.32,1.87,8,6.47,8.32,4.38.27,6.28-1.79,6.65-7.42.43-6.65,1-13.3,1.08-20,0-4,1.86-4.44,5.24-4.38,3.65.07,4.94,1.22,4.56,4.94-.76,7.31-1.16,14.65-1.71,22-1-.72-1.24-.27-1.56.79-2.77,9.16-6.87,11.45-17.54,10-7.74-1.09-10.91-5.4-11.16-14.38C244.68,90.15,246.11,86.27,244,82.69Z"/><path class="cls-1" d="M168.74,89.65c3.5-1.88,7.17-1.4,10.69-.37,11.86,3.43,20.42,23.87,11,33.18-2.81-1.3-3.83,1.6-5.59,2.55-7.63,4.1-14.58,4.08-20.16-.5-6.85-5.62-10-15.66-7.48-23.1,1.71-5,6-7.47,9.74-10.58l-.11.09C167.6,90.72,168.52,90.72,168.74,89.65Zm-4.21,11.8c-1.15,1.89-1.14,4-1,6.09.6,9.15,5.7,14.68,12.57,13.83,3.12-.39,5.39-2.2,7.57-4.23.52.77,1.13,1.5,1.87.29,2.81-4.55.66-13.7-4.35-18.71-3.1-3.09-11-4.07-14.91-1.47C165.19,98,162,98.81,164.53,101.45Z"/><path class="cls-1" d="M196.4,78.43a55.1,55.1,0,0,1,21.14-4.71c8-.08,13.89,7,15.51,17.61-.15,1.2-.39,2.4-.42,3.61-.27,9.77-3.79,14.12-13.43,16.53a56,56,0,0,0-6.6,1.71c-4.81,1.87-7.13.8-8-4.72-1.33-8.09-3.51-16-5.49-24C198.55,82.32,198.65,79.82,196.4,78.43Zm10.35,6.09c1.53,6.58,3.15,13.14,4.51,19.75.36,1.8,1.5,3.51,2.67,2.78,3.29-2.06,8-1.53,10.09-5.69,4.35-4.26,1.43-8.85.36-13.19-.94-3.84-3.08-7.09-7.56-7.69-3.36-.44-6.56.51-9.71,1.52C205.68,82.46,206.13,83.56,206.75,84.52Z"/><path class="cls-1" d="M98.28,156.16c4.13-4.22,10-5.28,14.53-2.63,5.41,3.15,7.84,8.51,6.23,14.17a18.56,18.56,0,0,1-2.44,5.74c-3.12,4.33-1.65,6.68,2.91,8.14.81.26,1.53.84,2.33,1.17,4.61,1.87,5.54,4.23,1,7.36-.66.12-1.56.58-2,.31-8.46-5.7-17.81-9.76-26.74-14.58-3.28-1.77-3.57-3.31-2-6.54C94.23,165,97.93,161.32,98.28,156.16Zm.26,13.46c1.48,3.93,4.39,5.18,8.35,4.44.36.32.9,1,1,.89,2.7-1.43,5.49-8.55,4.55-11.41-1.15-3.52-5.46-5.8-8.32-3.91C100.74,161.9,98.35,165.13,98.54,169.62Z"/><path class="cls-1" d="M306,85.94c1.95-7.43,2.09-7.65,8.85-4.42,7.48,3.58,15.62,5.75,22.49,10.62-3.16,3.65-6.63,4.31-10.86,1.6-2.35-1.51-3.8.06-4.75,2.29-2.4,5.59-5.14,11-7.26,16.75-1.94,5.23-4.17,9.24-10.74,6.65,2.92-9.79,8.22-18.6,11.63-28.19,1.08-.83,1.22-1.78-.08-2.39C312.37,87.48,309.58,85.46,306,85.94Z"/><path class="cls-1" d="M280.86,111.13q4-15.06,7.95-30.14c2-7.39,3.2-7.84,10.09-3.7-1.88,1.14-1.82,3.24-2.31,5-2.22,7.86-4.28,15.76-6.4,23.64C288.17,113.38,288.16,113.38,280.86,111.13Z"/><path class="cls-2" d="M196.4,78.43c2.25,1.39,2.15,3.89,2.67,6,2,8,4.16,16,5.49,24,.91,5.52,3.23,6.59,8,4.72a56,56,0,0,1,6.6-1.71c9.64-2.41,13.16-6.76,13.43-16.53,0-1.21.27-2.41.42-3.61,1.83,14.54-1.8,19.72-16.2,23.14-12.31,2.92-12.29,2.91-15.18-9.56-1.62-7-3.38-14-4.88-21C196.41,82.16,195.05,80.35,196.4,78.43Z"/><path class="cls-2" d="M166.92,90.83c-3.69,3.11-8,5.56-9.74,10.58-2.53,7.44.63,17.48,7.48,23.1,5.58,4.58,12.53,4.6,20.16.5,1.76-1,2.78-3.85,5.59-2.55-5.89,6.75-13.3,10.16-21.92,7.12-8.17-2.87-12.62-9.21-13.35-18.3C154.19,99.38,157.49,93.11,166.92,90.83Z"/><path class="cls-2" d="M98.28,156.16c-.35,5.16-4,8.79-6.13,13.14-1.55,3.23-1.26,4.77,2,6.54,8.93,4.82,18.28,8.88,26.74,14.58.4.27,1.3-.19,2-.31-.32,2.68-1.21,3.71-4.07,2.15-9.68-5.3-19.48-10.39-29.22-15.57-1.18-.63-3.09-1.17-2-2.95C91.06,167.84,92.62,160.74,98.28,156.16Z"/><path class="cls-2" d="M303.77,119.43c6.57,2.59,8.8-1.42,10.74-6.65,2.12-5.7,4.86-11.16,7.26-16.75,1-2.23,2.4-3.8,4.75-2.29,4.23,2.71,7.7,2.05,10.86-1.6-1.95,7.82-2,8-9.25,4.61-3.1-1.45-4.32-1-5.58,2.19-2.71,6.81-5.86,13.44-8.82,20.14C311.24,124.7,307.79,124.82,303.77,119.43Z"/><path class="cls-2" d="M244,82.69c2.13,3.58.7,7.46.8,11.18.25,9,3.42,13.29,11.16,14.38,10.67,1.49,14.77-.8,17.54-10,.32-1.06.54-1.51,1.56-.79-2.11,13-15.59,18.41-26.49,10.67-3-2.15-4.92-5-4.91-8.76C243.65,93.83,243.86,88.26,244,82.69Z"/><path class="cls-2" d="M113.27,132.89c6.73,6.61,13.61,13.08,20.14,19.88,3.56,3.7,6.74,7.3,12.32,3.73-5.42,7-5.41,7-11.47.91-6.88-6.89-13.7-13.83-20.71-20.59C112,135.32,111.13,134.38,113.27,132.89Z"/><path class="cls-2" d="M280.86,111.13c7.3,2.25,7.31,2.25,9.33-5.22,2.12-7.88,4.18-15.78,6.4-23.64.49-1.74.43-3.84,2.31-5-1.87,12.27-6,24-9,36-.53,2.12-1.95,2.68-3.4,1.87C284.54,114,280.26,115.89,280.86,111.13Z"/><path class="cls-2" d="M135.76,144.52c-.37-3,1.19-4.89,4.71-5a24.5,24.5,0,0,1,7.77.87c5.58,1.67,10.77,1.55,15.62-2-2.85,5.22-6.65,7-12.85,5.42C146.14,142.54,140.57,139.26,135.76,144.52Z"/><path class="cls-2" d="M306,85.94c3.54-.48,6.33,1.54,9.28,2.91,1.3.61,1.16,1.56.08,2.39C312.34,89.37,308.23,89.34,306,85.94Z"/><path class="cls-2" d="M168.74,89.65c-.22,1.07-1.14,1.07-1.93,1.27C166.86,89.59,168,90,168.74,89.65Z"/><path class="cls-2" d="M163.7,138.43l.89-.71C164.5,138.22,164.36,138.64,163.7,138.43Z"/><path class="cls-1" d="M270.93,167.1c4,.93,7.91-2,10.71-1.78,5,.37,10.47-.77,15.31,1.6-4.33,1.36-8.72,2.55-13,4.09-34.42,12.47-68.8,25.06-103.26,37.44-5.56,2-10.93,4.69-16.89,5.51.5-3.37,3.67-4.24,5.75-6.14,4.82.74,2.43-2.25,1.93-4-1.69-5.67-5.62-11.15-.7-17.19.72-.87.27-2.7.36-4.08,5.55-1.29,8.38,4,12.85,5.31,1.15.34,1.17.93.58,1.89-1.59,2.6.2,5.11,1.49,6.56,1.57,1.75,3.52-.94,5.29-1.63,2.75-1.07,5.32-2.6,8-3.93,4.2.08,2.15-2.66,1.51-4-1.78-3.77-2.2-7.36.07-11,2.46-5.77,6.18-6.84,11.9-4.08,2.64,1.28,6.13.79,9.25,1.11,1.05,1.37-.53,1.62-1,2.36-1.29,2,.17,3.72.95,5.28.93,1.85,2.45.13,3.6-.16,2.34-.59,4.6-1.52,6.9-2.31,3.89-.81,1.58-3.29,1-4.82-2.18-6-5.91-11.77-6.66-17.91-.8-6.61-.47-13.42-2-20,3.66,1.81,5.08,5.6,6.9,8.72,2.56,4.37,7,7.34,8.4,12.74.73,2.77,4.8,1.06,6.58-.09,1.34-.87,2.78-1.15,4.08-1.86,5.57-3,11-4.4,15.53,1.8C267,160.41,266.64,164.75,270.93,167.1Z"/><path class="cls-2" d="M163.82,214c6-.82,11.33-3.51,16.89-5.51,34.46-12.38,68.84-25,103.26-37.44,4.26-1.54,8.65-2.73,13-4.09,1.1.18,1.77,1,.91,1.7a15.75,15.75,0,0,1-4.26,1.95L226.47,195l-60.66,22.08c-1.6.58-3.23,1-5.35,1.71C160.68,216,161.27,214.32,163.82,214Z"/><path class="cls-1" d="M270.16,136.69c1.66-3.44,1.75-3.43,5.14.8-1,.85-.54,1.43.36,1.92l-.1-.14a64.47,64.47,0,0,1,2.32,6.26c1.39,5.4,5.25,10.36,3.1,16.43-1.27,1.33-1.27,1.33-4.63-1.91Q273.26,148.38,270.16,136.69Z"/><path class="cls-2" d="M224.92,135.18c1.48,6.62,1.15,13.43,2,20,.75,6.14,4.48,11.9,6.66,17.91.55,1.53,2.86,4-1,4.82-1.08-3.13-1.48-6.78-3.38-9.3-7.32-9.69-3.09-21.14-5.4-31.53.39-.65.79-1.3,1.19-1.94Z"/><path class="cls-2" d="M171.16,182.59c-.09,1.38.36,3.21-.36,4.08-4.92,6-1,11.52.7,17.19.5,1.71,2.89,4.7-1.93,4-1.93-3.6-.46-8.95-5.84-10.85-1.27-.45,0-1.81.49-2.5,2.95-3.76,4.44-8.13,5.59-12.67l1.36.8Z"/><path class="cls-2" d="M200.92,175.75c-2.27,3.66-1.85,7.25-.07,11,.64,1.36,2.69,4.1-1.51,4-1.66-2.41-.14-7.4-5.88-6.76,1.09-3,5.22-4.17,4.26-8.31C197.4,174.35,199.77,175.12,200.92,175.75Z"/><path class="cls-2" d="M270.16,136.69q3.1,11.69,6.19,23.36c-2.34-1.43-3.84-3-4-6.24-.19-4-1.54-7.94-2.63-11.84C269.19,140.06,268.72,138.35,270.16,136.69Z"/><path class="cls-2" d="M281,162c2.15-6.07-1.71-11-3.1-16.43a64.47,64.47,0,0,0-2.32-6.26c5.17,6,6.9,13.39,8.19,20.91C284.12,162.33,282.39,162.11,281,162Z"/><path class="cls-2" d="M270.93,167.1c-4.29-2.35-3.92-6.69-4.52-10.61,1.22.84,3.18.61,2.09,3.58C267.84,161.88,270,164.72,270.93,167.1Z"/><path class="cls-1" d="M224.91,135.18c-.4.64-.8,1.29-1.19,1.94-.65-1.51-2-3.21.15-4.34C224.45,132.48,225.27,134,224.91,135.18Z"/><path class="cls-2" d="M275.66,139.41c-.9-.49-1.37-1.07-.36-1.92C275.57,138.1,276.52,138.59,275.66,139.41Z"/><path class="cls-1" d="M171.17,182.6l-1.36-.8c.19-.53.59-.93,1.07-.5C171.15,181.54,171.09,182.16,171.17,182.6Z"/><path class="cls-2" d="M201.51,258.12c-.9-7.58-3.69-9.43-10.83-7.05-4.47,1.49-8.89,3.12-13.33,4.69-2.76-.75-2.79-2.21-.39-3.17,5.63-2.24,11.16-5,17.23-5.73a8.47,8.47,0,0,1,9.55,10.41C203.44,258.35,203.1,260.08,201.51,258.12Z"/><path class="cls-2" d="M280.5,413.38c-1.65-1.6-.65-3.62-.77-5.43-.45-6.51-4.48-10.72-10.11-10.36-5.87.38-9.28,4.63-8.88,11.32a54.87,54.87,0,0,0,1.07,6.19,12.8,12.8,0,0,1-1.59-14.51c2.38-4.66,6.6-6.44,11.35-5.93,5.08.54,8.61,3.36,9.37,9C281.39,407,283.32,410.25,280.5,413.38Z"/><path class="cls-2" d="M233.27,403.63c1.07-5-2.52-5.47-5.88-6s-7.64-3-8.63,3.17c-1.55-5.39.19-7.87,5-7a57.73,57.73,0,0,1,8.2,1.75C236.19,397,236.68,400.52,233.27,403.63Z"/><path class="cls-2" d="M323.79,402.79a27,27,0,0,0-4.13-11.58c-3.55-5.81-9.72-6.7-15-2.26-1.32,1.11.07,2.3-.59,3.29-4.05-4.69-3.94-4.78,3.78-7.89,4-1.61,8.39-2.46,11,1.39C322.16,390.72,327.87,395.48,323.79,402.79Z"/><path class="cls-2" d="M304,392.15a17.92,17.92,0,0,1,4.28,9.57A16.15,16.15,0,0,1,304,392.15Z"/><path class="cls-2" d="M308.23,401.63c2.44,2.21,2.91,5.42,4.15,8.23C309.3,408,308.54,404.92,308.23,401.63Z"/><path class="cls-2" d="M192.05,393c.62-4.33-3.7-9.18-8-9.06-1.47,0-1.52,1.19-1.94,2-.86,1.68-1.59,3.43-2.37,5.15-2.75-3.89.73-6.63,2.15-9.46,1.25-2.49,3.75-.63,5.53.21,2,.94,4.3,1.87,5.78,3.45C195.79,388.06,196.59,391.09,192.05,393Z"/><path class="cls-2" d="M183.66,117.14c2.22-6.22-.44-14.42-5.86-18-5.14-3.39-9.26-.83-13.27,2.31-2.56-2.64.66-3.49,1.74-4.2,3.94-2.6,11.81-1.62,14.91,1.47,5,5,7.16,14.16,4.35,18.71C184.79,118.64,184.18,117.91,183.66,117.14Z"/><path class="cls-2" d="M224,101.36l.51-2c.11-.1.32-.22.3-.3a4.52,4.52,0,0,0-.25-.79c-.35-2.06-.58-4.16-1.08-6.19-2.36-9.6-6-11.21-16.75-7.59-.62-1-1.07-2.06.36-2.52,3.15-1,6.35-2,9.71-1.52,4.48.6,6.62,3.85,7.56,7.69C225.45,92.51,228.37,97.1,224,101.36Z"/><path class="cls-2" d="M106.89,174.06c1-2,2.13-4,3-6.07.93-2.38.43-4.44-2-5.72s-4.31-.67-5.72,1.61l-3.55,5.74c-.19-4.49,2.2-7.72,5.63-10,2.86-1.89,7.17.39,8.32,3.91.94,2.86-1.85,10-4.55,11.41C107.79,175,107.25,174.38,106.89,174.06Z"/><path class="cls-1" d="M224.58,98.3a4.52,4.52,0,0,1,.25.79c0,.08-.19.2-.3.3a4.42,4.42,0,0,1-.25-.78C224.26,98.52,224.47,98.41,224.58,98.3Z"/><rect class="cls-3" width="500" height="500"/></g></g></svg>