<svg xmlns="http://www.w3.org/2000/svg" viewBox="0 0 500 500"><defs><style>.cls-1{fill:none;}.cls-2{fill:#cb1a22;}.cls-3{fill:#172c63;}</style></defs><g id="Calque_2" data-name="Calque 2"><g id="Calque_1-2" data-name="Calque 1"><rect class="cls-1" width="500" height="500"/><g id="fTTh8g"><path class="cls-2" d="M381,187.37c-28.31-1.74-56.61-2.56-84.92-.25-14.61,1.19-29.17,2.79-44,6.42-11.47-44.89-13.55-89.34-4.68-134.09,3.87-.35,4.68,2.09,5.88,3.66,39.23,51.17,86.26,93.12,144.16,122.28C392.33,188.91,386.56,187.19,381,187.37Z"/><path class="cls-3" d="M172.05,141.42c.68,27,4.66,51.75,10.25,76.8a338.26,338.26,0,0,0-81.83,61.94C88.59,250.08,72,224.1,50.71,199.62,94.92,187.57,134.28,168.36,172.05,141.42Z"/><path class="cls-2" d="M144.22,453.76C226.14,422.17,306.91,428,385.81,460c2.94,4.66,1.89,8.09,2.28,11.32s.89,6.54-.82,11.19A292.12,292.12,0,0,0,269,445.07C226.83,441,185.4,445.58,144.22,453.76Z"/><path class="cls-3" d="M252.52,37.41c1.38-2.53,2.34-4.48,3.47-6.34,2.46-4,5-8,8.48-13.54C300.82,99.84,366,149.31,444.91,183.68c-2.17,2.13-4.37.72-6.51.23s-4.3-1-6.4-1.72c-30.53-10-59.24-23.67-85.31-42.64A348.76,348.76,0,0,1,252.52,37.41Z"/><path class="cls-3" d="M388.89,428.49c-5.14-89.69,26.63-166.07,83.45-233.59A71.09,71.09,0,0,1,495,200.52C425.83,261.38,398,340.63,388.89,428.49Z"/><path class="cls-3" d="M212,77.25C192.33,105,167,126.6,138.77,145A345.58,345.58,0,0,1,33.25,190.64c-1.78.44-3.57.86-5.37,1.17s-3.62.46-5.33.68c-6.89-3.59-9.86-11-17.55-15.28,10.45-4.06,20.28-3.47,29.63-5.06,41.29-7,78.6-23.47,113.16-46.57,20.83-13.93,40.46-29.39,57.9-47.49A35.9,35.9,0,0,1,210,74.77C210.68,75.6,211.32,76.43,212,77.25Z"/><path class="cls-3" d="M52.2,233.37c2.82-.22,3.44,2.23,4.58,3.9,28.4,41.78,44.69,88,50.91,138,2.74,22,2.42,44.06,2.06,66.13-.11,6.27-.41,12.51-2.83,19.29l-18.79,7.53c-2.31-4.29,0-8,.78-11.67A271.46,271.46,0,0,0,96,395.31c-.17-44.35-10-86.62-27.65-127.12-5.11-11.71-10.92-23.1-16.41-34.64Z"/><path class="cls-3" d="M259.84,346.87c-8.9,2-13.73-1.07-17.07-7.13-2.63-4.75-5.17-9.57-8-14.84-2.33,3.75-1.05,7.22-1.27,10.48-.23,3.62-.05,7.28-.05,10.7-4.18,3.52-7.07.58-10.8-1.23V305.76c10.09-1.73,13.19-.46,17.82,7.61,2.52,4.4,4.81,8.93,7.93,14.74V305.26c4.17-1.41,6.95.09,10.65,2.5C260.57,320.15,259.21,333.22,259.84,346.87Z"/><path class="cls-3" d="M268.29,345.91c-2.52-13.83-.84-27.27-.32-40.92,6.48-1.59,12.74-1.14,18.82-.16,9.61,1.54,15.52,9.25,15.83,19.59.35,11.74-5.26,20.22-15.1,22.5C281.42,348.34,275.26,349.38,268.29,345.91Zm11.08-31.17c-2,4.29-1.07,8-1.07,11.61s-1.22,7.3,1,10.61c8.56-.51,12.34-3.55,12.82-10.17S288.65,316.41,279.37,314.74Z"/><path class="cls-3" d="M191.22,304.71c6.87-.57,11.18.74,13.71,5.65a103,103,0,0,1,11.24,35.76c-4.36,3.42-7.41.13-10.71,0-1-2.85-1.77-5.23-2.68-7.92a44.94,44.94,0,0,0-12.67-.35c-2.77,2.75-2.36,6.38-3.61,8.94-3.41,2-6,1-9.6-1.72C176.7,330.22,183.49,317.34,191.22,304.71Zm5.09,12c-2.86,4.2-3.94,7.26-4.37,10.58,3,1.22,5.35,1.55,7.66-.15C200.16,323.68,197.86,321.15,196.31,316.7Z"/><path class="cls-3" d="M349.93,345a11.2,11.2,0,0,1-3.13-9.73c6.32.05,12.47,5,18.72,1,1.34-2.37.72-4.31-1.77-5.22-3.42-1.25-7.12-1.83-10.46-3.26-7.53-3.22-9.8-10.47-5.69-17.23,4.71-7.76,19.63-10.39,26.49-4.62,2.7,2.26,4.11,5.06,2.52,9.55-3.32-.13-6.3-2.85-9.86-2.54s-7.2-.54-9.82,3.32c2.9,4.39,7.28,4.08,10.86,5.25,7.74,2.53,11.13,6,11.07,11.76-.08,6.43-4,11.2-10.94,13.45C361.44,348.86,359.9,348.71,349.93,345Z"/><path class="cls-3" d="M312.66,304.91c9.14-1.61,17.81-.39,26-.88,1.86,4.17.86,6.65-1.42,8.71-5.32,2.35-11.2-.54-16.12,2.09a4.91,4.91,0,0,0-.63,5.47c4.36,2.17,9.36-.05,13.84,1.58.91,7.88.91,7.88-13.81,9.68,2,5.71,2,5.71,18.46,6.4a6.16,6.16,0,0,1-.33,6.88c-2,2.3-4.81,2.38-7.21,2.69-16.17,2.06-24-5-23.12-19.61C308.8,320.39,306.71,312.39,312.66,304.91Z"/><path class="cls-3" d="M135.58,346.81c-6,1.09-8.52-1.54-10.72-5.37a109.54,109.54,0,0,1-12.69-36.2c4-2,7.67-1.66,11.68,1.15,3.6,7.12,3.46,16.08,8.62,23.38,4.21-7.94,5.29-16.55,8.18-25,4.29-1,8.46-1.7,11.1,4.63C148,322.4,143.32,335.64,135.58,346.81Z"/><path class="cls-3" d="M295,377.4v16.54c-3.79,1.59-6.2.48-8.65-2.54-.13-9.31-.81-19.12.46-28.94,11.91-2.56,14.08,7.11,19.25,15.77.3-6.51.51-11,.71-15.05,3.69-2.31,6-1.13,8.11,1.52v29.76C302.44,395.82,301.71,384.42,295,377.4Z"/><path class="cls-3" d="M120.32,362.43c10.66-.68,19.93-2,26.05,7.27,3.75,5.66,3,13.82-1.37,19.53-6.26,8.23-14.62,6-23.25,5.13C119.3,383.84,121.38,373.68,120.32,362.43Zm9.53,8.06c-.19,6.11-1,11.51.6,17,6-.12,9.71-2.73,9.54-8.53C139.83,373.72,137.26,369.88,129.85,370.49Z"/><path class="cls-3" d="M229.89,394.1c-2.64,1.23-4.9.39-7.59-1.73-1-9.32-.62-19.1-.28-28.72,3.59-2.69,7.37-1.8,10.93-2,5.33-.34,10.45.25,13.15,5.73,2.52,5.12,0,9.16-3.36,12.82,2,4.29,4,8.51,6.29,13.28-4.43,2.56-7.73,1.8-10.42-1.94-2-2.84-2.07-7.17-6.39-8.52C229.42,386.28,232.47,390.8,229.89,394.1Zm2.48-17.89c3.22-.39,5.28-1.38,5.13-4.7-1.18-2.84-3.13-3.42-5.73-2.05C230.58,371.71,230.69,373.69,232.37,376.21Z"/><path class="cls-3" d="M262.68,362.33c6.07-1.22,9.68.72,11.64,5.31,3.56,8.3,7,16.67,7.87,26.11-6.85,2.75-9.43-1.05-10.65-6.28-3.66-1.4-6.83-1-10.4,0L259,394.05c-3.67,1.41-6,.39-8-3A67.21,67.21,0,0,1,262.68,362.33Zm5.63,17.41c.23-3.31.58-5.46-2.77-6.82C264.83,375.63,261.85,378.29,268.31,379.74Z"/><path class="cls-3" d="M360.62,373c4.33,3,8.4.52,11.64,2.55,1.44,1.83.73,3.41-.38,5-2.91,2.75-7.25-.15-10.56,2.81,2.62,7.62,9.47,2.68,13.86,4.58,1.1,1.17,1.64,2.51.54,3.89-4.25,5.35-10.06,3.54-15.23,2.62a9.56,9.56,0,0,1-8.22-9.12,86.8,86.8,0,0,1,.66-21.12c7.81-4,15.57-2.32,23.19-1.6a5.84,5.84,0,0,1-1.57,5.56Z"/><path class="cls-3" d="M155.06,363a59.07,59.07,0,0,1,22.68,0c-1.34,9.8-9.37,4.72-13.77,6.94-1.6.88-1.36,2.38-1.27,3.87,3.13,2.42,7.18,0,10.57,2,1.51,1.48.42,3.18.32,4.7-3.36,2.75-7.47.39-11.15,2.49,2.05,9.15,10.86,2,14.81,5.78.06.94.37,1.78.1,2.33-3.43,6.78-9.62,3.79-14.72,3.73a8.84,8.84,0,0,1-9.07-8.1C152.81,379.12,152,371.38,155.06,363Z"/><path class="cls-3" d="M348.13,371.55c-7.09-2.72-13.62-4.76-18.15,2.38-2.23,3.52-1.43,7.37,1.07,10.28,4.86,5.64,10.5,3.55,16,.81.26,6.57-1.17,8.87-6.27,10.11a18.15,18.15,0,0,1-18.57-6.79c-4-5.67-3.67-15.17.7-20.66,4.14-5.21,12.8-8.05,19-6C345.52,363,348.2,365.3,348.13,371.55Z"/><path class="cls-3" d="M215.64,376.25c.18,1.5.42,2.95-2.22,6.06-.91,1-4.67-1.15-7.47.23-2.87,3.55.27,8.14-2.34,11.49-2.67,1.29-4.93.49-7.53-1.45-1.44-9-.48-18.41-.5-28,7-4.74,14.31-1.83,21.39-2.83,3.14,12.45-11.39,4.36-12.42,11.49C207.71,377,212.58,373.3,215.64,376.25Z"/><path class="cls-3" d="M168.75,308.26v37.6c-3.57,1.16-6.65,1.39-10.42-.84-1.85-13-.12-26.41-1-40.2C162.64,303.56,166.59,303.61,168.75,308.26Z"/><path class="cls-3" d="M381,187.37c5.54-.18,11.31,1.54,16.45-2,.93,1.3,5.76.24,2.48,4.09l-3.2-.18A68.82,68.82,0,0,1,381,187.37Z"/><path class="cls-2" d="M410.3,191.39c-2.06-.14-4.22.81-6.43-.72,2.67-2.76,4.51-1.35,6.23.92Z"/><path class="cls-3" d="M52,233.55c-1.77-.69-2.75-1.72-1.56-3.86,2.07.58,1.93,2.13,1.78,3.68Z"/><path class="cls-2" d="M410.1,191.59l3.25.71c-1.5,1.24-2.47.84-3.05-.91Z"/><path class="cls-3" d="M448.21,185.9a2.16,2.16,0,0,1,2.84.21c-.31.12-.65.39-.93.34A14.77,14.77,0,0,1,448.21,185.9Z"/><path class="cls-3" d="M215.1,72.87c-.89,1.57-1.16,3.59-3.13,4.38-.65-.82-1.29-1.65-1.93-2.48.8-1.2,1.22-2.75,2.89-3.15Z"/><path class="cls-2" d="M396.75,189.3l3.2.18C398.82,190.62,397.75,190.51,396.75,189.3Z"/><path class="cls-3" d="M212.93,71.62a2.73,2.73,0,0,1,2.2-2.22l1.65,1.5-1.68,2Z"/><path class="cls-3" d="M215.13,69.4a2.44,2.44,0,0,1,2.24-2.18c.34.32.67.66,1,1l-1.58,2.68Z"/><path class="cls-3" d="M217.37,67.22c.32-1.39.91-2.42,2.62-1.81l.09.08a2.16,2.16,0,0,1-1.72,2.73C218,67.88,217.71,67.54,217.37,67.22Z"/><path class="cls-3" d="M220,65.41l.52-1.91,1.23.86-1.66,1.13Z"/><path class="cls-3" d="M223.41,59.3c.24.28.67.57.66.84s-.43.56-.67.84c-.24-.28-.66-.57-.66-.85S223.17,59.58,223.41,59.3Z"/></g></g></g></svg>