<svg width="512" height="512" viewBox="0 0 512 512" fill="none" xmlns="http://www.w3.org/2000/svg">
<g clip-path="url(#clip0_6_89)">
<path d="M256 64V0.2C253.3 0.1 250.7 0 248 0H224C201.8 0 180.3 3.2 160 9.3V64V86.6C160 99 152.6 109.9 142.6 117.1C114.4 137.4 96 170.6 96 208C96 269.9 146.1 320 208 320C269.9 320 320 269.9 320 208C320 170.6 301.6 137.4 273.4 117.1C263.4 109.9 256 98.9 256 86.6V64ZM144 208C144 191.026 150.743 174.747 162.745 162.745C174.747 150.743 191.026 144 208 144C224.974 144 241.253 150.743 253.255 162.745C265.257 174.747 272 191.026 272 208C272 224.974 265.257 241.253 253.255 253.255C241.253 265.257 224.974 272 208 272C191.026 272 174.747 265.257 162.745 253.255C150.743 241.253 144 224.974 144 208ZM240 208C240 199.513 236.629 191.374 230.627 185.373C224.626 179.371 216.487 176 208 176C199.513 176 191.374 179.371 185.373 185.373C179.371 191.374 176 199.513 176 208C176 216.487 179.371 224.626 185.373 230.627C191.374 236.629 199.513 240 208 240C216.487 240 224.626 236.629 230.627 230.627C236.629 224.626 240 216.487 240 208Z" fill="#A855F7"/>
<path opacity="0.4" d="M160 9.30001V86.6C160 99 152.6 109.9 142.6 117.1C114.4 137.4 96 170.6 96 208C96 269.9 146.1 320 208 320C269.9 320 320 269.9 320 208C320 170.6 301.6 137.4 273.4 117.1C263.4 109.9 256 98.9 256 86.6V0.200012C348 3.90001 429.6 71.9 445.3 160.2C447.6 173.2 452.1 185.9 460.4 196.2L502.4 248.8C508.6 256.6 512 266.2 512 276.2C512 300.4 492.4 320 468.2 320H448V384C448 419.3 419.3 448 384 448H320V480C320 497.7 305.7 512 288 512H96C78.3 512 64 497.7 64 480V407.3C64 390.6 57.1 374.8 46.9 361.5C16.6 322.4 0 274.1 0 224.2C0 122.8 67.4 36.9 160 9.30001Z" fill="#7E22CE"/>
</g>
<defs>
<clipPath id="clip0_6_89">
<rect width="512" height="512" fill="white"/>
</clipPath>
</defs>
</svg>
